{
.appVersion = "1346";
DisplayStrings = (
Jetstream.,
__Whereabouts___,
"",

glyphs = (
{
glyphname = A;
lastChange = "2021-05-01 21:13:05 +0000";
layers = (
{
anchors = (
{
name = bottom;
position = "{746, -240}";
},
{
name = ogonek;
position = "{1010, -240}";
},
{
name = top;
position = "{746, 1400}";
}
);
layerId = m003;
paths = (
{
closed = 1;
nodes = (
"502 -340 OFFCURVE",
"546 -298 OFFCURVE",
"548 -245 CURVE SMOOTH",
"577 298 LINE",
"910 298 LINE",
"910 -240 LINE SMOOTH",
"910 -296 OFFCURVE",
"954 -340 OFFCURVE",
"1010 -340 CURVE SMOOTH",
"1066 -340 OFFCURVE",
"1110 -296 OFFCURVE",
"1110 -240 CURVE SMOOTH",
"1110 -99 LINE",
"1116 -100 OFFCURVE",
"1122 -100 OFFCURVE",
"1128 -100 CURVE SMOOTH",
"1278 -100 LINE SMOOTH",
"1334 -100 OFFCURVE",
"1378 -56 OFFCURVE",
"1378 0 CURVE SMOOTH",
"1378 56 OFFCURVE",
"1334 100 OFFCURVE",
"1278 100 CURVE SMOOTH",
"1128 100 LINE SMOOTH",
"1110 100 OFFCURVE",
"1110 100 OFFCURVE",
"1110 120 CURVE SMOOTH",
"1110 1280 LINE SMOOTH",
"1110 1416 OFFCURVE",
"1026 1500 OFFCURVE",
"890 1500 CURVE SMOOTH",
"68 1500 LINE SMOOTH",
"12 1500 OFFCURVE",
"-32 1456 OFFCURVE",
"-32 1400 CURVE SMOOTH",
"-32 1344 OFFCURVE",
"12 1300 OFFCURVE",
"68 1300 CURVE SMOOTH",
"429 1300 LINE",
"429 1295 OFFCURVE",
"428 1290 OFFCURVE",
"428 1286 CURVE SMOOTH",
"387 498 LINE",
"248 498 LINE SMOOTH",
"192 498 OFFCURVE",
"148 454 OFFCURVE",
"148 398 CURVE SMOOTH",
"148 342 OFFCURVE",
"192 298 OFFCURVE",
"248 298 CURVE SMOOTH",
"376 298 LINE",
"348 -235 LINE SMOOTH",
"346 -291 OFFCURVE",
"391 -340 OFFCURVE",
"448 -340 CURVE SMOOTH"
);
},
{
closed = 1;
nodes = (
"628 1275 LINE SMOOTH",
"629 1300 OFFCURVE",
"629 1300 OFFCURVE",
"646 1300 CURVE SMOOTH",
"890 1300 LINE SMOOTH",
"910 1300 OFFCURVE",
"910 1300 OFFCURVE",
"910 1280 CURVE SMOOTH",
"910 498 LINE",
"587 498 LINE"
);
}
);
width = 1278;
},
{
anchors = (
{
name = bottom;
position = "{1015, -240}";
},
{
name = ogonek;
position = "{1279, -240}";
},
{
name = top;
position = "{418, 1400}";
}
);
layerId = m002;
paths = (
{
closed = 1;
nodes = (
"752 -290 OFFCURVE",
"772 -261 OFFCURVE",
"765 -225 CURVE SMOOTH",
"587 348 LINE",
"1012 348 LINE",
"1232 -257 LINE",
"1239 -276 OFFCURVE",
"1257 -290 OFFCURVE",
"1279 -290 CURVE SMOOTH",
"1319 -290 OFFCURVE",
"1337 -249 OFFCURVE",
"1326 -223 CURVE SMOOTH",
"1261 -43 LINE",
"1277 -48 OFFCURVE",
"1294 -50 OFFCURVE",
"1310 -50 CURVE SMOOTH",
"1460 -50 LINE SMOOTH",
"1488 -50 OFFCURVE",
"1510 -28 OFFCURVE",
"1510 0 CURVE SMOOTH",
"1510 28 OFFCURVE",
"1488 50 OFFCURVE",
"1460 50 CURVE SMOOTH",
"1310 50 LINE SMOOTH",
"1262 50 OFFCURVE",
"1218 81 OFFCURVE",
"1197 132 CURVE",
"773 1297 LINE",
"737 1396 OFFCURVE",
"663 1450 OFFCURVE",
"562 1450 CURVE SMOOTH",
"-260 1450 LINE SMOOTH",
"-288 1450 OFFCURVE",
"-310 1428 OFFCURVE",
"-310 1400 CURVE SMOOTH",
"-310 1372 OFFCURVE",
"-288 1350 OFFCURVE",
"-260 1350 CURVE SMOOTH",
"185 1350 LINE",
"182 1326 OFFCURVE",
"186 1298 OFFCURVE",
"196 1265 CURVE SMOOTH",
"450 448 LINE",
"285 448 LINE SMOOTH",
"257 448 OFFCURVE",
"235 426 OFFCURVE",
"235 398 CURVE SMOOTH",
"235 370 OFFCURVE",
"257 348 OFFCURVE",
"285 348 CURVE SMOOTH",
"481 348 LINE",
"669 -255 LINE SMOOTH",
"676 -275 OFFCURVE",
"695 -290 OFFCURVE",
"717 -290 CURVE SMOOTH"
);
},
{
closed = 1;
nodes = (
"292 1295 LINE SMOOTH",
"282 1328 OFFCURVE",
"292 1350 OFFCURVE",
"318 1350 CURVE SMOOTH",
"562 1350 LINE SMOOTH",
"626 1350 OFFCURVE",
"655 1329 OFFCURVE",
"679 1263 CURVE SMOOTH",
"975 448 LINE",
"556 448 LINE"
);
}
);
width = 1278;
},
{
anchors = (
{
name = bottom;
position = "{477, -240}";
},
{
name = ogonek;
position = "{741, -240}";
},
{
name = top;
position = "{1074, 1400}";
}
);
layerId = m004;
paths = (
{
closed = 1;
nodes = (
"200 -290 OFFCURVE",
"218 -277 OFFCURVE",
"225 -259 CURVE SMOOTH",
"478 348 LINE",
"902 348 LINE",
"694 -223 LINE",
"683 -249 OFFCURVE",
"701 -290 OFFCURVE",
"741 -290 CURVE SMOOTH",
"763 -290 OFFCURVE",
"781 -276 OFFCURVE",
"788 -257 CURVE SMOOTH",
"871 -30 LINE",
"892 -43 OFFCURVE",
"917 -50 OFFCURVE",
"946 -50 CURVE SMOOTH",
"1096 -50 LINE SMOOTH",
"1124 -50 OFFCURVE",
"1146 -28 OFFCURVE",
"1146 0 CURVE SMOOTH",
"1146 28 OFFCURVE",
"1124 50 OFFCURVE",
"1096 50 CURVE SMOOTH",
"946 50 LINE SMOOTH",
"917 50 OFFCURVE",
"907 71 OFFCURVE",
"919 103 CURVE SMOOTH",
"1341 1263 LINE SMOOTH",
"1383 1379 OFFCURVE",
"1330 1450 OFFCURVE",
"1218 1450 CURVE SMOOTH",
"396 1450 LINE SMOOTH",
"368 1450 OFFCURVE",
"346 1428 OFFCURVE",
"346 1400 CURVE SMOOTH",
"346 1372 OFFCURVE",
"368 1350 OFFCURVE",
"396 1350 CURVE SMOOTH",
"792 1350 LINE",
"782 1335 OFFCURVE",
"774 1318 OFFCURVE",
"766 1299 CURVE SMOOTH",
"412 448 LINE",
"211 448 LINE SMOOTH",
"183 448 OFFCURVE",
"161 426 OFFCURVE",
"161 398 CURVE SMOOTH",
"161 370 OFFCURVE",
"183 348 OFFCURVE",
"211 348 CURVE SMOOTH",
"370 348 LINE",
"133 -221 LINE SMOOTH",
"120 -246 OFFCURVE",
"137 -290 OFFCURVE",
"179 -290 CURVE SMOOTH"
);
},
{
closed = 1;
nodes = (
"858 1261 LINE SMOOTH",
"886 1329 OFFCURVE",
"912 1350 OFFCURVE",
"974 1350 CURVE SMOOTH",
"1218 1350 LINE SMOOTH",
"1247 1350 OFFCURVE",
"1259 1329 OFFCURVE",
"1247 1297 CURVE SMOOTH",
"938 448 LINE",
"519 448 LINE"
);
}
);
width = 1278;
},
{
anchors = (
{
name = bottom;
position = "{2746, -240}";
},
{
name = ogonek;
position = "{3010, -240}";
},
{
name = top;
position = "{2746, 1400}";
}
);
layerId = m005;
paths = (
{
closed = 1;
nodes = (
"2475 -290 OFFCURVE",
"2497 -269 OFFCURVE",
"2498 -243 CURVE SMOOTH",
"2529 348 LINE",
"2960 348 LINE",
"2960 -240 LINE SMOOTH",
"2960 -268 OFFCURVE",
"2982 -290 OFFCURVE",
"3010 -290 CURVE SMOOTH",
"3038 -290 OFFCURVE",
"3060 -268 OFFCURVE",
"3060 -240 CURVE SMOOTH",
"3060 -36 LINE",
"3081 -45 OFFCURVE",
"3104 -50 OFFCURVE",
"3128 -50 CURVE SMOOTH",
"5278 -50 LINE SMOOTH",
"5306 -50 OFFCURVE",
"5328 -28 OFFCURVE",
"5328 0 CURVE SMOOTH",
"5328 28 OFFCURVE",
"5306 50 OFFCURVE",
"5278 50 CURVE SMOOTH",
"3128 50 LINE SMOOTH",
"3083 50 OFFCURVE",
"3060 73 OFFCURVE",
"3060 120 CURVE SMOOTH",
"3060 1280 LINE SMOOTH",
"3060 1388 OFFCURVE",
"2998 1450 OFFCURVE",
"2890 1450 CURVE SMOOTH",
"68 1450 LINE SMOOTH",
"40 1450 OFFCURVE",
"18 1428 OFFCURVE",
"18 1400 CURVE SMOOTH",
"18 1372 OFFCURVE",
"40 1350 OFFCURVE",
"68 1350 CURVE SMOOTH",
"2490 1350 LINE",
"2483 1330 OFFCURVE",
"2479 1308 OFFCURVE",
"2478 1283 CURVE SMOOTH",
"2434 448 LINE",
"2248 448 LINE SMOOTH",
"2220 448 OFFCURVE",
"2198 426 OFFCURVE",
"2198 398 CURVE SMOOTH",
"2198 370 OFFCURVE",
"2220 348 OFFCURVE",
"2248 348 CURVE SMOOTH",
"2429 348 LINE",
"2398 -237 LINE SMOOTH",
"2397 -265 OFFCURVE",
"2419 -290 OFFCURVE",
"2448 -290 CURVE SMOOTH"
);
},
{
closed = 1;
nodes = (
"2578 1277 LINE SMOOTH",
"2581 1341 OFFCURVE",
"2589 1350 OFFCURVE",
"2646 1350 CURVE SMOOTH",
"2890 1350 LINE SMOOTH",
"2949 1350 OFFCURVE",
"2960 1339 OFFCURVE",
"2960 1280 CURVE SMOOTH",
"2960 448 LINE",
"2534 448 LINE"
);
}
);
width = 5278;
},
{
anchors = (
{
name = bottom;
position = "{746, -240}";
},
{
name = ogonek;
position = "{1010, -240}";
},
{
name = top;
position = "{746, 1400}";
}
);
layerId = m006;
paths = (
{
closed = 1;
nodes = (
"475 -290 OFFCURVE",
"497 -269 OFFCURVE",
"498 -243 CURVE SMOOTH",
"529.105 348 LINE",
"960 348 LINE",
"960 -240 LINE SMOOTH",
"960 -268 OFFCURVE",
"982 -290 OFFCURVE",
"1010 -290 CURVE SMOOTH",
"1038 -290 OFFCURVE",
"1060 -268 OFFCURVE",
"1060 -240 CURVE SMOOTH",
"1060 -36.044 LINE",
"1080.705 -45.048 OFFCURVE",
"1103.683 -50 OFFCURVE",
"1128 -50 CURVE SMOOTH",
"1278 -50 LINE SMOOTH",
"1306 -50 OFFCURVE",
"1328 -28 OFFCURVE",
"1328 0 CURVE SMOOTH",
"1328 28 OFFCURVE",
"1306 50 OFFCURVE",
"1278 50 CURVE SMOOTH",
"1128 50 LINE SMOOTH",
"1083 50 OFFCURVE",
"1060 73 OFFCURVE",
"1060 120 CURVE SMOOTH",
"1060 1280 LINE SMOOTH",
"1060 1388 OFFCURVE",
"998 1450 OFFCURVE",
"890 1450 CURVE SMOOTH",
"68 1450 LINE SMOOTH",
"40 1450 OFFCURVE",
"18 1428 OFFCURVE",
"18 1400 CURVE SMOOTH",
"18 1372 OFFCURVE",
"40 1350 OFFCURVE",
"68 1350 CURVE SMOOTH",
"489.993 1350 LINE",
"483.155 1330.137 OFFCURVE",
"479.198 1307.689 OFFCURVE",
"478 1283 CURVE SMOOTH",
"434.053 448 LINE",
"248 448 LINE SMOOTH",
"220 448 OFFCURVE",
"198 426 OFFCURVE",
"198 398 CURVE SMOOTH",
"198 370 OFFCURVE",
"220 348 OFFCURVE",
"248 348 CURVE SMOOTH",
"428.789 348 LINE",
"398 -237 LINE SMOOTH",
"397 -265 OFFCURVE",
"419 -290 OFFCURVE",
"448 -290 CURVE SMOOTH"
);
},
{
closed = 1;
nodes = (
"578 1277 LINE SMOOTH",
"581 1341 OFFCURVE",
"589 1350 OFFCURVE",
"646 1350 CURVE SMOOTH",
"890 1350 LINE SMOOTH",
"949 1350 OFFCURVE",
"960 1339 OFFCURVE",
"960 1280 CURVE SMOOTH",
"960 448 LINE",
"534.368 448 LINE"
);
}
);
width = 1278;
},
{
anchors = (
{
name = bottom;
position = "{746, -240}";
},
{
name = ogonek;
position = "{1010, -240}";
},
{
name = top;
position = "{746, 1400}";
}
);
layerId = "2E7AB31B-3074-491A-95D2-A8A197C304C7";
paths = (
{
closed = 1;
nodes = (
"462 -265 OFFCURVE",
"473 -255 OFFCURVE",
"473 -242 CURVE SMOOTH",
"505 373 LINE",
"985 373 LINE",
"985 -240 LINE SMOOTH",
"985 -254 OFFCURVE",
"996 -265 OFFCURVE",
"1010 -265 CURVE SMOOTH",
"1024 -265 OFFCURVE",
"1035 -254 OFFCURVE",
"1035 -240 CURVE SMOOTH",
"1035 -5 LINE",
"1063 -18 OFFCURVE",
"1095 -25 OFFCURVE",
"1128 -25 CURVE SMOOTH",
"1278 -25 LINE SMOOTH",
"1292 -25 OFFCURVE",
"1303 -14 OFFCURVE",
"1303 0 CURVE SMOOTH",
"1303 14 OFFCURVE",
"1292 25 OFFCURVE",
"1278 25 CURVE SMOOTH",
"1128 25 LINE SMOOTH",
"1070 25 OFFCURVE",
"1035 60 OFFCURVE",
"1035 120 CURVE SMOOTH",
"1035 1280 LINE SMOOTH",
"1035 1374 OFFCURVE",
"984 1425 OFFCURVE",
"890 1425 CURVE SMOOTH",
"68 1425 LINE SMOOTH",
"54 1425 OFFCURVE",
"43 1414 OFFCURVE",
"43 1400 CURVE SMOOTH",
"43 1386 OFFCURVE",
"54 1375 OFFCURVE",
"68 1375 CURVE SMOOTH",
"520 1375 LINE",
"510 1348 OFFCURVE",
"505 1317 OFFCURVE",
"503 1282 CURVE SMOOTH",
"458 423 LINE",
"248 423 LINE SMOOTH",
"234 423 OFFCURVE",
"223 412 OFFCURVE",
"223 398 CURVE SMOOTH",
"223 384 OFFCURVE",
"234 373 OFFCURVE",
"248 373 CURVE SMOOTH",
"455 373 LINE",
"423 -238 LINE SMOOTH",
"423 -252 OFFCURVE",
"433 -265 OFFCURVE",
"448 -265 CURVE SMOOTH"
);
},
{
closed = 1;
nodes = (
"553 1278 LINE SMOOTH",
"557 1362 OFFCURVE",
"569 1375 OFFCURVE",
"646 1375 CURVE SMOOTH",
"890 1375 LINE SMOOTH",
"969 1375 OFFCURVE",
"985 1359 OFFCURVE",
"985 1280 CURVE SMOOTH",
"985 423 LINE",
"508 423 LINE"
);
}
);
width = 1278;
}
);
leftKerningGroup = A;
rightKerningGroup = H;
unicode = 0041;
},
{
glyphname = AE;
lastChange = "2021-05-01 21:13:05 +0000";
layers = (
{
anchors = (
{
name = bottom;
position = "{600, 0}";
},
{
name = ogonek;
position = "{1010, -240}";
},
{
name = top;
position = "{600, 1400}";
}
);
layerId = m003;
paths = (
{
closed = 1;
nodes = (
"1470 -340 LINE SMOOTH",
"1648 -340 OFFCURVE",
"1760 -228 OFFCURVE",
"1760 -50 CURVE",
"1733 -100 LINE",
"1748 -100 OFFCURVE",
"1763 -100 OFFCURVE",
"1778 -100 CURVE",
"1888 -100 LINE SMOOTH",
"1944 -100 OFFCURVE",
"1988 -56 OFFCURVE",
"1988 0 CURVE SMOOTH",
"1988 56 OFFCURVE",
"1944 100 OFFCURVE",
"1888 100 CURVE SMOOTH",
"1778 100 LINE SMOOTH",
"1760 100 OFFCURVE",
"1760 100 OFFCURVE",
"1760 120 CURVE SMOOTH",
"1760 220 LINE SMOOTH",
"1760 276 OFFCURVE",
"1716 320 OFFCURVE",
"1660 320 CURVE SMOOTH",
"1604 320 OFFCURVE",
"1560 276 OFFCURVE",
"1560 220 CURVE SMOOTH",
"1560 -50 LINE SMOOTH",
"1560 -130 OFFCURVE",
"1550 -140 OFFCURVE",
"1470 -140 CURVE SMOOTH",
"1110 -140 LINE",
"1110 360 LINE",
"1390 360 LINE SMOOTH",
"1446 360 OFFCURVE",
"1490 404 OFFCURVE",
"1490 460 CURVE SMOOTH",
"1490 516 OFFCURVE",
"1446 560 OFFCURVE",
"1390 560 CURVE SMOOTH",
"1110 560 LINE",
"1110 1300 LINE",
"1420 1300 LINE SMOOTH",
"1441 1300 OFFCURVE",
"1441 1300 OFFCURVE",
"1440 1290 CURVE SMOOTH",
"1400 869 LINE SMOOTH",
"1394 811 OFFCURVE",
"1441 760 OFFCURVE",
"1500 760 CURVE SMOOTH",
"1551 760 OFFCURVE",
"1595 799 OFFCURVE",
"1600 850 CURVE SMOOTH",
"1640 1270 LINE SMOOTH",
"1653 1405 OFFCURVE",
"1565 1500 OFFCURVE",
"1420 1500 CURVE SMOOTH",
"68 1500 LINE SMOOTH",
"12 1500 OFFCURVE",
"-32 1456 OFFCURVE",
"-32 1400 CURVE SMOOTH",
"-32 1344 OFFCURVE",
"12 1300 OFFCURVE",
"68 1300 CURVE SMOOTH",
"429 1300 LINE",
"429 1295 OFFCURVE",
"428 1290 OFFCURVE",
"428 1286 CURVE SMOOTH",
"387 498 LINE",
"248 498 LINE SMOOTH",
"192 498 OFFCURVE",
"148 454 OFFCURVE",
"148 398 CURVE SMOOTH",
"148 342 OFFCURVE",
"192 298 OFFCURVE",
"248 298 CURVE SMOOTH",
"376 298 LINE",
"348 -235 LINE SMOOTH",
"345 -291 OFFCURVE",
"391 -340 OFFCURVE",
"448 -340 CURVE SMOOTH",
"502 -340 OFFCURVE",
"545 -298 OFFCURVE",
"548 -245 CURVE SMOOTH",
"577 298 LINE",
"910 298 LINE",
"910 -239 LINE SMOOTH",
"910 -296 OFFCURVE",
"954 -340 OFFCURVE",
"1011 -340 CURVE SMOOTH"
);
},
{
closed = 1;
nodes = (
"628 1275 LINE SMOOTH",
"629 1300 OFFCURVE",
"629 1300 OFFCURVE",
"646 1300 CURVE SMOOTH",
"910 1300 LINE",
"910 498 LINE",
"587 498 LINE"
);
}
);
width = 1888;
},
{
anchors = (
{
name = bottom;
position = "{782, 0}";
},
{
name = ogonek;
position = "{1279, -240}";
},
{
name = top;
position = "{272, 1400}";
}
);
layerId = m002;
paths = (
{
closed = 1;
nodes = (
"1739 -290 LINE SMOOTH",
"1888 -290 OFFCURVE",
"1960 -197 OFFCURVE",
"1911 -46 CURVE",
"1911 -46 LINE",
"1927 -49 OFFCURVE",
"1943 -50 OFFCURVE",
"1960 -50 CURVE SMOOTH",
"2070 -50 LINE SMOOTH",
"2098 -50 OFFCURVE",
"2120 -28 OFFCURVE",
"2120 0 CURVE SMOOTH",
"2120 28 OFFCURVE",
"2098 50 OFFCURVE",
"2070 50 CURVE SMOOTH",
"1960 50 LINE SMOOTH",
"1904 50 OFFCURVE",
"1869 71 OFFCURVE",
"1849 127 CURVE SMOOTH",
"1809 237 LINE SMOOTH",
"1802 256 OFFCURVE",
"1784 270 OFFCURVE",
"1762 270 CURVE SMOOTH",
"1722 270 OFFCURVE",
"1704 229 OFFCURVE",
"1715 203 CURVE",
"1813 -67 LINE SMOOTH",
"1840 -142 OFFCURVE",
"1811 -190 OFFCURVE",
"1739 -190 CURVE SMOOTH",
"1315 -190 LINE",
"1096 410 LINE",
"1404 410 LINE SMOOTH",
"1432 410 OFFCURVE",
"1454 432 OFFCURVE",
"1454 460 CURVE SMOOTH",
"1454 488 OFFCURVE",
"1432 510 OFFCURVE",
"1404 510 CURVE SMOOTH",
"1059 510 LINE",
"753 1350 LINE",
"1092 1350 LINE SMOOTH",
"1161 1350 OFFCURVE",
"1192 1327 OFFCURVE",
"1208 1267 CURVE SMOOTH",
"1321 847 LINE SMOOTH",
"1327 826 OFFCURVE",
"1346 810 OFFCURVE",
"1369 810 CURVE SMOOTH",
"1400 810 OFFCURVE",
"1427 837 OFFCURVE",
"1417 873 CURVE SMOOTH",
"1304 1293 LINE SMOOTH",
"1278 1391 OFFCURVE",
"1201 1450 OFFCURVE",
"1092 1450 CURVE SMOOTH",
"-260 1450 LINE SMOOTH",
"-288 1450 OFFCURVE",
"-310 1428 OFFCURVE",
"-310 1400 CURVE SMOOTH",
"-310 1372 OFFCURVE",
"-288 1350 OFFCURVE",
"-260 1350 CURVE SMOOTH",
"185 1350 LINE",
"182 1326 OFFCURVE",
"186 1298 OFFCURVE",
"196 1265 CURVE SMOOTH",
"450 448 LINE",
"285 448 LINE SMOOTH",
"257 448 OFFCURVE",
"235 426 OFFCURVE",
"235 398 CURVE SMOOTH",
"235 370 OFFCURVE",
"257 348 OFFCURVE",
"285 348 CURVE SMOOTH",
"481 348 LINE",
"669 -255 LINE SMOOTH",
"675 -275 OFFCURVE",
"695 -290 OFFCURVE",
"717 -290 CURVE SMOOTH",
"752 -290 OFFCURVE",
"776 -260 OFFCURVE",
"765 -225 CURVE SMOOTH",
"587 348 LINE",
"1012 348 LINE",
"1222 -229 LINE SMOOTH",
"1236 -266 OFFCURVE",
"1269 -290 OFFCURVE",
"1309 -290 CURVE SMOOTH"
);
},
{
closed = 1;
nodes = (
"292 1295 LINE SMOOTH",
"282 1328 OFFCURVE",
"292 1350 OFFCURVE",
"318 1350 CURVE SMOOTH",
"647 1350 LINE",
"975 448 LINE",
"556 448 LINE"
);
}
);
width = 1888;
},
{
anchors = (
{
name = bottom;
position = "{345, 0}";
},
{
name = ogonek;
position = "{668, -240}";
},
{
name = top;
position = "{855, 1400}";
}
);
layerId = m004;
paths = (
{
closed = 1;
nodes = (
"1201 -290 LINE SMOOTH",
"1345 -290 OFFCURVE",
"1457 -208 OFFCURVE",
"1507 -67 CURVE SMOOTH",
"1519 -33 LINE",
"1540 -44 OFFCURVE",
"1566 -50 OFFCURVE",
"1596 -50 CURVE SMOOTH",
"1706 -50 LINE SMOOTH",
"1734 -50 OFFCURVE",
"1756 -28 OFFCURVE",
"1756 0 CURVE SMOOTH",
"1756 28 OFFCURVE",
"1734 50 OFFCURVE",
"1706 50 CURVE SMOOTH",
"1596 50 LINE SMOOTH",
"1549 50 OFFCURVE",
"1550 50 OFFCURVE",
"1569 103 CURVE SMOOTH",
"1605 203 LINE SMOOTH",
"1615 230 OFFCURVE",
"1598 270 OFFCURVE",
"1558 270 CURVE SMOOTH",
"1536 270 OFFCURVE",
"1518 256 OFFCURVE",
"1511 237 CURVE SMOOTH",
"1413 -33 LINE SMOOTH",
"1374 -141 OFFCURVE",
"1307 -190 OFFCURVE",
"1201 -190 CURVE SMOOTH",
"813 -190 LINE",
"1031 410 LINE",
"1376 410 LINE SMOOTH",
"1404 410 OFFCURVE",
"1426 432 OFFCURVE",
"1426 460 CURVE SMOOTH",
"1426 488 OFFCURVE",
"1404 510 OFFCURVE",
"1376 510 CURVE SMOOTH",
"1067 510 LINE",
"1373 1350 LINE",
"1748 1350 LINE SMOOTH",
"1781 1350 OFFCURVE",
"1793 1331 OFFCURVE",
"1779 1301 CURVE SMOOTH",
"1586 881 LINE SMOOTH",
"1573 852 OFFCURVE",
"1590 810 OFFCURVE",
"1631 810 CURVE SMOOTH",
"1651 810 OFFCURVE",
"1668 822 OFFCURVE",
"1676 839 CURVE SMOOTH",
"1869 1259 LINE SMOOTH",
"1919 1369 OFFCURVE",
"1872 1450 OFFCURVE",
"1748 1450 CURVE SMOOTH",
"396 1450 LINE SMOOTH",
"368 1450 OFFCURVE",
"346 1428 OFFCURVE",
"346 1400 CURVE SMOOTH",
"346 1372 OFFCURVE",
"368 1350 OFFCURVE",
"396 1350 CURVE SMOOTH",
"792 1350 LINE",
"782 1335 OFFCURVE",
"774 1318 OFFCURVE",
"766 1299 CURVE SMOOTH",
"412 448 LINE",
"211 448 LINE SMOOTH",
"183 448 OFFCURVE",
"161 426 OFFCURVE",
"161 398 CURVE SMOOTH",
"161 370 OFFCURVE",
"183 348 OFFCURVE",
"211 348 CURVE SMOOTH",
"370 348 LINE",
"133 -221 LINE SMOOTH",
"122 -247 OFFCURVE",
"137 -290 OFFCURVE",
"179 -290 CURVE SMOOTH",
"200 -290 OFFCURVE",
"218 -277 OFFCURVE",
"225 -259 CURVE SMOOTH",
"478 348 LINE",
"902 348 LINE",
"698 -212 LINE SMOOTH",
"683 -252 OFFCURVE",
"710 -290 OFFCURVE",
"753 -290 CURVE SMOOTH"
);
},
{
closed = 1;
nodes = (
"858 1261 LINE SMOOTH",
"886 1329 OFFCURVE",
"912 1350 OFFCURVE",
"974 1350 CURVE SMOOTH",
"1267 1350 LINE",
"938 448 LINE",
"519 448 LINE"
);
}
);
width = 1888;
},
{
anchors = (
{
name = bottom;
position = "{2600, 0}";
},
{
name = ogonek;
position = "{3010, -240}";
},
{
name = top;
position = "{2600, 1400}";
}
);
layerId = m005;
paths = (
{
closed = 1;
nodes = (
"3470 -290 LINE SMOOTH",
"3620 -290 OFFCURVE",
"3710 -200 OFFCURVE",
"3710 -50 CURVE SMOOTH",
"3710 -39 LINE",
"3730 -46 OFFCURVE",
"3753 -50 OFFCURVE",
"3778 -50 CURVE SMOOTH",
"5888 -50 LINE SMOOTH",
"5916 -50 OFFCURVE",
"5938 -28 OFFCURVE",
"5938 0 CURVE SMOOTH",
"5938 28 OFFCURVE",
"5916 50 OFFCURVE",
"5888 50 CURVE SMOOTH",
"3778 50 LINE SMOOTH",
"3723 50 OFFCURVE",
"3710 64 OFFCURVE",
"3710 120 CURVE SMOOTH",
"3710 220 LINE SMOOTH",
"3710 248 OFFCURVE",
"3688 270 OFFCURVE",
"3660 270 CURVE SMOOTH",
"3632 270 OFFCURVE",
"3610 248 OFFCURVE",
"3610 220 CURVE SMOOTH",
"3610 -50 LINE SMOOTH",
"3610 -151 OFFCURVE",
"3571 -190 OFFCURVE",
"3470 -190 CURVE SMOOTH",
"3060 -190 LINE",
"3060 410 LINE",
"3390 410 LINE SMOOTH",
"3418 410 OFFCURVE",
"3440 432 OFFCURVE",
"3440 460 CURVE SMOOTH",
"3440 488 OFFCURVE",
"3418 510 OFFCURVE",
"3390 510 CURVE SMOOTH",
"3060 510 LINE",
"3060 1350 LINE",
"3420 1350 LINE SMOOTH",
"3485 1350 OFFCURVE",
"3495 1338 OFFCURVE",
"3490 1285 CURVE SMOOTH",
"3450 865 LINE SMOOTH",
"3447 836 OFFCURVE",
"3470 810 OFFCURVE",
"3500 810 CURVE SMOOTH",
"3526 810 OFFCURVE",
"3548 830 OFFCURVE",
"3550 855 CURVE SMOOTH",
"3590 1275 LINE SMOOTH",
"3600 1381 OFFCURVE",
"3535 1450 OFFCURVE",
"3420 1450 CURVE SMOOTH",
"68 1450 LINE SMOOTH",
"40 1450 OFFCURVE",
"18 1428 OFFCURVE",
"18 1400 CURVE SMOOTH",
"18 1372 OFFCURVE",
"40 1350 OFFCURVE",
"68 1350 CURVE SMOOTH",
"2490 1350 LINE",
"2483 1330 OFFCURVE",
"2479 1308 OFFCURVE",
"2478 1283 CURVE SMOOTH",
"2434 448 LINE",
"2248 448 LINE SMOOTH",
"2220 448 OFFCURVE",
"2198 426 OFFCURVE",
"2198 398 CURVE SMOOTH",
"2198 370 OFFCURVE",
"2220 348 OFFCURVE",
"2248 348 CURVE SMOOTH",
"2429 348 LINE",
"2398 -237 LINE SMOOTH",
"2397 -265 OFFCURVE",
"2419 -290 OFFCURVE",
"2448 -290 CURVE SMOOTH",
"2475 -290 OFFCURVE",
"2497 -269 OFFCURVE",
"2498 -243 CURVE SMOOTH",
"2529 348 LINE",
"2960 348 LINE",
"2960 -239 LINE SMOOTH",
"2960 -268 OFFCURVE",
"2982 -290 OFFCURVE",
"3011 -290 CURVE SMOOTH"
);
},
{
closed = 1;
nodes = (
"2578 1277 LINE SMOOTH",
"2581 1341 OFFCURVE",
"2589 1350 OFFCURVE",
"2646 1350 CURVE SMOOTH",
"2960 1350 LINE",
"2960 448 LINE",
"2534 448 LINE"
);
}
);
width = 5888;
},
{
anchors = (
{
name = bottom;
position = "{600, 0}";
},
{
name = ogonek;
position = "{1010, -240}";
},
{
name = top;
position = "{600, 1400}";
}
);
layerId = m006;
paths = (
{
closed = 1;
nodes = (
"1470 -290 LINE SMOOTH",
"1620 -290 OFFCURVE",
"1710 -200 OFFCURVE",
"1710 -50 CURVE SMOOTH",
"1710 -38.718 LINE",
"1730.109 -46.094 OFFCURVE",
"1752.889 -50 OFFCURVE",
"1778 -50 CURVE SMOOTH",
"1888 -50 LINE SMOOTH",
"1916 -50 OFFCURVE",
"1938 -28 OFFCURVE",
"1938 0 CURVE SMOOTH",
"1938 28 OFFCURVE",
"1916 50 OFFCURVE",
"1888 50 CURVE SMOOTH",
"1778 50 LINE SMOOTH",
"1723 50 OFFCURVE",
"1710 64 OFFCURVE",
"1710 120 CURVE SMOOTH",
"1710 220 LINE SMOOTH",
"1710 248 OFFCURVE",
"1688 270 OFFCURVE",
"1660 270 CURVE SMOOTH",
"1632 270 OFFCURVE",
"1610 248 OFFCURVE",
"1610 220 CURVE SMOOTH",
"1610 -50 LINE SMOOTH",
"1610 -151 OFFCURVE",
"1571 -190 OFFCURVE",
"1470 -190 CURVE SMOOTH",
"1060 -189 LINE",
"1060 410 LINE",
"1390 410 LINE SMOOTH",
"1418 410 OFFCURVE",
"1440 432 OFFCURVE",
"1440 460 CURVE SMOOTH",
"1440 488 OFFCURVE",
"1418 510 OFFCURVE",
"1390 510 CURVE SMOOTH",
"1060 510 LINE",
"1060 1350 LINE",
"1420 1350 LINE SMOOTH",
"1485 1350 OFFCURVE",
"1495 1338 OFFCURVE",
"1490 1285 CURVE SMOOTH",
"1450 865 LINE SMOOTH",
"1447 836 OFFCURVE",
"1470 810 OFFCURVE",
"1500 810 CURVE SMOOTH",
"1526 810 OFFCURVE",
"1548 830 OFFCURVE",
"1550 855 CURVE SMOOTH",
"1590 1275 LINE SMOOTH",
"1600 1381 OFFCURVE",
"1535 1450 OFFCURVE",
"1420 1450 CURVE SMOOTH",
"68 1450 LINE SMOOTH",
"40 1450 OFFCURVE",
"18 1428 OFFCURVE",
"18 1400 CURVE SMOOTH",
"18 1372 OFFCURVE",
"40 1350 OFFCURVE",
"68 1350 CURVE SMOOTH",
"489.993 1350 LINE",
"483.155 1330.137 OFFCURVE",
"479 1308 OFFCURVE",
"478 1283 CURVE SMOOTH",
"434.053 448 LINE",
"248 448 LINE SMOOTH",
"220 448 OFFCURVE",
"198 426 OFFCURVE",
"198 398 CURVE SMOOTH",
"198 370 OFFCURVE",
"220 348 OFFCURVE",
"248 348 CURVE SMOOTH",
"428.789 348 LINE",
"398 -237 LINE SMOOTH",
"397 -265 OFFCURVE",
"419 -290 OFFCURVE",
"448 -290 CURVE SMOOTH",
"475 -290 OFFCURVE",
"497 -269 OFFCURVE",
"498 -243 CURVE SMOOTH",
"529.105 348 LINE",
"960 348 LINE",
"960 -239 LINE SMOOTH",
"960 -268 OFFCURVE",
"982 -290 OFFCURVE",
"1011 -290 CURVE SMOOTH"
);
},
{
closed = 1;
nodes = (
"578 1277 LINE SMOOTH",
"581 1341 OFFCURVE",
"589 1350 OFFCURVE",
"646 1350 CURVE SMOOTH",
"960 1350 LINE",
"960 448 LINE",
"534.368 448 LINE"
);
}
);
width = 1888;
},
{
anchors = (
{
name = bottom;
position = "{600, 0}";
},
{
name = ogonek;
position = "{1010, -240}";
},
{
name = top;
position = "{600, 1400}";
}
);
layerId = "2E7AB31B-3074-491A-95D2-A8A197C304C7";
paths = (
{
closed = 1;
nodes = (
"1470 -265 LINE SMOOTH",
"1598 -265 OFFCURVE",
"1685 -194 OFFCURVE",
"1685 -58 CURVE SMOOTH",
"1685 -3 LINE",
"1711 -21 OFFCURVE",
"1743 -25 OFFCURVE",
"1778 -25 CURVE SMOOTH",
"1888 -25 LINE SMOOTH",
"1902 -25 OFFCURVE",
"1913 -14 OFFCURVE",
"1913 0 CURVE SMOOTH",
"1913 14 OFFCURVE",
"1902 25 OFFCURVE",
"1888 25 CURVE SMOOTH",
"1778 25 LINE SMOOTH",
"1705 25 OFFCURVE",
"1685 46 OFFCURVE",
"1685 120 CURVE SMOOTH",
"1685 220 LINE SMOOTH",
"1685 234 OFFCURVE",
"1674 245 OFFCURVE",
"1660 245 CURVE SMOOTH",
"1646 245 OFFCURVE",
"1635 234 OFFCURVE",
"1635 220 CURVE SMOOTH",
"1635 -50 LINE SMOOTH",
"1635 -162 OFFCURVE",
"1582 -215 OFFCURVE",
"1470 -215 CURVE SMOOTH",
"1035 -215 LINE",
"1035 435 LINE",
"1390 435 LINE SMOOTH",
"1404 435 OFFCURVE",
"1415 446 OFFCURVE",
"1415 460 CURVE SMOOTH",
"1415 474 OFFCURVE",
"1404 485 OFFCURVE",
"1390 485 CURVE SMOOTH",
"1035 485 LINE",
"1035 1375 LINE",
"1420 1375 LINE SMOOTH",
"1507 1375 OFFCURVE",
"1522 1357 OFFCURVE",
"1515 1283 CURVE SMOOTH",
"1475 863 LINE SMOOTH",
"1474 849 OFFCURVE",
"1485 835 OFFCURVE",
"1500 835 CURVE SMOOTH",
"1514 835 OFFCURVE",
"1524 846 OFFCURVE",
"1525 858 CURVE SMOOTH",
"1565 1278 LINE SMOOTH",
"1574 1369 OFFCURVE",
"1520 1425 OFFCURVE",
"1420 1425 CURVE SMOOTH",
"68 1425 LINE SMOOTH",
"54 1425 OFFCURVE",
"43 1414 OFFCURVE",
"43 1400 CURVE SMOOTH",
"43 1386 OFFCURVE",
"54 1375 OFFCURVE",
"68 1375 CURVE SMOOTH",
"520 1375 LINE",
"510 1348 OFFCURVE",
"505 1317 OFFCURVE",
"503 1282 CURVE SMOOTH",
"458 423 LINE",
"248 423 LINE SMOOTH",
"234 423 OFFCURVE",
"223 412 OFFCURVE",
"223 398 CURVE SMOOTH",
"223 384 OFFCURVE",
"234 373 OFFCURVE",
"248 373 CURVE SMOOTH",
"455 373 LINE",
"423 -238 LINE SMOOTH",
"422 -252 OFFCURVE",
"433 -265 OFFCURVE",
"448 -265 CURVE SMOOTH",
"462 -265 OFFCURVE",
"472 -255 OFFCURVE",
"473 -242 CURVE SMOOTH",
"505 373 LINE",
"985 373 LINE",
"985 -239 LINE SMOOTH",
"985 -254 OFFCURVE",
"996 -265 OFFCURVE",
"1011 -265 CURVE SMOOTH"
);
},
{
closed = 1;
nodes = (
"553 1278 LINE SMOOTH",
"557 1362 OFFCURVE",
"569 1375 OFFCURVE",
"646 1375 CURVE SMOOTH",
"985 1375 LINE",
"985 423 LINE",
"508 423 LINE"
);
}
);
width = 1888;
}
);
leftKerningGroup = A;
rightKerningGroup = E;
unicode = 00C6;
},
{
glyphname = B;
lastChange = "2021-05-01 21:13:05 +0000";
layers = (
{
anchors = (
{
name = bottom;
position = "{634, -220}";
},
{
name = top;
position = "{634, 1400}";
}
);
layerId = m003;
paths = (
{
closed = 1;
nodes = (
"880 -340 LINE SMOOTH",
"1016 -340 OFFCURVE",
"1100 -256 OFFCURVE",
"1100 -120 CURVE SMOOTH",
"1100 -99 LINE",
"1106 -100 OFFCURVE",
"1112 -100 OFFCURVE",
"1118 -100 CURVE SMOOTH",
"1228 -100 LINE SMOOTH",
"1284 -100 OFFCURVE",
"1328 -56 OFFCURVE",
"1328 0 CURVE SMOOTH",
"1328 56 OFFCURVE",
"1284 100 OFFCURVE",
"1228 100 CURVE SMOOTH",
"1118 100 LINE SMOOTH",
"1100 100 OFFCURVE",
"1100 100 OFFCURVE",
"1100 120 CURVE SMOOTH",
"1100 292 LINE SMOOTH",
"1100 427 OFFCURVE",
"1017 511 OFFCURVE",
"883 512 CURVE",
"930 474 LINE",
"1000 1272 LINE SMOOTH",
"1013 1419 OFFCURVE",
"915 1500 OFFCURVE",
"780 1500 CURVE SMOOTH",
"100 1500 LINE SMOOTH",
"44 1500 OFFCURVE",
"0 1456 OFFCURVE",
"0 1400 CURVE SMOOTH",
"0 1344 OFFCURVE",
"44 1300 OFFCURVE",
"100 1300 CURVE SMOOTH",
"300 1300 LINE",
"300 512 LINE",
"100 512 LINE SMOOTH",
"44 512 OFFCURVE",
"0 468 OFFCURVE",
"0 412 CURVE SMOOTH",
"0 356 OFFCURVE",
"44 312 OFFCURVE",
"100 312 CURVE SMOOTH",
"300 312 LINE",
"300 -239 LINE SMOOTH",
"300 -296 OFFCURVE",
"344 -340 OFFCURVE",
"401 -340 CURVE SMOOTH"
);
},
{
closed = 1;
nodes = (
"500 312 LINE",
"880 312 LINE SMOOTH",
"900 312 OFFCURVE",
"900 312 OFFCURVE",
"900 292 CURVE SMOOTH",
"900 -120 LINE SMOOTH",
"900 -140 OFFCURVE",
"900 -140 OFFCURVE",
"880 -140 CURVE SMOOTH",
"500 -140 LINE"
);
},
{
closed = 1;
nodes = (
"500 1300 LINE",
"780 1300 LINE SMOOTH",
"801 1300 OFFCURVE",
"801 1300 OFFCURVE",
"800 1288 CURVE SMOOTH",
"736 512 LINE",
"500 512 LINE"
);
}
);
width = 1228;
},
{
anchors = (
{
name = bottom;
position = "{896, -220}";
},
{
name = top;
position = "{306, 1400}";
}
);
layerId = m002;
paths = (
{
closed = 1;
nodes = (
"1149 -290 LINE SMOOTH",
"1263 -290 OFFCURVE",
"1315 -217 OFFCURVE",
"1272 -103 CURVE SMOOTH",
"1250 -43 LINE",
"1267 -48 OFFCURVE",
"1283 -50 OFFCURVE",
"1300 -50 CURVE SMOOTH",
"1410 -50 LINE SMOOTH",
"1438 -50 OFFCURVE",
"1460 -28 OFFCURVE",
"1460 0 CURVE SMOOTH",
"1460 28 OFFCURVE",
"1438 50 OFFCURVE",
"1410 50 CURVE SMOOTH",
"1300 50 LINE SMOOTH",
"1250 50 OFFCURVE",
"1205 83 OFFCURVE",
"1185 137 CURVE SMOOTH",
"1122 309 LINE SMOOTH",
"1086 408 OFFCURVE",
"1014 462 OFFCURVE",
"912 462 CURVE SMOOTH",
"898 462 LINE",
"664 1293 LINE SMOOTH",
"634 1405 OFFCURVE",
"550 1450 OFFCURVE",
"452 1450 CURVE SMOOTH",
"-228 1450 LINE SMOOTH",
"-256 1450 OFFCURVE",
"-278 1428 OFFCURVE",
"-278 1400 CURVE SMOOTH",
"-278 1372 OFFCURVE",
"-256 1350 OFFCURVE",
"-228 1350 CURVE SMOOTH",
"37 1350 LINE",
"360 462 LINE",
"183 462 LINE SMOOTH",
"154 462 OFFCURVE",
"132 441 OFFCURVE",
"132 412 CURVE SMOOTH",
"132 383 OFFCURVE",
"154 362 OFFCURVE",
"183 362 CURVE SMOOTH",
"397 362 LINE",
"623 -260 LINE SMOOTH",
"630 -278 OFFCURVE",
"646 -290 OFFCURVE",
"666 -290 CURVE SMOOTH"
);
},
{
closed = 1;
nodes = (
"503 362 LINE",
"912 362 LINE SMOOTH",
"975 362 OFFCURVE",
"1004 341 OFFCURVE",
"1028 275 CURVE SMOOTH",
"1178 -137 LINE SMOOTH",
"1190 -169 OFFCURVE",
"1179 -190 OFFCURVE",
"1149 -190 CURVE SMOOTH",
"704 -190 LINE"
);
},
{
closed = 1;
nodes = (
"143 1350 LINE",
"452 1350 LINE SMOOTH",
"519 1350 OFFCURVE",
"550 1333 OFFCURVE",
"568 1267 CURVE SMOOTH",
"794 462 LINE",
"467 462 LINE"
);
}
);
width = 1228;
},
{
anchors = (
{
name = bottom;
position = "{372, -220}";
},
{
name = top;
position = "{962, 1400}";
}
);
layerId = m004;
paths = (
{
closed = 1;
nodes = (
"611 -290 LINE SMOOTH",
"713 -290 OFFCURVE",
"786 -236 OFFCURVE",
"822 -137 CURVE SMOOTH",
"861 -30 LINE",
"882 -43 OFFCURVE",
"907 -50 OFFCURVE",
"936 -50 CURVE SMOOTH",
"1046 -50 LINE SMOOTH",
"1074 -50 OFFCURVE",
"1096 -28 OFFCURVE",
"1096 0 CURVE SMOOTH",
"1096 28 OFFCURVE",
"1074 50 OFFCURVE",
"1046 50 CURVE SMOOTH",
"936 50 LINE SMOOTH",
"903 50 OFFCURVE",
"894 56 OFFCURVE",
"903 85 CURVE",
"972 275 LINE SMOOTH",
"1011 381 OFFCURVE",
"968 451 OFFCURVE",
"872 461 CURVE",
"872 461 LINE",
"1230 1259 LINE SMOOTH",
"1283 1378 OFFCURVE",
"1226 1450 OFFCURVE",
"1108 1450 CURVE SMOOTH",
"428 1450 LINE SMOOTH",
"400 1450 OFFCURVE",
"378 1428 OFFCURVE",
"378 1400 CURVE SMOOTH",
"378 1372 OFFCURVE",
"400 1350 OFFCURVE",
"428 1350 CURVE SMOOTH",
"657 1350 LINE",
"334 462 LINE",
"119 462 LINE SMOOTH",
"90 462 OFFCURVE",
"68 441 OFFCURVE",
"68 412 CURVE SMOOTH",
"68 383 OFFCURVE",
"90 362 OFFCURVE",
"119 362 CURVE SMOOTH",
"297 362 LINE",
"88 -212 LINE SMOOTH",
"73 -252 OFFCURVE",
"100 -290 OFFCURVE",
"143 -290 CURVE SMOOTH"
);
},
{
closed = 1;
nodes = (
"403 362 LINE",
"848 362 LINE SMOOTH",
"878 362 OFFCURVE",
"890 341 OFFCURVE",
"878 309 CURVE",
"728 -103 LINE",
"703 -169 OFFCURVE",
"674 -190 OFFCURVE",
"611 -190 CURVE SMOOTH",
"202 -190 LINE"
);
},
{
closed = 1;
nodes = (
"763 1350 LINE",
"1108 1350 LINE SMOOTH",
"1140 1350 OFFCURVE",
"1151 1331 OFFCURVE",
"1138 1301 CURVE SMOOTH",
"764 462 LINE",
"440 462 LINE"
);
}
);
width = 1228;
},
{
anchors = (
{
name = bottom;
position = "{2634, -220}";
},
{
name = top;
position = "{2634, 1400}";
}
);
layerId = m005;
paths = (
{
closed = 1;
nodes = (
"2880 -290 LINE SMOOTH",
"2988 -290 OFFCURVE",
"3050 -228 OFFCURVE",
"3050 -120 CURVE SMOOTH",
"3050 -36 LINE",
"3071 -45 OFFCURVE",
"3094 -50 OFFCURVE",
"3118 -50 CURVE SMOOTH",
"5228 -50 LINE SMOOTH",
"5256 -50 OFFCURVE",
"5278 -28 OFFCURVE",
"5278 0 CURVE SMOOTH",
"5278 28 OFFCURVE",
"5256 50 OFFCURVE",
"5228 50 CURVE SMOOTH",
"3118 50 LINE SMOOTH",
"3073 50 OFFCURVE",
"3050 73 OFFCURVE",
"3050 120 CURVE SMOOTH",
"3050 292 LINE SMOOTH",
"3050 399 OFFCURVE",
"2989 461 OFFCURVE",
"2882 462 CURVE",
"2882 462 LINE",
"2950 1276 LINE SMOOTH",
"2960 1393 OFFCURVE",
"2887 1450 OFFCURVE",
"2780 1450 CURVE SMOOTH",
"100 1450 LINE SMOOTH",
"72 1450 OFFCURVE",
"50 1428 OFFCURVE",
"50 1400 CURVE SMOOTH",
"50 1372 OFFCURVE",
"72 1350 OFFCURVE",
"100 1350 CURVE SMOOTH",
"2350 1350 LINE",
"2350 462 LINE",
"2100 462 LINE SMOOTH",
"2072 462 OFFCURVE",
"2050 440 OFFCURVE",
"2050 412 CURVE SMOOTH",
"2050 384 OFFCURVE",
"2072 362 OFFCURVE",
"2100 362 CURVE SMOOTH",
"2350 362 LINE",
"2350 -239 LINE SMOOTH",
"2350 -268 OFFCURVE",
"2372 -290 OFFCURVE",
"2401 -290 CURVE SMOOTH"
);
},
{
closed = 1;
nodes = (
"2450 362 LINE",
"2880 362 LINE SMOOTH",
"2939 362 OFFCURVE",
"2950 351 OFFCURVE",
"2950 292 CURVE SMOOTH",
"2950 -120 LINE SMOOTH",
"2950 -179 OFFCURVE",
"2939 -190 OFFCURVE",
"2880 -190 CURVE SMOOTH",
"2450 -190 LINE"
);
},
{
closed = 1;
nodes = (
"2450 1350 LINE",
"2780 1350 LINE SMOOTH",
"2844 1350 OFFCURVE",
"2855 1342 OFFCURVE",
"2850 1284 CURVE SMOOTH",
"2782 462 LINE",
"2450 462 LINE"
);
}
);
width = 5228;
},
{
anchors = (
{
name = bottom;
position = "{634, -220}";
},
{
name = top;
position = "{634, 1400}";
}
);
layerId = m006;
paths = (
{
closed = 1;
nodes = (
"880 -290 LINE SMOOTH",
"988 -290 OFFCURVE",
"1050 -228 OFFCURVE",
"1050 -120 CURVE SMOOTH",
"1050 -36.044 LINE",
"1070.705 -45.048 OFFCURVE",
"1093.683 -50 OFFCURVE",
"1118 -50 CURVE SMOOTH",
"1228 -50 LINE SMOOTH",
"1256 -50 OFFCURVE",
"1278 -28 OFFCURVE",
"1278 0 CURVE SMOOTH",
"1278 28 OFFCURVE",
"1256 50 OFFCURVE",
"1228 50 CURVE SMOOTH",
"1118 50 LINE SMOOTH",
"1073 50 OFFCURVE",
"1050 73 OFFCURVE",
"1050 120 CURVE SMOOTH",
"1050 292 LINE SMOOTH",
"1050 399.226 OFFCURVE",
"988.885 461.109 OFFCURVE",
"882.314 461.99 CURVE",
"882 462 LINE",
"950 1276 LINE SMOOTH",
"960 1393 OFFCURVE",
"887 1450 OFFCURVE",
"780 1450 CURVE SMOOTH",
"100 1450 LINE SMOOTH",
"72 1450 OFFCURVE",
"50 1428 OFFCURVE",
"50 1400 CURVE SMOOTH",
"50 1372 OFFCURVE",
"72 1350 OFFCURVE",
"100 1350 CURVE SMOOTH",
"350 1350 LINE",
"350 462 LINE",
"100 462 LINE SMOOTH",
"72 462 OFFCURVE",
"50 440 OFFCURVE",
"50 412 CURVE SMOOTH",
"50 384 OFFCURVE",
"72 362 OFFCURVE",
"100 362 CURVE SMOOTH",
"350 362 LINE",
"350 -239 LINE SMOOTH",
"350 -268 OFFCURVE",
"372 -290 OFFCURVE",
"401 -290 CURVE SMOOTH"
);
},
{
closed = 1;
nodes = (
"450 362 LINE",
"880 362 LINE SMOOTH",
"939 362 OFFCURVE",
"950 351 OFFCURVE",
"950 292 CURVE SMOOTH",
"950 -120 LINE SMOOTH",
"950 -179 OFFCURVE",
"939 -190 OFFCURVE",
"880 -190 CURVE SMOOTH",
"450 -190 LINE"
);
},
{
closed = 1;
nodes = (
"450 1350 LINE",
"780 1350 LINE SMOOTH",
"844 1350 OFFCURVE",
"855 1342 OFFCURVE",
"850 1284 CURVE SMOOTH",
"782 462 LINE",
"450 462 LINE"
);
}
);
width = 1228;
},
{
anchors = (
{
name = bottom;
position = "{634, -220}";
},
{
name = top;
position = "{634, 1400}";
}
);
layerId = "2E7AB31B-3074-491A-95D2-A8A197C304C7";
paths = (
{
closed = 1;
nodes = (
"880 -265 LINE SMOOTH",
"974 -265 OFFCURVE",
"1025 -214 OFFCURVE",
"1025 -120 CURVE SMOOTH",
"1025 5 LINE",
"1053 -15 OFFCURVE",
"1085 -25 OFFCURVE",
"1118 -25 CURVE SMOOTH",
"1228 -25 LINE SMOOTH",
"1242 -25 OFFCURVE",
"1253 -14 OFFCURVE",
"1253 0 CURVE SMOOTH",
"1253 14 OFFCURVE",
"1242 25 OFFCURVE",
"1228 25 CURVE SMOOTH",
"1118 25 LINE SMOOTH",
"1060 25 OFFCURVE",
"1025 60 OFFCURVE",
"1025 120 CURVE SMOOTH",
"1025 292 LINE SMOOTH",
"1025 385 OFFCURVE",
"975 436 OFFCURVE",
"882 437 CURVE",
"856 437 LINE",
"925 1278 LINE SMOOTH",
"933 1380 OFFCURVE",
"873 1425 OFFCURVE",
"780 1425 CURVE SMOOTH",
"100 1425 LINE SMOOTH",
"86 1425 OFFCURVE",
"75 1414 OFFCURVE",
"75 1400 CURVE SMOOTH",
"75 1386 OFFCURVE",
"86 1375 OFFCURVE",
"100 1375 CURVE SMOOTH",
"375 1375 LINE",
"375 437 LINE",
"100 437 LINE SMOOTH",
"86 437 OFFCURVE",
"75 426 OFFCURVE",
"75 412 CURVE SMOOTH",
"75 398 OFFCURVE",
"86 387 OFFCURVE",
"100 387 CURVE SMOOTH",
"375 387 LINE",
"375 -239 LINE SMOOTH",
"375 -254 OFFCURVE",
"386 -265 OFFCURVE",
"401 -265 CURVE SMOOTH"
);
},
{
closed = 1;
nodes = (
"425 387 LINE",
"880 387 LINE SMOOTH",
"959 387 OFFCURVE",
"975 371 OFFCURVE",
"975 292 CURVE SMOOTH",
"975 -120 LINE SMOOTH",
"975 -199 OFFCURVE",
"959 -215 OFFCURVE",
"880 -215 CURVE SMOOTH",
"425 -215 LINE"
);
},
{
closed = 1;
nodes = (
"425 1375 LINE",
"780 1375 LINE SMOOTH",
"866 1375 OFFCURVE",
"882 1363 OFFCURVE",
"875 1282 CURVE SMOOTH",
"805 437 LINE",
"425 437 LINE"
);
}
);
width = 1228;
}
);
leftKerningGroup = H;
unicode = 0042;
},
{
glyphname = C;
lastChange = "2021-05-01 21:13:05 +0000";
layers = (
{
anchors = (
{
name = bottom;
position = "{534, -240}";
},
{
name = top;
position = "{527, 1400}";
}
);
layerId = m003;
paths = (
{
closed = 1;
nodes = (
"690 -340 LINE SMOOTH",
"826 -340 OFFCURVE",
"910 -256 OFFCURVE",
"910 -120 CURVE SMOOTH",
"910 -99 LINE",
"916 -100 OFFCURVE",
"922 -100 OFFCURVE",
"928 -100 CURVE SMOOTH",
"1038 -100 LINE SMOOTH",
"1094 -100 OFFCURVE",
"1138 -56 OFFCURVE",
"1138 0 CURVE SMOOTH",
"1138 56 OFFCURVE",
"1094 100 OFFCURVE",
"1038 100 CURVE SMOOTH",
"928 100 LINE SMOOTH",
"910 100 OFFCURVE",
"910 100 OFFCURVE",
"910 120 CURVE SMOOTH",
"910 210 LINE SMOOTH",
"910 266 OFFCURVE",
"866 310 OFFCURVE",
"810 310 CURVE SMOOTH",
"754 310 OFFCURVE",
"710 266 OFFCURVE",
"710 210 CURVE SMOOTH",
"710 -120 LINE SMOOTH",
"710 -140 OFFCURVE",
"710 -140 OFFCURVE",
"690 -140 CURVE SMOOTH",
"370 -140 LINE SMOOTH",
"350 -140 OFFCURVE",
"350 -140 OFFCURVE",
"350 -120 CURVE SMOOTH",
"350 1280 LINE SMOOTH",
"350 1300 OFFCURVE",
"350 1300 OFFCURVE",
"370 1300 CURVE SMOOTH",
"690 1300 LINE SMOOTH",
"711 1300 OFFCURVE",
"711 1300 OFFCURVE",
"710 1288 CURVE SMOOTH",
"660 728 LINE SMOOTH",
"656 671 OFFCURVE",
"701 620 OFFCURVE",
"760 620 CURVE SMOOTH",
"812 620 OFFCURVE",
"856 660 OFFCURVE",
"860 712 CURVE SMOOTH",
"910 1272 LINE SMOOTH",
"923 1413 OFFCURVE",
"825 1500 OFFCURVE",
"690 1500 CURVE SMOOTH",
"370 1500 LINE SMOOTH",
"234 1500 OFFCURVE",
"150 1416 OFFCURVE",
"150 1280 CURVE SMOOTH",
"150 -120 LINE SMOOTH",
"150 -256 OFFCURVE",
"234 -340 OFFCURVE",
"370 -340 CURVE SMOOTH"
);
}
);
width = 1038;
},
{
anchors = (
{
name = bottom;
position = "{803, -240}";
},
{
name = top;
position = "{199, 1400}";
}
);
layerId = m002;
paths = (
{
closed = 1;
nodes = (
"959 -290 LINE SMOOTH",
"1073 -290 OFFCURVE",
"1125 -217 OFFCURVE",
"1082 -103 CURVE SMOOTH",
"1060 -43 LINE",
"1077 -48 OFFCURVE",
"1093 -50 OFFCURVE",
"1110 -50 CURVE SMOOTH",
"1220 -50 LINE SMOOTH",
"1248 -50 OFFCURVE",
"1270 -28 OFFCURVE",
"1270 0 CURVE SMOOTH",
"1270 28 OFFCURVE",
"1248 50 OFFCURVE",
"1220 50 CURVE SMOOTH",
"1110 50 LINE SMOOTH",
"1060 50 OFFCURVE",
"1015 83 OFFCURVE",
"995 137 CURVE SMOOTH",
"962 227 LINE SMOOTH",
"955 246 OFFCURVE",
"937 260 OFFCURVE",
"915 260 CURVE SMOOTH",
"875 260 OFFCURVE",
"857 219 OFFCURVE",
"868 193 CURVE SMOOTH",
"988 -137 LINE SMOOTH",
"1000 -169 OFFCURVE",
"989 -190 OFFCURVE",
"959 -190 CURVE SMOOTH",
"639 -190 LINE SMOOTH",
"576 -190 OFFCURVE",
"547 -169 OFFCURVE",
"522 -103 CURVE SMOOTH",
"13 1297 LINE SMOOTH",
"1 1329 OFFCURVE",
"13 1350 OFFCURVE",
"42 1350 CURVE SMOOTH",
"362 1350 LINE SMOOTH",
"427 1350 OFFCURVE",
"461 1328 OFFCURVE",
"478 1267 CURVE SMOOTH",
"632 707 LINE SMOOTH",
"638 686 OFFCURVE",
"657 670 OFFCURVE",
"680 670 CURVE SMOOTH",
"711 670 OFFCURVE",
"737 697 OFFCURVE",
"728 733 CURVE SMOOTH",
"574 1293 LINE SMOOTH",
"546 1397 OFFCURVE",
"462 1450 OFFCURVE",
"362 1450 CURVE SMOOTH",
"42 1450 LINE SMOOTH",
"-70 1450 OFFCURVE",
"-123 1379 OFFCURVE",
"-81 1263 CURVE SMOOTH",
"428 -137 LINE SMOOTH",
"465 -236 OFFCURVE",
"537 -290 OFFCURVE",
"639 -290 CURVE SMOOTH"
);
}
);
width = 1038;
},
{
anchors = (
{
name = bottom;
position = "{265, -240}";
},
{
name = top;
position = "{855, 1400}";
}
);
layerId = m004;
paths = (
{
closed = 1;
nodes = (
"421 -290 LINE SMOOTH",
"523 -290 OFFCURVE",
"595 -236 OFFCURVE",
"632 -137 CURVE SMOOTH",
"671 -30 LINE",
"692 -43 OFFCURVE",
"717 -50 OFFCURVE",
"746 -50 CURVE SMOOTH",
"856 -50 LINE SMOOTH",
"884 -50 OFFCURVE",
"906 -28 OFFCURVE",
"906 0 CURVE SMOOTH",
"906 28 OFFCURVE",
"884 50 OFFCURVE",
"856 50 CURVE SMOOTH",
"746 50 LINE SMOOTH",
"712 50 OFFCURVE",
"704 56 OFFCURVE",
"713 87 CURVE SMOOTH",
"752 193 LINE SMOOTH",
"763 219 OFFCURVE",
"745 260 OFFCURVE",
"705 260 CURVE SMOOTH",
"683 260 OFFCURVE",
"665 246 OFFCURVE",
"658 227 CURVE",
"538 -103 LINE",
"513 -169 OFFCURVE",
"484 -190 OFFCURVE",
"421 -190 CURVE SMOOTH",
"101 -190 LINE SMOOTH",
"71 -190 OFFCURVE",
"60 -169 OFFCURVE",
"72 -137 CURVE SMOOTH",
"581 1263 LINE SMOOTH",
"605 1329 OFFCURVE",
"634 1350 OFFCURVE",
"698 1350 CURVE SMOOTH",
"1018 1350 LINE SMOOTH",
"1050 1350 OFFCURVE",
"1062 1331 OFFCURVE",
"1048 1301 CURVE SMOOTH",
"794 741 LINE",
"784 707 OFFCURVE",
"797 670 OFFCURVE",
"840 670 CURVE SMOOTH",
"860 670 OFFCURVE",
"878 682 OFFCURVE",
"886 699 CURVE SMOOTH",
"1140 1259 LINE SMOOTH",
"1191 1374 OFFCURVE",
"1134 1450 OFFCURVE",
"1018 1450 CURVE SMOOTH",
"698 1450 LINE SMOOTH",
"597 1450 OFFCURVE",
"523 1396 OFFCURVE",
"487 1297 CURVE SMOOTH",
"-22 -103 LINE SMOOTH",
"-65 -217 OFFCURVE",
"-13 -290 OFFCURVE",
"101 -290 CURVE SMOOTH"
);
}
);
width = 1038;
},
{
anchors = (
{
name = bottom;
position = "{534, -240}";
},
{
name = top;
position = "{527, 1400}";
}
);
layerId = m005;
paths = (
{
closed = 1;
nodes = (
"690 -290 LINE SMOOTH",
"798 -290 OFFCURVE",
"860 -228 OFFCURVE",
"860 -120 CURVE SMOOTH",
"860 -36.044 LINE",
"880.705 -45.048 OFFCURVE",
"903.683 -50 OFFCURVE",
"928 -50 CURVE SMOOTH",
"3038 -50 LINE SMOOTH",
"3066 -50 OFFCURVE",
"3088 -28 OFFCURVE",
"3088 0 CURVE SMOOTH",
"3088 28 OFFCURVE",
"3066 50 OFFCURVE",
"3038 50 CURVE SMOOTH",
"928 50 LINE SMOOTH",
"883 50 OFFCURVE",
"860 73 OFFCURVE",
"860 120 CURVE SMOOTH",
"860 210 LINE SMOOTH",
"860 238 OFFCURVE",
"838 260 OFFCURVE",
"810 260 CURVE SMOOTH",
"782 260 OFFCURVE",
"760 238 OFFCURVE",
"760 210 CURVE SMOOTH",
"760 -120 LINE SMOOTH",
"760 -179 OFFCURVE",
"749 -190 OFFCURVE",
"690 -190 CURVE SMOOTH",
"370 -190 LINE SMOOTH",
"311 -190 OFFCURVE",
"300 -179 OFFCURVE",
"300 -120 CURVE SMOOTH",
"300 1280 LINE SMOOTH",
"300 1339 OFFCURVE",
"311 1350 OFFCURVE",
"370 1350 CURVE SMOOTH",
"690 1350 LINE SMOOTH",
"752 1350 OFFCURVE",
"765 1339 OFFCURVE",
"760 1284 CURVE SMOOTH",
"710 724 LINE SMOOTH",
"708 696 OFFCURVE",
"730 670 OFFCURVE",
"760 670 CURVE SMOOTH",
"786 670 OFFCURVE",
"808 690 OFFCURVE",
"810 716 CURVE SMOOTH",
"860 1276 LINE SMOOTH",
"870 1387 OFFCURVE",
"797 1450 OFFCURVE",
"690 1450 CURVE SMOOTH",
"370 1450 LINE SMOOTH",
"262 1450 OFFCURVE",
"200 1388 OFFCURVE",
"200 1280 CURVE SMOOTH",
"200 -120 LINE SMOOTH",
"200 -228 OFFCURVE",
"262 -290 OFFCURVE",
"370 -290 CURVE SMOOTH"
);
}
);
width = 3038;
},
{
anchors = (
{
name = bottom;
position = "{534, -240}";
},
{
name = top;
position = "{527, 1400}";
}
);
layerId = m006;
paths = (
{
closed = 1;
nodes = (
"690 -290 LINE SMOOTH",
"798 -290 OFFCURVE",
"860 -228 OFFCURVE",
"860 -120 CURVE SMOOTH",
"860 -36.044 LINE",
"880.705 -45.048 OFFCURVE",
"903.683 -50 OFFCURVE",
"928 -50 CURVE SMOOTH",
"1038 -50 LINE SMOOTH",
"1066 -50 OFFCURVE",
"1088 -28 OFFCURVE",
"1088 0 CURVE SMOOTH",
"1088 28 OFFCURVE",
"1066 50 OFFCURVE",
"1038 50 CURVE SMOOTH",
"928 50 LINE SMOOTH",
"883 50 OFFCURVE",
"860 73 OFFCURVE",
"860 120 CURVE SMOOTH",
"860 210 LINE SMOOTH",
"860 238 OFFCURVE",
"838 260 OFFCURVE",
"810 260 CURVE SMOOTH",
"782 260 OFFCURVE",
"760 238 OFFCURVE",
"760 210 CURVE SMOOTH",
"760 -120 LINE SMOOTH",
"760 -179 OFFCURVE",
"749 -190 OFFCURVE",
"690 -190 CURVE SMOOTH",
"370 -190 LINE SMOOTH",
"311 -190 OFFCURVE",
"300 -179 OFFCURVE",
"300 -120 CURVE SMOOTH",
"300 1280 LINE SMOOTH",
"300 1339 OFFCURVE",
"311 1350 OFFCURVE",
"370 1350 CURVE SMOOTH",
"690 1350 LINE SMOOTH",
"752 1350 OFFCURVE",
"765 1339 OFFCURVE",
"760 1284 CURVE SMOOTH",
"710 724 LINE SMOOTH",
"708 696 OFFCURVE",
"730 670 OFFCURVE",
"760 670 CURVE SMOOTH",
"786 670 OFFCURVE",
"808 690 OFFCURVE",
"810 716 CURVE SMOOTH",
"860 1276 LINE SMOOTH",
"870 1387 OFFCURVE",
"797 1450 OFFCURVE",
"690 1450 CURVE SMOOTH",
"370 1450 LINE SMOOTH",
"262 1450 OFFCURVE",
"200 1388 OFFCURVE",
"200 1280 CURVE SMOOTH",
"200 -120 LINE SMOOTH",
"200 -228 OFFCURVE",
"262 -290 OFFCURVE",
"370 -290 CURVE SMOOTH"
);
}
);
width = 1038;
},
{
anchors = (
{
name = bottom;
position = "{534, -240}";
},
{
name = top;
position = "{527, 1400}";
}
);
layerId = "2E7AB31B-3074-491A-95D2-A8A197C304C7";
paths = (
{
closed = 1;
nodes = (
"690 -265 LINE SMOOTH",
"784 -265 OFFCURVE",
"835 -214 OFFCURVE",
"835 -120 CURVE SMOOTH",
"835 5 LINE",
"863 -15 OFFCURVE",
"895 -25 OFFCURVE",
"928 -25 CURVE SMOOTH",
"1038 -25 LINE SMOOTH",
"1052 -25 OFFCURVE",
"1063 -14 OFFCURVE",
"1063 0 CURVE SMOOTH",
"1063 14 OFFCURVE",
"1052 25 OFFCURVE",
"1038 25 CURVE SMOOTH",
"928 25 LINE SMOOTH",
"870 25 OFFCURVE",
"835 60 OFFCURVE",
"835 120 CURVE SMOOTH",
"835 210 LINE SMOOTH",
"835 224 OFFCURVE",
"824 235 OFFCURVE",
"810 235 CURVE SMOOTH",
"796 235 OFFCURVE",
"785 224 OFFCURVE",
"785 210 CURVE SMOOTH",
"785 -120 LINE SMOOTH",
"785 -199 OFFCURVE",
"769 -215 OFFCURVE",
"690 -215 CURVE SMOOTH",
"370 -215 LINE SMOOTH",
"292 -215 OFFCURVE",
"275 -199 OFFCURVE",
"275 -120 CURVE SMOOTH",
"275 1280 LINE SMOOTH",
"275 1359 OFFCURVE",
"292 1375 OFFCURVE",
"370 1375 CURVE SMOOTH",
"690 1375 LINE SMOOTH",
"773 1375 OFFCURVE",
"792 1359 OFFCURVE",
"785 1282 CURVE SMOOTH",
"735 722 LINE SMOOTH",
"734 709 OFFCURVE",
"745 695 OFFCURVE",
"760 695 CURVE SMOOTH",
"773 695 OFFCURVE",
"784 705 OFFCURVE",
"785 718 CURVE SMOOTH",
"835 1278 LINE SMOOTH",
"844 1374 OFFCURVE",
"783 1425 OFFCURVE",
"690 1425 CURVE SMOOTH",
"370 1425 LINE SMOOTH",
"276 1425 OFFCURVE",
"225 1374 OFFCURVE",
"225 1280 CURVE SMOOTH",
"225 -120 LINE SMOOTH",
"225 -214 OFFCURVE",
"276 -265 OFFCURVE",
"370 -265 CURVE SMOOTH"
);
}
);
width = 1038;
}
);
leftKerningGroup = O;
unicode = 0043;
},
{
glyphname = D;
lastChange = "2021-05-01 21:13:05 +0000";
layers = (
{
anchors = (
{
name = bottom;
position = "{612, -240}";
},
{
name = center;
position = "{592, 700}";
},
{
name = top;
position = "{646, 1400}";
}
);
layerId = m003;
paths = (
{
closed = 1;
nodes = (
"818 -340 LINE SMOOTH",
"956 -340 OFFCURVE",
"1032 -254 OFFCURVE",
"1038 -124 CURVE SMOOTH",
"1039 -98 LINE",
"1048 -99 OFFCURVE",
"1057 -100 OFFCURVE",
"1066 -100 CURVE SMOOTH",
"1216 -100 LINE SMOOTH",
"1272 -100 OFFCURVE",
"1316 -56 OFFCURVE",
"1316 0 CURVE SMOOTH",
"1316 56 OFFCURVE",
"1272 100 OFFCURVE",
"1216 100 CURVE SMOOTH",
"1066 100 LINE SMOOTH",
"1050 100 OFFCURVE",
"1049 100 OFFCURVE",
"1048 114 CURVE",
"1098 1276 LINE SMOOTH",
"1104 1416 OFFCURVE",
"1011 1500 OFFCURVE",
"878 1500 CURVE SMOOTH",
"68 1500 LINE SMOOTH",
"12 1500 OFFCURVE",
"-32 1456 OFFCURVE",
"-32 1400 CURVE SMOOTH",
"-32 1344 OFFCURVE",
"12 1300 OFFCURVE",
"68 1300 CURVE SMOOTH",
"268 1300 LINE",
"268 -239 LINE SMOOTH",
"268 -296 OFFCURVE",
"312 -340 OFFCURVE",
"369 -340 CURVE SMOOTH"
);
},
{
closed = 1;
nodes = (
"468 1300 LINE",
"878 1300 LINE SMOOTH",
"899 1300 OFFCURVE",
"899 1300 OFFCURVE",
"898 1284 CURVE SMOOTH",
"838 -116 LINE SMOOTH",
"837 -140 OFFCURVE",
"837 -140 OFFCURVE",
"818 -140 CURVE SMOOTH",
"468 -140 LINE"
);
}
);
width = 1216;
},
{
anchors = (
{
name = bottom;
position = "{881, -240}";
},
{
name = center;
position = "{519, 700}";
},
{
name = top;
position = "{318, 1400}";
}
);
layerId = m002;
paths = (
{
closed = 1;
nodes = (
"1087 -290 LINE SMOOTH",
"1188 -290 OFFCURVE",
"1252 -231 OFFCURVE",
"1211 -105 CURVE SMOOTH",
"1190 -41 LINE",
"1209 -47 OFFCURVE",
"1229 -50 OFFCURVE",
"1248 -50 CURVE SMOOTH",
"1398 -50 LINE SMOOTH",
"1426 -50 OFFCURVE",
"1448 -28 OFFCURVE",
"1448 0 CURVE SMOOTH",
"1448 28 OFFCURVE",
"1426 50 OFFCURVE",
"1398 50 CURVE SMOOTH",
"1248 50 LINE SMOOTH",
"1200 50 OFFCURVE",
"1156 81 OFFCURVE",
"1135 132 CURVE",
"762 1295 LINE SMOOTH",
"730 1397 OFFCURVE",
"651 1450 OFFCURVE",
"550 1450 CURVE SMOOTH",
"-260 1450 LINE SMOOTH",
"-288 1450 OFFCURVE",
"-310 1428 OFFCURVE",
"-310 1400 CURVE SMOOTH",
"-310 1372 OFFCURVE",
"-288 1350 OFFCURVE",
"-260 1350 CURVE SMOOTH",
"5 1350 LINE",
"580 -229 LINE SMOOTH",
"594 -266 OFFCURVE",
"627 -290 OFFCURVE",
"667 -290 CURVE SMOOTH"
);
},
{
closed = 1;
nodes = (
"111 1350 LINE",
"550 1350 LINE SMOOTH",
"615 1350 OFFCURVE",
"646 1328 OFFCURVE",
"666 1265 CURVE SMOOTH",
"1115 -135 LINE SMOOTH",
"1126 -168 OFFCURVE",
"1115 -190 OFFCURVE",
"1087 -190 CURVE SMOOTH",
"672 -190 LINE"
);
}
);
width = 1216;
},
{
anchors = (
{
name = bottom;
position = "{343, -240}";
},
{
name = center;
position = "{665, 700}";
},
{
name = top;
position = "{974, 1400}";
}
);
layerId = m004;
paths = (
{
closed = 1;
nodes = (
"549 -290 LINE SMOOTH",
"651 -290 OFFCURVE",
"718 -236 OFFCURVE",
"759 -139 CURVE SMOOTH",
"805 -27 LINE",
"826 -42 OFFCURVE",
"853 -50 OFFCURVE",
"884 -50 CURVE SMOOTH",
"1034 -50 LINE SMOOTH",
"1062 -50 OFFCURVE",
"1084 -28 OFFCURVE",
"1084 0 CURVE SMOOTH",
"1084 28 OFFCURVE",
"1062 50 OFFCURVE",
"1034 50 CURVE SMOOTH",
"884 50 LINE SMOOTH",
"856 50 OFFCURVE",
"844 67 OFFCURVE",
"854 95 CURVE",
"1328 1261 LINE SMOOTH",
"1375 1375 OFFCURVE",
"1322 1450 OFFCURVE",
"1206 1450 CURVE SMOOTH",
"396 1450 LINE SMOOTH",
"368 1450 OFFCURVE",
"346 1428 OFFCURVE",
"346 1400 CURVE SMOOTH",
"346 1372 OFFCURVE",
"368 1350 OFFCURVE",
"396 1350 CURVE SMOOTH",
"625 1350 LINE",
"56 -212 LINE SMOOTH",
"41 -252 OFFCURVE",
"68 -290 OFFCURVE",
"111 -290 CURVE SMOOTH"
);
},
{
closed = 1;
nodes = (
"731 1350 LINE",
"1206 1350 LINE SMOOTH",
"1237 1350 OFFCURVE",
"1249 1330 OFFCURVE",
"1236 1299 CURVE",
"667 -101 LINE",
"638 -169 OFFCURVE",
"611 -190 OFFCURVE",
"549 -190 CURVE SMOOTH",
"170 -190 LINE"
);
}
);
width = 1216;
},
{
anchors = (
{
name = bottom;
position = "{2612, -240}";
},
{
name = center;
position = "{2592, 700}";
},
{
name = top;
position = "{2646, 1400}";
}
);
layerId = m005;
paths = (
{
closed = 1;
nodes = (
"2818 -290 LINE SMOOTH",
"2927 -290 OFFCURVE",
"2983 -227 OFFCURVE",
"2988 -122 CURVE SMOOTH",
"2992 -33 LINE",
"3014 -44 OFFCURVE",
"3039 -50 OFFCURVE",
"3066 -50 CURVE SMOOTH",
"5216 -50 LINE SMOOTH",
"5244 -50 OFFCURVE",
"5266 -28 OFFCURVE",
"5266 0 CURVE SMOOTH",
"5266 28 OFFCURVE",
"5244 50 OFFCURVE",
"5216 50 CURVE SMOOTH",
"3066 50 LINE SMOOTH",
"3023 50 OFFCURVE",
"3000 71 OFFCURVE",
"2998 114 CURVE",
"3048 1278 LINE SMOOTH",
"3053 1388 OFFCURVE",
"2985 1450 OFFCURVE",
"2878 1450 CURVE SMOOTH",
"68 1450 LINE SMOOTH",
"40 1450 OFFCURVE",
"18 1428 OFFCURVE",
"18 1400 CURVE SMOOTH",
"18 1372 OFFCURVE",
"40 1350 OFFCURVE",
"68 1350 CURVE SMOOTH",
"2318 1350 LINE",
"2318 -239 LINE SMOOTH",
"2318 -268 OFFCURVE",
"2340 -290 OFFCURVE",
"2369 -290 CURVE SMOOTH"
);
},
{
closed = 1;
nodes = (
"2418 1350 LINE",
"2878 1350 LINE SMOOTH",
"2939 1350 OFFCURVE",
"2951 1339 OFFCURVE",
"2948 1282 CURVE SMOOTH",
"2888 -118 LINE SMOOTH",
"2885 -180 OFFCURVE",
"2876 -190 OFFCURVE",
"2818 -190 CURVE SMOOTH",
"2418 -190 LINE"
);
}
);
width = 5216;
},
{
anchors = (
{
name = bottom;
position = "{612, -240}";
},
{
name = center;
position = "{592, 700}";
},
{
name = top;
position = "{646, 1400}";
}
);
layerId = m006;
paths = (
{
closed = 1;
nodes = (
"818 -290 LINE SMOOTH",
"927 -290 OFFCURVE",
"983 -227 OFFCURVE",
"988 -122 CURVE SMOOTH",
"991.806 -33.197 LINE",
"1014.084 -43.999 OFFCURVE",
"1039.231 -50 OFFCURVE",
"1066 -50 CURVE SMOOTH",
"1216 -50 LINE SMOOTH",
"1244 -50 OFFCURVE",
"1266 -28 OFFCURVE",
"1266 0 CURVE SMOOTH",
"1266 28 OFFCURVE",
"1244 50 OFFCURVE",
"1216 50 CURVE SMOOTH",
"1066 50 LINE SMOOTH",
"1022.896 50 OFFCURVE",
"999.977 71.103 OFFCURVE",
"998.122 114.188 CURVE",
"1048 1278 LINE SMOOTH",
"1053 1388 OFFCURVE",
"985 1450 OFFCURVE",
"878 1450 CURVE SMOOTH",
"68 1450 LINE SMOOTH",
"40 1450 OFFCURVE",
"18 1428 OFFCURVE",
"18 1400 CURVE SMOOTH",
"18 1372 OFFCURVE",
"40 1350 OFFCURVE",
"68 1350 CURVE SMOOTH",
"318 1350 LINE",
"318 -239 LINE SMOOTH",
"318 -268 OFFCURVE",
"340 -290 OFFCURVE",
"369 -290 CURVE SMOOTH"
);
},
{
closed = 1;
nodes = (
"418 1350 LINE",
"878 1350 LINE SMOOTH",
"939 1350 OFFCURVE",
"951 1339 OFFCURVE",
"948 1282 CURVE SMOOTH",
"888 -118 LINE SMOOTH",
"885 -180 OFFCURVE",
"876 -190 OFFCURVE",
"818 -190 CURVE SMOOTH",
"418 -190 LINE"
);
}
);
width = 1216;
},
{
anchors = (
{
name = bottom;
position = "{612, -240}";
},
{
name = center;
position = "{592, 700}";
},
{
name = top;
position = "{646, 1400}";
}
);
layerId = "2E7AB31B-3074-491A-95D2-A8A197C304C7";
paths = (
{
closed = 1;
nodes = (
"818 -265 LINE SMOOTH",
"913 -265 OFFCURVE",
"959 -214 OFFCURVE",
"963 -121 CURVE SMOOTH",
"969 9 LINE",
"992 -13 OFFCURVE",
"1030 -25 OFFCURVE",
"1066 -25 CURVE SMOOTH",
"1216 -25 LINE SMOOTH",
"1230 -25 OFFCURVE",
"1241 -14 OFFCURVE",
"1241 0 CURVE SMOOTH",
"1241 14 OFFCURVE",
"1230 25 OFFCURVE",
"1216 25 CURVE SMOOTH",
"1066 25 LINE SMOOTH",
"1009 25 OFFCURVE",
"975 57 OFFCURVE",
"973 114 CURVE",
"1023 1279 LINE SMOOTH",
"1027 1374 OFFCURVE",
"972 1425 OFFCURVE",
"878 1425 CURVE SMOOTH",
"68 1425 LINE SMOOTH",
"54 1425 OFFCURVE",
"43 1414 OFFCURVE",
"43 1400 CURVE SMOOTH",
"43 1386 OFFCURVE",
"54 1375 OFFCURVE",
"68 1375 CURVE SMOOTH",
"343 1375 LINE",
"343 -239 LINE SMOOTH",
"343 -254 OFFCURVE",
"354 -265 OFFCURVE",
"369 -265 CURVE SMOOTH"
);
},
{
closed = 1;
nodes = (
"393 1375 LINE",
"878 1375 LINE SMOOTH",
"959 1375 OFFCURVE",
"976 1359 OFFCURVE",
"973 1281 CURVE SMOOTH",
"913 -119 LINE SMOOTH",
"910 -200 OFFCURVE",
"896 -215 OFFCURVE",
"818 -215 CURVE SMOOTH",
"393 -215 LINE"
);
}
);
width = 1216;
}
);
leftKerningGroup = D;
rightKerningGroup = D;
unicode = 0044;
},
{
glyphname = Eth;
lastChange = "2021-05-01 21:13:05 +0000";
layers = (
{
anchors = (
{
name = bottom;
position = "{612, -240}";
},
{
name = center;
position = "{592, 700}";
},
{
name = top;
position = "{646, 1400}";
}
);
layerId = m003;
paths = (
{
closed = 1;
nodes = (
"818 -340 LINE SMOOTH",
"956 -340 OFFCURVE",
"1032 -254 OFFCURVE",
"1038 -124 CURVE SMOOTH",
"1039 -98 LINE",
"1048 -99 OFFCURVE",
"1057 -100 OFFCURVE",
"1066 -100 CURVE SMOOTH",
"1216 -100 LINE SMOOTH",
"1272 -100 OFFCURVE",
"1316 -56 OFFCURVE",
"1316 0 CURVE SMOOTH",
"1316 56 OFFCURVE",
"1272 100 OFFCURVE",
"1216 100 CURVE SMOOTH",
"1066 100 LINE SMOOTH",
"1050 100 OFFCURVE",
"1049 100 OFFCURVE",
"1048 114 CURVE",
"1098 1276 LINE SMOOTH",
"1104 1416 OFFCURVE",
"1011 1500 OFFCURVE",
"878 1500 CURVE SMOOTH",
"68 1500 LINE SMOOTH",
"12 1500 OFFCURVE",
"-32 1456 OFFCURVE",
"-32 1400 CURVE SMOOTH",
"-32 1344 OFFCURVE",
"12 1300 OFFCURVE",
"68 1300 CURVE SMOOTH",
"268 1300 LINE",
"268 578 LINE",
"70 578 LINE SMOOTH",
"14 578 OFFCURVE",
"-30 534 OFFCURVE",
"-30 478 CURVE SMOOTH",
"-30 422 OFFCURVE",
"14 378 OFFCURVE",
"70 378 CURVE SMOOTH",
"268 378 LINE",
"268 -239 LINE SMOOTH",
"268 -296 OFFCURVE",
"312 -340 OFFCURVE",
"369 -340 CURVE SMOOTH"
);
},
{
closed = 1;
nodes = (
"468 378 LINE",
"668 378 LINE SMOOTH",
"724 378 OFFCURVE",
"768 422 OFFCURVE",
"768 478 CURVE SMOOTH",
"768 534 OFFCURVE",
"724 578 OFFCURVE",
"668 578 CURVE SMOOTH",
"468 578 LINE",
"468 1300 LINE",
"878 1300 LINE SMOOTH",
"899 1300 OFFCURVE",
"899 1300 OFFCURVE",
"898 1284 CURVE SMOOTH",
"838 -116 LINE SMOOTH",
"837 -140 OFFCURVE",
"837 -140 OFFCURVE",
"818 -140 CURVE SMOOTH",
"468 -140 LINE"
);
}
);
width = 1216;
},
{
anchors = (
{
name = bottom;
position = "{881, -240}";
},
{
name = center;
position = "{519, 700}";
},
{
name = top;
position = "{318, 1400}";
}
);
layerId = m002;
paths = (
{
closed = 1;
nodes = (
"1086 -290 LINE SMOOTH",
"1187 -290 OFFCURVE",
"1251 -231 OFFCURVE",
"1210 -105 CURVE SMOOTH",
"1189 -41 LINE",
"1208 -47 OFFCURVE",
"1228 -50 OFFCURVE",
"1247 -50 CURVE SMOOTH",
"1397 -50 LINE SMOOTH",
"1425 -50 OFFCURVE",
"1447 -28 OFFCURVE",
"1447 0 CURVE SMOOTH",
"1447 28 OFFCURVE",
"1425 50 OFFCURVE",
"1397 50 CURVE SMOOTH",
"1247 50 LINE SMOOTH",
"1199 50 OFFCURVE",
"1155 81 OFFCURVE",
"1134 132 CURVE",
"761 1295 LINE SMOOTH",
"729 1397 OFFCURVE",
"650 1450 OFFCURVE",
"549 1450 CURVE SMOOTH",
"-261 1450 LINE SMOOTH",
"-289 1450 OFFCURVE",
"-311 1428 OFFCURVE",
"-311 1400 CURVE SMOOTH",
"-311 1372 OFFCURVE",
"-289 1350 OFFCURVE",
"-261 1350 CURVE SMOOTH",
"4 1350 LINE",
"303 528 LINE",
"97 528 LINE SMOOTH",
"69 528 OFFCURVE",
"47 506 OFFCURVE",
"47 478 CURVE SMOOTH",
"47 450 OFFCURVE",
"69 428 OFFCURVE",
"97 428 CURVE SMOOTH",
"340 428 LINE",
"579 -229 LINE SMOOTH",
"593 -266 OFFCURVE",
"626 -290 OFFCURVE",
"666 -290 CURVE SMOOTH"
);
},
{
closed = 1;
nodes = (
"446 428 LINE",
"695 428 LINE SMOOTH",
"723 428 OFFCURVE",
"745 450 OFFCURVE",
"745 478 CURVE SMOOTH",
"745 506 OFFCURVE",
"723 528 OFFCURVE",
"695 528 CURVE SMOOTH",
"409 528 LINE",
"110 1350 LINE",
"549 1350 LINE SMOOTH",
"614 1350 OFFCURVE",
"645 1328 OFFCURVE",
"665 1265 CURVE SMOOTH",
"1114 -135 LINE SMOOTH",
"1125 -168 OFFCURVE",
"1114 -190 OFFCURVE",
"1086 -190 CURVE SMOOTH",
"671 -190 LINE"
);
}
);
width = 1216;
},
{
anchors = (
{
name = bottom;
position = "{343, -240}";
},
{
name = center;
position = "{665, 700}";
},
{
name = top;
position = "{974, 1400}";
}
);
background = {
paths = (
{
closed = 1;
nodes = (
"476 -290 LINE SMOOTH",
"578 -290 OFFCURVE",
"645 -236 OFFCURVE",
"686 -139 CURVE SMOOTH",
"731.504 -27.041 LINE",
"753.127 -41.692 OFFCURVE",
"780.312 -50 OFFCURVE",
"811 -50 CURVE SMOOTH",
"961 -50 LINE SMOOTH",
"989 -50 OFFCURVE",
"1011 -28 OFFCURVE",
"1011 0 CURVE SMOOTH",
"1011 28 OFFCURVE",
"989 50 OFFCURVE",
"961 50 CURVE SMOOTH",
"811 50 LINE SMOOTH",
"774.589 50 OFFCURVE",
"767.814 56.973 OFFCURVE",
"780.909 94.52 CURVE",
"1255 1261 LINE SMOOTH",
"1302 1375 OFFCURVE",
"1249 1450 OFFCURVE",
"1133 1450 CURVE SMOOTH",
"323 1450 LINE SMOOTH",
"295 1450 OFFCURVE",
"273 1428 OFFCURVE",
"273 1400 CURVE SMOOTH",
"273 1372 OFFCURVE",
"295 1350 OFFCURVE",
"323 1350 CURVE SMOOTH",
"551.621 1350 LINE",
"252.583 528 LINE",
"-11 528 LINE SMOOTH",
"-39 528 OFFCURVE",
"-61 506 OFFCURVE",
"-61 478 CURVE SMOOTH",
"-61 450 OFFCURVE",
"-39 428 OFFCURVE",
"-11 428 CURVE SMOOTH",
"216.203 428 LINE",
"-45 -290 LINE"
);
},
{
closed = 1;
nodes = (
"322.129 428 LINE",
"587 428 LINE SMOOTH",
"615 428 OFFCURVE",
"637 450 OFFCURVE",
"637 478 CURVE SMOOTH",
"637 506 OFFCURVE",
"615 528 OFFCURVE",
"587 528 CURVE SMOOTH",
"358.557 528 LINE",
"658 1350 LINE",
"1133 1350 LINE SMOOTH",
"1184 1350 OFFCURVE",
"1184 1350 OFFCURVE",
"1163 1299 CURVE SMOOTH",
"694.445 146.14 LINE",
"692.673 143.264 OFFCURVE",
"691.18 140.203 OFFCURVE",
"690 137 CURVE SMOOTH",
"686.526 126.656 LINE",
"594 -101 LINE SMOOTH",
"565 -169 OFFCURVE",
"538 -190 OFFCURVE",
"476 -190 CURVE SMOOTH",
"97 -190 LINE"
);
}
);
};
layerId = m004;
paths = (
{
closed = 1;
nodes = (
"549 -290 LINE SMOOTH",
"651 -290 OFFCURVE",
"718 -236 OFFCURVE",
"759 -139 CURVE SMOOTH",
"805 -27 LINE",
"826 -42 OFFCURVE",
"853 -50 OFFCURVE",
"884 -50 CURVE SMOOTH",
"1034 -50 LINE SMOOTH",
"1062 -50 OFFCURVE",
"1084 -28 OFFCURVE",
"1084 0 CURVE SMOOTH",
"1084 28 OFFCURVE",
"1062 50 OFFCURVE",
"1034 50 CURVE SMOOTH",
"884 50 LINE SMOOTH",
"856 50 OFFCURVE",
"844 67 OFFCURVE",
"854 95 CURVE SMOOTH",
"1328 1261 LINE SMOOTH",
"1375 1375 OFFCURVE",
"1322 1450 OFFCURVE",
"1206 1450 CURVE SMOOTH",
"396 1450 LINE SMOOTH",
"368 1450 OFFCURVE",
"346 1428 OFFCURVE",
"346 1400 CURVE SMOOTH",
"346 1372 OFFCURVE",
"368 1350 OFFCURVE",
"396 1350 CURVE SMOOTH",
"625 1350 LINE",
"325 528 LINE",
"63 528 LINE SMOOTH",
"35 528 OFFCURVE",
"13 506 OFFCURVE",
"13 478 CURVE SMOOTH",
"13 450 OFFCURVE",
"35 428 OFFCURVE",
"63 428 CURVE SMOOTH",
"289 428 LINE",
"56 -212 LINE SMOOTH",
"41 -252 OFFCURVE",
"68 -290 OFFCURVE",
"111 -290 CURVE SMOOTH"
);
},
{
closed = 1;
nodes = (
"395 428 LINE",
"661 428 LINE SMOOTH",
"689 428 OFFCURVE",
"711 450 OFFCURVE",
"711 478 CURVE SMOOTH",
"711 506 OFFCURVE",
"689 528 OFFCURVE",
"661 528 CURVE SMOOTH",
"432 528 LINE",
"731 1350 LINE",
"1206 1350 LINE SMOOTH",
"1237 1350 OFFCURVE",
"1249 1330 OFFCURVE",
"1236 1299 CURVE SMOOTH",
"667 -101 LINE SMOOTH",
"638 -169 OFFCURVE",
"611 -190 OFFCURVE",
"549 -190 CURVE SMOOTH",
"170 -190 LINE"
);
}
);
width = 1216;
},
{
anchors = (
{
name = bottom;
position = "{2612, -240}";
},
{
name = center;
position = "{2592, 700}";
},
{
name = top;
position = "{2646, 1400}";
}
);
layerId = m005;
paths = (
{
closed = 1;
nodes = (
"2818 -290 LINE SMOOTH",
"2927 -290 OFFCURVE",
"2983 -227 OFFCURVE",
"2988 -122 CURVE SMOOTH",
"2992 -33 LINE",
"3014 -44 OFFCURVE",
"3039 -50 OFFCURVE",
"3066 -50 CURVE SMOOTH",
"5216 -50 LINE SMOOTH",
"5244 -50 OFFCURVE",
"5266 -28 OFFCURVE",
"5266 0 CURVE SMOOTH",
"5266 28 OFFCURVE",
"5244 50 OFFCURVE",
"5216 50 CURVE SMOOTH",
"3066 50 LINE SMOOTH",
"3023 50 OFFCURVE",
"3000 71 OFFCURVE",
"2998 114 CURVE",
"3048 1278 LINE SMOOTH",
"3053 1388 OFFCURVE",
"2985 1450 OFFCURVE",
"2878 1450 CURVE SMOOTH",
"68 1450 LINE SMOOTH",
"40 1450 OFFCURVE",
"18 1428 OFFCURVE",
"18 1400 CURVE SMOOTH",
"18 1372 OFFCURVE",
"40 1350 OFFCURVE",
"68 1350 CURVE SMOOTH",
"2318 1350 LINE",
"2318 528 LINE",
"2070 528 LINE SMOOTH",
"2042 528 OFFCURVE",
"2020 506 OFFCURVE",
"2020 478 CURVE SMOOTH",
"2020 450 OFFCURVE",
"2042 428 OFFCURVE",
"2070 428 CURVE SMOOTH",
"2318 428 LINE",
"2318 -239 LINE SMOOTH",
"2318 -268 OFFCURVE",
"2340 -290 OFFCURVE",
"2369 -290 CURVE SMOOTH"
);
},
{
closed = 1;
nodes = (
"2418 428 LINE",
"2668 428 LINE SMOOTH",
"2696 428 OFFCURVE",
"2718 450 OFFCURVE",
"2718 478 CURVE SMOOTH",
"2718 506 OFFCURVE",
"2696 528 OFFCURVE",
"2668 528 CURVE SMOOTH",
"2418 528 LINE",
"2418 1350 LINE",
"2878 1350 LINE SMOOTH",
"2939 1350 OFFCURVE",
"2951 1339 OFFCURVE",
"2948 1282 CURVE SMOOTH",
"2888 -118 LINE SMOOTH",
"2885 -180 OFFCURVE",
"2876 -190 OFFCURVE",
"2818 -190 CURVE SMOOTH",
"2418 -190 LINE"
);
}
);
width = 5216;
},
{
anchors = (
{
name = bottom;
position = "{612, -240}";
},
{
name = center;
position = "{592, 700}";
},
{
name = top;
position = "{646, 1400}";
}
);
layerId = m006;
paths = (
{
closed = 1;
nodes = (
"818 -290 LINE SMOOTH",
"927 -290 OFFCURVE",
"983 -227 OFFCURVE",
"988 -122 CURVE SMOOTH",
"991.806 -33.197 LINE",
"1014.084 -43.999 OFFCURVE",
"1039.231 -50 OFFCURVE",
"1066 -50 CURVE SMOOTH",
"1216 -50 LINE SMOOTH",
"1244 -50 OFFCURVE",
"1266 -28 OFFCURVE",
"1266 0 CURVE SMOOTH",
"1266 28 OFFCURVE",
"1244 50 OFFCURVE",
"1216 50 CURVE SMOOTH",
"1066 50 LINE SMOOTH",
"1022.896 50 OFFCURVE",
"999.977 71.103 OFFCURVE",
"998.122 114.188 CURVE",
"1048 1278 LINE SMOOTH",
"1053 1388 OFFCURVE",
"985 1450 OFFCURVE",
"878 1450 CURVE SMOOTH",
"68 1450 LINE SMOOTH",
"40 1450 OFFCURVE",
"18 1428 OFFCURVE",
"18 1400 CURVE SMOOTH",
"18 1372 OFFCURVE",
"40 1350 OFFCURVE",
"68 1350 CURVE SMOOTH",
"318 1350 LINE",
"318 528 LINE",
"70 528 LINE SMOOTH",
"42 528 OFFCURVE",
"20 506 OFFCURVE",
"20 478 CURVE SMOOTH",
"20 450 OFFCURVE",
"42 428 OFFCURVE",
"70 428 CURVE SMOOTH",
"318 428 LINE",
"318 -239 LINE SMOOTH",
"318 -268 OFFCURVE",
"340 -290 OFFCURVE",
"369 -290 CURVE SMOOTH"
);
},
{
closed = 1;
nodes = (
"418 428 LINE",
"668 428 LINE SMOOTH",
"696 428 OFFCURVE",
"718 450 OFFCURVE",
"718 478 CURVE SMOOTH",
"718 506 OFFCURVE",
"696 528 OFFCURVE",
"668 528 CURVE SMOOTH",
"418 528 LINE",
"418 1350 LINE",
"878 1350 LINE SMOOTH",
"939 1350 OFFCURVE",
"951 1339 OFFCURVE",
"948 1282 CURVE SMOOTH",
"888 -118 LINE SMOOTH",
"885 -180 OFFCURVE",
"876 -190 OFFCURVE",
"818 -190 CURVE SMOOTH",
"418 -190 LINE"
);
}
);
width = 1216;
},
{
anchors = (
{
name = bottom;
position = "{612, -240}";
},
{
name = center;
position = "{592, 700}";
},
{
name = top;
position = "{646, 1400}";
}
);
layerId = "2E7AB31B-3074-491A-95D2-A8A197C304C7";
paths = (
{
closed = 1;
nodes = (
"818 -265 LINE SMOOTH",
"913 -265 OFFCURVE",
"958 -214 OFFCURVE",
"963 -121 CURVE SMOOTH",
"970 9 LINE",
"996 -15 OFFCURVE",
"1030 -25 OFFCURVE",
"1066 -25 CURVE SMOOTH",
"1216 -25 LINE SMOOTH",
"1230 -25 OFFCURVE",
"1241 -14 OFFCURVE",
"1241 0 CURVE SMOOTH",
"1241 14 OFFCURVE",
"1230 25 OFFCURVE",
"1216 25 CURVE SMOOTH",
"1066 25 LINE SMOOTH",
"1009 25 OFFCURVE",
"975 57 OFFCURVE",
"973 114 CURVE",
"1023 1279 LINE SMOOTH",
"1027 1374 OFFCURVE",
"972 1425 OFFCURVE",
"878 1425 CURVE SMOOTH",
"68 1425 LINE SMOOTH",
"54 1425 OFFCURVE",
"43 1414 OFFCURVE",
"43 1400 CURVE SMOOTH",
"43 1386 OFFCURVE",
"54 1375 OFFCURVE",
"68 1375 CURVE SMOOTH",
"343 1375 LINE",
"343 503 LINE",
"70 503 LINE SMOOTH",
"56 503 OFFCURVE",
"45 492 OFFCURVE",
"45 478 CURVE SMOOTH",
"45 464 OFFCURVE",
"56 453 OFFCURVE",
"70 453 CURVE SMOOTH",
"343 453 LINE",
"343 -239 LINE SMOOTH",
"343 -254 OFFCURVE",
"354 -265 OFFCURVE",
"369 -265 CURVE SMOOTH"
);
},
{
closed = 1;
nodes = (
"393 453 LINE",
"668 453 LINE SMOOTH",
"682 453 OFFCURVE",
"693 464 OFFCURVE",
"693 478 CURVE SMOOTH",
"693 492 OFFCURVE",
"682 503 OFFCURVE",
"668 503 CURVE SMOOTH",
"393 503 LINE",
"393 1375 LINE",
"878 1375 LINE SMOOTH",
"959 1375 OFFCURVE",
"976 1359 OFFCURVE",
"973 1281 CURVE SMOOTH",
"913 -119 LINE SMOOTH",
"910 -200 OFFCURVE",
"896 -215 OFFCURVE",
"818 -215 CURVE SMOOTH",
"393 -215 LINE"
);
}
);
width = 1216;
}
);
leftKerningGroup = D;
rightKerningGroup = D;
unicode = 00D0;
},
{
glyphname = E;
lastChange = "2021-05-01 21:13:05 +0000";
layers = (
{
anchors = (
{
name = bottom;
position = "{560, -240}";
},
{
name = ogonek;
position = "{900, -240}";
},
{
name = top;
position = "{634, 1400}";
},
{
name = topleft;
position = "{-10, 1400}";
}
);
layerId = m003;
paths = (
{
closed = 1;
nodes = (
"1128 -100 LINE SMOOTH",
"1184 -100 OFFCURVE",
"1228 -56 OFFCURVE",
"1228 0 CURVE SMOOTH",
"1228 56 OFFCURVE",
"1184 100 OFFCURVE",
"1128 100 CURVE SMOOTH",
"1018 100 LINE SMOOTH",
"1000 100 OFFCURVE",
"1000 100 OFFCURVE",
"1000 120 CURVE SMOOTH",
"1000 220 LINE SMOOTH",
"1000 276 OFFCURVE",
"956 320 OFFCURVE",
"900 320 CURVE SMOOTH",
"844 320 OFFCURVE",
"800 276 OFFCURVE",
"800 220 CURVE SMOOTH",
"800 -50 LINE SMOOTH",
"800 -130 OFFCURVE",
"790 -140 OFFCURVE",
"710 -140 CURVE SMOOTH",
"370 -140 LINE SMOOTH",
"350 -140 OFFCURVE",
"350 -140 OFFCURVE",
"350 -120 CURVE SMOOTH",
"350 340 LINE SMOOTH",
"350 360 OFFCURVE",
"350 360 OFFCURVE",
"370 360 CURVE SMOOTH",
"630 360 LINE SMOOTH",
"686 360 OFFCURVE",
"730 404 OFFCURVE",
"730 460 CURVE SMOOTH",
"730 516 OFFCURVE",
"686 560 OFFCURVE",
"630 560 CURVE SMOOTH",
"490 560 LINE SMOOTH",
"470 560 OFFCURVE",
"470 560 OFFCURVE",
"470 580 CURVE SMOOTH",
"470 1280 LINE SMOOTH",
"470 1300 OFFCURVE",
"470 1300 OFFCURVE",
"490 1300 CURVE SMOOTH",
"780 1300 LINE SMOOTH",
"801 1300 OFFCURVE",
"801 1300 OFFCURVE",
"800 1290 CURVE SMOOTH",
"760 869 LINE SMOOTH",
"754 811 OFFCURVE",
"801 760 OFFCURVE",
"860 760 CURVE SMOOTH",
"911 760 OFFCURVE",
"955 799 OFFCURVE",
"960 850 CURVE SMOOTH",
"1000 1270 LINE SMOOTH",
"1013 1405 OFFCURVE",
"925 1500 OFFCURVE",
"780 1500 CURVE SMOOTH",
"490 1500 LINE SMOOTH",
"358 1500 OFFCURVE",
"270 1412 OFFCURVE",
"270 1280 CURVE SMOOTH",
"270 580 LINE SMOOTH",
"270 567 OFFCURVE",
"271 554 OFFCURVE",
"273 541 CURVE",
"196 508 OFFCURVE",
"150 435 OFFCURVE",
"150 340 CURVE SMOOTH",
"150 -120 LINE SMOOTH",
"150 -252 OFFCURVE",
"238 -340 OFFCURVE",
"370 -340 CURVE SMOOTH",
"710 -340 LINE SMOOTH",
"888 -340 OFFCURVE",
"1000 -228 OFFCURVE",
"1000 -50 CURVE",
"961 -99 LINE",
"980 -99 OFFCURVE",
"999 -100 OFFCURVE",
"1018 -100 CURVE"
);
}
);
width = 1128;
},
{
anchors = (
{
name = bottom;
position = "{829, -240}";
},
{
name = ogonek;
position = "{1139, -240}";
},
{
name = top;
position = "{306, 1400}";
},
{
name = topleft;
position = "{-338, 1400}";
}
);
layerId = m002;
paths = (
{
closed = 1;
nodes = (
"1310 -50 LINE SMOOTH",
"1338 -50 OFFCURVE",
"1360 -28 OFFCURVE",
"1360 0 CURVE SMOOTH",
"1360 28 OFFCURVE",
"1338 50 OFFCURVE",
"1310 50 CURVE SMOOTH",
"1200 50 LINE SMOOTH",
"1144 50 OFFCURVE",
"1109 71 OFFCURVE",
"1089 127 CURVE SMOOTH",
"1049 237 LINE SMOOTH",
"1042 256 OFFCURVE",
"1024 270 OFFCURVE",
"1002 270 CURVE SMOOTH",
"962 270 OFFCURVE",
"945 230 OFFCURVE",
"955 203 CURVE",
"1053 -67 LINE",
"1080 -142 OFFCURVE",
"1051 -190 OFFCURVE",
"979 -190 CURVE SMOOTH",
"639 -190 LINE SMOOTH",
"579 -190 OFFCURVE",
"545 -165 OFFCURVE",
"522 -103 CURVE SMOOTH",
"355 357 LINE SMOOTH",
"343 389 OFFCURVE",
"355 410 OFFCURVE",
"384 410 CURVE SMOOTH",
"644 410 LINE SMOOTH",
"672 410 OFFCURVE",
"694 432 OFFCURVE",
"694 460 CURVE SMOOTH",
"694 488 OFFCURVE",
"672 510 OFFCURVE",
"644 510 CURVE SMOOTH",
"504 510 LINE SMOOTH",
"444 510 OFFCURVE",
"411 535 OFFCURVE",
"388 597 CURVE SMOOTH",
"133 1297 LINE SMOOTH",
"121 1329 OFFCURVE",
"133 1350 OFFCURVE",
"162 1350 CURVE SMOOTH",
"452 1350 LINE SMOOTH",
"521 1350 OFFCURVE",
"552 1327 OFFCURVE",
"568 1267 CURVE SMOOTH",
"681 847 LINE SMOOTH",
"687 826 OFFCURVE",
"706 810 OFFCURVE",
"729 810 CURVE SMOOTH",
"763 810 OFFCURVE",
"786 840 OFFCURVE",
"777 873 CURVE SMOOTH",
"664 1293 LINE SMOOTH",
"638 1391 OFFCURVE",
"560 1450 OFFCURVE",
"452 1450 CURVE SMOOTH",
"162 1450 LINE SMOOTH",
"53 1450 OFFCURVE",
"-2 1374 OFFCURVE",
"39 1263 CURVE SMOOTH",
"294 563 LINE SMOOTH",
"302 540 OFFCURVE",
"313 520 OFFCURVE",
"326 501 CURVE",
"257 478 OFFCURVE",
"229 412 OFFCURVE",
"261 323 CURVE SMOOTH",
"428 -137 LINE SMOOTH",
"463 -232 OFFCURVE",
"542 -290 OFFCURVE",
"639 -290 CURVE SMOOTH",
"979 -290 LINE SMOOTH",
"1128 -290 OFFCURVE",
"1200 -197 OFFCURVE",
"1151 -45 CURVE",
"1150 -42 LINE",
"1167 -47 OFFCURVE",
"1183 -49 OFFCURVE",
"1200 -49 CURVE"
);
}
);
width = 1128;
},
{
anchors = (
{
name = bottom;
position = "{218, -240}";
},
{
name = ogonek;
position = "{558, -240}";
},
{
name = top;
position = "{919, 1400}";
},
{
name = topleft;
position = "{245, 1400}";
}
);
layerId = m004;
paths = (
{
closed = 1;
nodes = (
"946 -50 LINE SMOOTH",
"974 -50 OFFCURVE",
"996 -28 OFFCURVE",
"996 0 CURVE SMOOTH",
"996 28 OFFCURVE",
"974 50 OFFCURVE",
"946 50 CURVE SMOOTH",
"836 50 LINE SMOOTH",
"807 50 OFFCURVE",
"797 71 OFFCURVE",
"809 103 CURVE",
"845 205 LINE",
"857 243 OFFCURVE",
"830 270 OFFCURVE",
"798 270 CURVE SMOOTH",
"776 270 OFFCURVE",
"758 256 OFFCURVE",
"751 237 CURVE SMOOTH",
"653 -33 LINE SMOOTH",
"614 -141 OFFCURVE",
"547 -190 OFFCURVE",
"441 -190 CURVE SMOOTH",
"101 -190 LINE SMOOTH",
"71 -190 OFFCURVE",
"60 -169 OFFCURVE",
"72 -137 CURVE SMOOTH",
"239 323 LINE SMOOTH",
"262 385 OFFCURVE",
"296 410 OFFCURVE",
"356 410 CURVE SMOOTH",
"616 410 LINE SMOOTH",
"644 410 OFFCURVE",
"666 432 OFFCURVE",
"666 460 CURVE SMOOTH",
"666 488 OFFCURVE",
"644 510 OFFCURVE",
"616 510 CURVE SMOOTH",
"476 510 LINE SMOOTH",
"446 510 OFFCURVE",
"434 531 OFFCURVE",
"446 563 CURVE SMOOTH",
"701 1263 LINE SMOOTH",
"724 1325 OFFCURVE",
"758 1350 OFFCURVE",
"818 1350 CURVE SMOOTH",
"1108 1350 LINE SMOOTH",
"1140 1350 OFFCURVE",
"1153 1331 OFFCURVE",
"1139 1301 CURVE SMOOTH",
"946 881 LINE SMOOTH",
"933 852 OFFCURVE",
"950 810 OFFCURVE",
"991 810 CURVE SMOOTH",
"1011 810 OFFCURVE",
"1028 822 OFFCURVE",
"1036 839 CURVE SMOOTH",
"1229 1259 LINE SMOOTH",
"1280 1370 OFFCURVE",
"1230 1450 OFFCURVE",
"1108 1450 CURVE SMOOTH",
"818 1450 LINE SMOOTH",
"721 1450 OFFCURVE",
"642 1392 OFFCURVE",
"607 1297 CURVE SMOOTH",
"352 597 LINE SMOOTH",
"340 565 OFFCURVE",
"337 535 OFFCURVE",
"341 510 CURVE",
"251 504 OFFCURVE",
"178 447 OFFCURVE",
"145 357 CURVE SMOOTH",
"-22 -103 LINE SMOOTH",
"-62 -214 OFFCURVE",
"-8 -290 OFFCURVE",
"101 -290 CURVE SMOOTH",
"441 -290 LINE SMOOTH",
"585 -290 OFFCURVE",
"697 -208 OFFCURVE",
"747 -67 CURVE SMOOTH",
"759 -33 LINE",
"780 -44 OFFCURVE",
"806 -50 OFFCURVE",
"836 -50 CURVE SMOOTH"
);
}
);
width = 1128;
},
{
anchors = (
{
name = bottom;
position = "{560, -240}";
},
{
name = ogonek;
position = "{900, -240}";
},
{
name = top;
position = "{634, 1400}";
},
{
name = topleft;
position = "{-10, 1400}";
}
);
layerId = m005;
paths = (
{
closed = 1;
nodes = (
"3128 -50 LINE SMOOTH",
"3156 -50 OFFCURVE",
"3178 -28 OFFCURVE",
"3178 0 CURVE SMOOTH",
"3178 28 OFFCURVE",
"3156 50 OFFCURVE",
"3128 50 CURVE SMOOTH",
"1018 50 LINE SMOOTH",
"963 50 OFFCURVE",
"950 64 OFFCURVE",
"950 120 CURVE SMOOTH",
"950 220 LINE SMOOTH",
"950 248 OFFCURVE",
"928 270 OFFCURVE",
"900 270 CURVE SMOOTH",
"872 270 OFFCURVE",
"850 248 OFFCURVE",
"850 220 CURVE SMOOTH",
"850 -50 LINE SMOOTH",
"850 -151 OFFCURVE",
"811 -190 OFFCURVE",
"710 -190 CURVE SMOOTH",
"370 -190 LINE SMOOTH",
"315 -190 OFFCURVE",
"300 -175 OFFCURVE",
"300 -120 CURVE SMOOTH",
"300 340 LINE SMOOTH",
"300 395 OFFCURVE",
"315 410 OFFCURVE",
"370 410 CURVE SMOOTH",
"630 410 LINE SMOOTH",
"658 410 OFFCURVE",
"680 432 OFFCURVE",
"680 460 CURVE SMOOTH",
"680 488 OFFCURVE",
"658 510 OFFCURVE",
"630 510 CURVE SMOOTH",
"490 510 LINE SMOOTH",
"435 510 OFFCURVE",
"420 525 OFFCURVE",
"420 580 CURVE SMOOTH",
"420 1280 LINE SMOOTH",
"420 1335 OFFCURVE",
"435 1350 OFFCURVE",
"490 1350 CURVE SMOOTH",
"780 1350 LINE SMOOTH",
"844 1350 OFFCURVE",
"855 1338 OFFCURVE",
"850 1285 CURVE SMOOTH",
"810 865 LINE SMOOTH",
"808 836 OFFCURVE",
"830 810 OFFCURVE",
"860 810 CURVE SMOOTH",
"886 810 OFFCURVE",
"907 830 OFFCURVE",
"910 855 CURVE SMOOTH",
"950 1275 LINE SMOOTH",
"959 1380 OFFCURVE",
"896 1450 OFFCURVE",
"780 1450 CURVE SMOOTH",
"490 1450 LINE SMOOTH",
"386 1450 OFFCURVE",
"320 1384 OFFCURVE",
"320 1280 CURVE SMOOTH",
"320 580 LINE SMOOTH",
"320 552.917 OFFCURVE",
"324.476 528.412 OFFCURVE",
"332.933 506.977 CURVE",
"250.571 492.955 OFFCURVE",
"200 431.036 OFFCURVE",
"200 340 CURVE SMOOTH",
"200 -120 LINE SMOOTH",
"200 -224 OFFCURVE",
"266 -290 OFFCURVE",
"370 -290 CURVE SMOOTH",
"710 -290 LINE SMOOTH",
"860 -290 OFFCURVE",
"950 -200 OFFCURVE",
"950 -50 CURVE SMOOTH",
"950 -38.718 LINE",
"970.109 -46.094 OFFCURVE",
"992.889 -50 OFFCURVE",
"1018 -50 CURVE SMOOTH"
);
}
);
width = 3128;
},
{
anchors = (
{
name = bottom;
position = "{560, -240}";
},
{
name = ogonek;
position = "{900, -240}";
},
{
name = top;
position = "{634, 1400}";
},
{
name = topleft;
position = "{-10, 1400}";
}
);
layerId = m006;
paths = (
{
closed = 1;
nodes = (
"1128 -50 LINE SMOOTH",
"1156 -50 OFFCURVE",
"1178 -28 OFFCURVE",
"1178 0 CURVE SMOOTH",
"1178 28 OFFCURVE",
"1156 50 OFFCURVE",
"1128 50 CURVE SMOOTH",
"1018 50 LINE SMOOTH",
"963 50 OFFCURVE",
"950 64 OFFCURVE",
"950 120 CURVE SMOOTH",
"950 220 LINE SMOOTH",
"950 248 OFFCURVE",
"928 270 OFFCURVE",
"900 270 CURVE SMOOTH",
"872 270 OFFCURVE",
"850 248 OFFCURVE",
"850 220 CURVE SMOOTH",
"850 -50 LINE SMOOTH",
"850 -151 OFFCURVE",
"811 -190 OFFCURVE",
"710 -190 CURVE SMOOTH",
"370 -190 LINE SMOOTH",
"315 -190 OFFCURVE",
"300 -175 OFFCURVE",
"300 -120 CURVE SMOOTH",
"300 340 LINE SMOOTH",
"300 395 OFFCURVE",
"315 410 OFFCURVE",
"370 410 CURVE SMOOTH",
"630 410 LINE SMOOTH",
"658 410 OFFCURVE",
"680 432 OFFCURVE",
"680 460 CURVE SMOOTH",
"680 488 OFFCURVE",
"658 510 OFFCURVE",
"630 510 CURVE SMOOTH",
"490 510 LINE SMOOTH",
"435 510 OFFCURVE",
"420 525 OFFCURVE",
"420 580 CURVE SMOOTH",
"420 1280 LINE SMOOTH",
"420 1335 OFFCURVE",
"435 1350 OFFCURVE",
"490 1350 CURVE SMOOTH",
"780 1350 LINE SMOOTH",
"844 1350 OFFCURVE",
"855 1338 OFFCURVE",
"850 1285 CURVE SMOOTH",
"810 865 LINE SMOOTH",
"808 836 OFFCURVE",
"830 810 OFFCURVE",
"860 810 CURVE SMOOTH",
"886 810 OFFCURVE",
"907 830 OFFCURVE",
"910 855 CURVE SMOOTH",
"950 1275 LINE SMOOTH",
"959 1380 OFFCURVE",
"896 1450 OFFCURVE",
"780 1450 CURVE SMOOTH",
"490 1450 LINE SMOOTH",
"386 1450 OFFCURVE",
"320 1384 OFFCURVE",
"320 1280 CURVE SMOOTH",
"320 580 LINE SMOOTH",
"320 552.917 OFFCURVE",
"324.476 528.412 OFFCURVE",
"332.933 506.977 CURVE",
"250.571 492.955 OFFCURVE",
"200 431.036 OFFCURVE",
"200 340 CURVE SMOOTH",
"200 -120 LINE SMOOTH",
"200 -224 OFFCURVE",
"266 -290 OFFCURVE",
"370 -290 CURVE SMOOTH",
"710 -290 LINE SMOOTH",
"860 -290 OFFCURVE",
"950 -200 OFFCURVE",
"950 -50 CURVE SMOOTH",
"950 -38.718 LINE",
"970.109 -46.094 OFFCURVE",
"992.889 -50 OFFCURVE",
"1018 -50 CURVE SMOOTH"
);
}
);
width = 1128;
},
{
anchors = (
{
name = bottom;
position = "{560, -240}";
},
{
name = ogonek;
position = "{900, -240}";
},
{
name = top;
position = "{634, 1400}";
},
{
name = topleft;
position = "{-10, 1400}";
}
);
layerId = "2E7AB31B-3074-491A-95D2-A8A197C304C7";
paths = (
{
closed = 1;
nodes = (
"1128 -25 LINE SMOOTH",
"1142 -25 OFFCURVE",
"1153 -14 OFFCURVE",
"1153 0 CURVE SMOOTH",
"1153 14 OFFCURVE",
"1142 25 OFFCURVE",
"1128 25 CURVE SMOOTH",
"1018 25 LINE SMOOTH",
"945 25 OFFCURVE",
"925 46 OFFCURVE",
"925 120 CURVE SMOOTH",
"925 220 LINE SMOOTH",
"925 234 OFFCURVE",
"914 245 OFFCURVE",
"900 245 CURVE SMOOTH",
"886 245 OFFCURVE",
"875 234 OFFCURVE",
"875 220 CURVE SMOOTH",
"875 -50 LINE SMOOTH",
"875 -162 OFFCURVE",
"822 -215 OFFCURVE",
"710 -215 CURVE SMOOTH",
"370 -215 LINE SMOOTH",
"298 -215 OFFCURVE",
"275 -193 OFFCURVE",
"275 -120 CURVE SMOOTH",
"275 340 LINE SMOOTH",
"275 413 OFFCURVE",
"298 435 OFFCURVE",
"370 435 CURVE SMOOTH",
"630 435 LINE SMOOTH",
"644 435 OFFCURVE",
"655 446 OFFCURVE",
"655 460 CURVE SMOOTH",
"655 474 OFFCURVE",
"644 485 OFFCURVE",
"630 485 CURVE SMOOTH",
"490 485 LINE SMOOTH",
"418 485 OFFCURVE",
"395 508 OFFCURVE",
"395 580 CURVE SMOOTH",
"395 1280 LINE SMOOTH",
"395 1353 OFFCURVE",
"418 1375 OFFCURVE",
"490 1375 CURVE SMOOTH",
"780 1375 LINE SMOOTH",
"866 1375 OFFCURVE",
"882 1357 OFFCURVE",
"875 1283 CURVE SMOOTH",
"835 863 LINE SMOOTH",
"834 849 OFFCURVE",
"845 835 OFFCURVE",
"860 835 CURVE SMOOTH",
"874 835 OFFCURVE",
"884 846 OFFCURVE",
"885 858 CURVE SMOOTH",
"925 1278 LINE SMOOTH",
"934 1368 OFFCURVE",
"882 1425 OFFCURVE",
"780 1425 CURVE SMOOTH",
"490 1425 LINE SMOOTH",
"400 1425 OFFCURVE",
"345 1370 OFFCURVE",
"345 1280 CURVE SMOOTH",
"345 580 LINE SMOOTH",
"345 544 OFFCURVE",
"353 508 OFFCURVE",
"375 485 CURVE",
"281 485 OFFCURVE",
"225 424 OFFCURVE",
"225 340 CURVE SMOOTH",
"225 -120 LINE SMOOTH",
"225 -210 OFFCURVE",
"280 -265 OFFCURVE",
"370 -265 CURVE SMOOTH",
"710 -265 LINE SMOOTH",
"846 -265 OFFCURVE",
"925 -186 OFFCURVE",
"925 -50 CURVE SMOOTH",
"925 3 LINE",
"950 -16 OFFCURVE",
"983 -25 OFFCURVE",
"1018 -25 CURVE SMOOTH"
);
}
);
width = 1128;
}
);
leftKerningGroup = E;
rightKerningGroup = E;
unicode = 0045;
},
{
glyphname = F;
lastChange = "2021-05-01 21:13:05 +0000";
layers = (
{
anchors = (
{
name = bottom;
position = "{580, -240}";
},
{
name = top;
position = "{580, 1400}";
}
);
layerId = m003;
paths = (
{
closed = 1;
nodes = (
"650 -340 LINE SMOOTH",
"782 -340 OFFCURVE",
"870 -252 OFFCURVE",
"870 -120 CURVE SMOOTH",
"870 500 LINE",
"1070 500 LINE SMOOTH",
"1126 500 OFFCURVE",
"1170 544 OFFCURVE",
"1170 600 CURVE SMOOTH",
"1170 656 OFFCURVE",
"1126 700 OFFCURVE",
"1070 700 CURVE SMOOTH",
"870 700 LINE",
"870 1280 LINE SMOOTH",
"870 1300 OFFCURVE",
"870 1300 OFFCURVE",
"890 1300 CURVE SMOOTH",
"1070 1300 LINE SMOOTH",
"1126 1300 OFFCURVE",
"1170 1344 OFFCURVE",
"1170 1400 CURVE SMOOTH",
"1170 1456 OFFCURVE",
"1126 1500 OFFCURVE",
"1070 1500 CURVE SMOOTH",
"270 1500 LINE SMOOTH",
"130 1500 OFFCURVE",
"41 1407 OFFCURVE",
"50 1273 CURVE SMOOTH",
"70 973 LINE SMOOTH",
"74 921 OFFCURVE",
"118 880 OFFCURVE",
"170 880 CURVE SMOOTH",
"229 880 OFFCURVE",
"274 931 OFFCURVE",
"270 987 CURVE SMOOTH",
"250 1288 LINE SMOOTH",
"249 1300 OFFCURVE",
"249 1300 OFFCURVE",
"270 1300 CURVE SMOOTH",
"671 1300 LINE",
"670 1293 OFFCURVE",
"670 1287 OFFCURVE",
"670 1280 CURVE SMOOTH",
"670 700 LINE",
"350 700 LINE SMOOTH",
"294 700 OFFCURVE",
"250 656 OFFCURVE",
"250 600 CURVE SMOOTH",
"250 544 OFFCURVE",
"294 500 OFFCURVE",
"350 500 CURVE SMOOTH",
"670 500 LINE",
"670 -120 LINE SMOOTH",
"670 -140 OFFCURVE",
"670 -140 OFFCURVE",
"650 -140 CURVE SMOOTH",
"410 -140 LINE SMOOTH",
"354 -140 OFFCURVE",
"310 -184 OFFCURVE",
"310 -240 CURVE SMOOTH",
"310 -296 OFFCURVE",
"354 -340 OFFCURVE",
"410 -340 CURVE SMOOTH"
);
},
{
closed = 1;
nodes = (
"1022 100 LINE SMOOTH",
"966 100 OFFCURVE",
"922 56 OFFCURVE",
"922 0 CURVE SMOOTH",
"922 -56 OFFCURVE",
"966 -100 OFFCURVE",
"1022 -100 CURVE SMOOTH",
"1210 -100 LINE SMOOTH",
"1266 -100 OFFCURVE",
"1310 -56 OFFCURVE",
"1310 0 CURVE SMOOTH",
"1310 56 OFFCURVE",
"1266 100 OFFCURVE",
"1210 100 CURVE SMOOTH"
);
}
);
width = 1210;
},
{
anchors = (
{
name = bottom;
position = "{849, -240}";
},
{
name = top;
position = "{252, 1400}";
}
);
layerId = m002;
paths = (
{
closed = 1;
nodes = (
"919 -290 LINE SMOOTH",
"1028 -290 OFFCURVE",
"1082 -214 OFFCURVE",
"1042 -103 CURVE SMOOTH",
"805 550 LINE",
"1033 550 LINE SMOOTH",
"1061 550 OFFCURVE",
"1083 572 OFFCURVE",
"1083 600 CURVE SMOOTH",
"1083 628 OFFCURVE",
"1061 650 OFFCURVE",
"1033 650 CURVE SMOOTH",
"768 650 LINE",
"533 1297 LINE SMOOTH",
"514 1350 OFFCURVE",
"513 1350 OFFCURVE",
"562 1350 CURVE SMOOTH",
"742 1350 LINE SMOOTH",
"770 1350 OFFCURVE",
"792 1372 OFFCURVE",
"792 1400 CURVE SMOOTH",
"792 1428 OFFCURVE",
"770 1450 OFFCURVE",
"742 1450 CURVE SMOOTH",
"-58 1450 LINE SMOOTH",
"-177 1450 OFFCURVE",
"-227 1369 OFFCURVE",
"-180 1260 CURVE SMOOTH",
"-51 960 LINE SMOOTH",
"-43 942 OFFCURVE",
"-26 930 OFFCURVE",
"-5 930 CURVE SMOOTH",
"38 930 OFFCURVE",
"52 975 OFFCURVE",
"41 1000 CURVE SMOOTH",
"-88 1300 LINE SMOOTH",
"-101 1330 OFFCURVE",
"-90 1350 OFFCURVE",
"-58 1350 CURVE SMOOTH",
"427 1350 LINE",
"423 1325 OFFCURVE",
"427 1295 OFFCURVE",
"439 1263 CURVE SMOOTH",
"662 650 LINE",
"313 650 LINE SMOOTH",
"285 650 OFFCURVE",
"263 628 OFFCURVE",
"263 600 CURVE SMOOTH",
"263 572 OFFCURVE",
"285 550 OFFCURVE",
"313 550 CURVE SMOOTH",
"698 550 LINE",
"948 -137 LINE SMOOTH",
"960 -169 OFFCURVE",
"949 -190 OFFCURVE",
"919 -190 CURVE SMOOTH",
"679 -190 LINE SMOOTH",
"651 -190 OFFCURVE",
"629 -212 OFFCURVE",
"629 -240 CURVE SMOOTH",
"629 -268 OFFCURVE",
"651 -290 OFFCURVE",
"679 -290 CURVE SMOOTH"
);
},
{
closed = 1;
nodes = (
"1204 50 LINE SMOOTH",
"1176 50 OFFCURVE",
"1154 28 OFFCURVE",
"1154 0 CURVE SMOOTH",
"1154 -28 OFFCURVE",
"1176 -50 OFFCURVE",
"1204 -50 CURVE SMOOTH",
"1392 -50 LINE SMOOTH",
"1420 -50 OFFCURVE",
"1442 -28 OFFCURVE",
"1442 0 CURVE SMOOTH",
"1442 28 OFFCURVE",
"1420 50 OFFCURVE",
"1392 50 CURVE SMOOTH"
);
}
);
width = 1210;
},
{
anchors = (
{
name = bottom;
position = "{238, -240}";
},
{
name = top;
position = "{835, 1400}";
}
);
layerId = m004;
paths = (
{
closed = 1;
nodes = (
"381 -290 LINE SMOOTH",
"478 -290 OFFCURVE",
"557 -232 OFFCURVE",
"592 -137 CURVE SMOOTH",
"842 550 LINE",
"1107 550 LINE SMOOTH",
"1135 550 OFFCURVE",
"1157 572 OFFCURVE",
"1157 600 CURVE SMOOTH",
"1157 628 OFFCURVE",
"1135 650 OFFCURVE",
"1107 650 CURVE SMOOTH",
"878 650 LINE",
"1101 1263 LINE SMOOTH",
"1124 1325 OFFCURVE",
"1158 1350 OFFCURVE",
"1218 1350 CURVE SMOOTH",
"1398 1350 LINE SMOOTH",
"1426 1350 OFFCURVE",
"1448 1372 OFFCURVE",
"1448 1400 CURVE SMOOTH",
"1448 1428 OFFCURVE",
"1426 1450 OFFCURVE",
"1398 1450 CURVE SMOOTH",
"598 1450 LINE SMOOTH",
"494 1450 OFFCURVE",
"415 1391 OFFCURVE",
"386 1294 CURVE SMOOTH",
"297 994 LINE SMOOTH",
"288 965 OFFCURVE",
"307 930 OFFCURVE",
"345 930 CURVE SMOOTH",
"368 930 OFFCURVE",
"387 945 OFFCURVE",
"393 966 CURVE SMOOTH",
"482 1266 LINE SMOOTH",
"500 1326 OFFCURVE",
"532 1350 OFFCURVE",
"598 1350 CURVE SMOOTH",
"1033 1350 LINE",
"1023 1334 OFFCURVE",
"1014 1316 OFFCURVE",
"1007 1297 CURVE SMOOTH",
"772 650 LINE",
"387 650 LINE SMOOTH",
"359 650 OFFCURVE",
"337 628 OFFCURVE",
"337 600 CURVE SMOOTH",
"337 572 OFFCURVE",
"359 550 OFFCURVE",
"387 550 CURVE SMOOTH",
"735 550 LINE",
"498 -103 LINE SMOOTH",
"475 -165 OFFCURVE",
"441 -190 OFFCURVE",
"381 -190 CURVE SMOOTH",
"141 -190 LINE SMOOTH",
"113 -190 OFFCURVE",
"91 -212 OFFCURVE",
"91 -240 CURVE SMOOTH",
"91 -268 OFFCURVE",
"113 -290 OFFCURVE",
"141 -290 CURVE SMOOTH"
);
},
{
closed = 1;
nodes = (
"840 50 LINE SMOOTH",
"812 50 OFFCURVE",
"790 28 OFFCURVE",
"790 0 CURVE SMOOTH",
"790 -28 OFFCURVE",
"812 -50 OFFCURVE",
"840 -50 CURVE SMOOTH",
"1028 -50 LINE SMOOTH",
"1056 -50 OFFCURVE",
"1078 -28 OFFCURVE",
"1078 0 CURVE SMOOTH",
"1078 28 OFFCURVE",
"1056 50 OFFCURVE",
"1028 50 CURVE SMOOTH"
);
}
);
width = 1210;
},
{
anchors = (
{
name = bottom;
position = "{580, -240}";
},
{
name = top;
position = "{580, 1400}";
}
);
layerId = m005;
paths = (
{
closed = 1;
nodes = (
"650 -290 LINE SMOOTH",
"754 -290 OFFCURVE",
"820 -224 OFFCURVE",
"820 -120 CURVE SMOOTH",
"820 550 LINE",
"1070 550 LINE SMOOTH",
"1098 550 OFFCURVE",
"1120 572 OFFCURVE",
"1120 600 CURVE SMOOTH",
"1120 628 OFFCURVE",
"1098 650 OFFCURVE",
"1070 650 CURVE SMOOTH",
"820 650 LINE",
"820 1280 LINE SMOOTH",
"820 1335 OFFCURVE",
"835 1350 OFFCURVE",
"890 1350 CURVE SMOOTH",
"1070 1350 LINE SMOOTH",
"1098 1350 OFFCURVE",
"1120 1372 OFFCURVE",
"1120 1400 CURVE SMOOTH",
"1120 1428 OFFCURVE",
"1098 1450 OFFCURVE",
"1070 1450 CURVE SMOOTH",
"270 1450 LINE SMOOTH",
"159 1450 OFFCURVE",
"93 1381 OFFCURVE",
"100 1276 CURVE SMOOTH",
"120 977 LINE SMOOTH",
"122 951 OFFCURVE",
"144 930 OFFCURVE",
"170 930 CURVE SMOOTH",
"200 930 OFFCURVE",
"222 956 OFFCURVE",
"220 983 CURVE SMOOTH",
"200 1284 LINE SMOOTH",
"196 1337 OFFCURVE",
"209 1350 OFFCURVE",
"270 1350 CURVE SMOOTH",
"732 1350 LINE",
"724 1329 OFFCURVE",
"720 1306 OFFCURVE",
"720 1280 CURVE SMOOTH",
"720 650 LINE",
"350 650 LINE SMOOTH",
"322 650 OFFCURVE",
"300 628 OFFCURVE",
"300 600 CURVE SMOOTH",
"300 572 OFFCURVE",
"322 550 OFFCURVE",
"350 550 CURVE SMOOTH",
"720 550 LINE",
"720 -120 LINE SMOOTH",
"720 -175 OFFCURVE",
"705 -190 OFFCURVE",
"650 -190 CURVE SMOOTH",
"410 -190 LINE SMOOTH",
"382 -190 OFFCURVE",
"360 -212 OFFCURVE",
"360 -240 CURVE SMOOTH",
"360 -268 OFFCURVE",
"382 -290 OFFCURVE",
"410 -290 CURVE SMOOTH"
);
},
{
closed = 1;
nodes = (
"1022 50 LINE SMOOTH",
"994 50 OFFCURVE",
"972 28 OFFCURVE",
"972 0 CURVE SMOOTH",
"972 -28 OFFCURVE",
"994 -50 OFFCURVE",
"1022 -50 CURVE SMOOTH",
"3210 -50 LINE SMOOTH",
"3238 -50 OFFCURVE",
"3260 -28 OFFCURVE",
"3260 0 CURVE SMOOTH",
"3260 28 OFFCURVE",
"3238 50 OFFCURVE",
"3210 50 CURVE SMOOTH"
);
}
);
width = 3210;
},
{
anchors = (
{
name = bottom;
position = "{580, -240}";
},
{
name = top;
position = "{580, 1400}";
}
);
layerId = m006;
paths = (
{
closed = 1;
nodes = (
"650 -290 LINE SMOOTH",
"754 -290 OFFCURVE",
"820 -224 OFFCURVE",
"820 -120 CURVE SMOOTH",
"820 550 LINE",
"1070 550 LINE SMOOTH",
"1098 550 OFFCURVE",
"1120 572 OFFCURVE",
"1120 600 CURVE SMOOTH",
"1120 628 OFFCURVE",
"1098 650 OFFCURVE",
"1070 650 CURVE SMOOTH",
"820 650 LINE",
"820 1280 LINE SMOOTH",
"820 1335 OFFCURVE",
"835 1350 OFFCURVE",
"890 1350 CURVE SMOOTH",
"1070 1350 LINE SMOOTH",
"1098 1350 OFFCURVE",
"1120 1372 OFFCURVE",
"1120 1400 CURVE SMOOTH",
"1120 1428 OFFCURVE",
"1098 1450 OFFCURVE",
"1070 1450 CURVE SMOOTH",
"270 1450 LINE SMOOTH",
"159 1450 OFFCURVE",
"93 1381 OFFCURVE",
"100 1276 CURVE SMOOTH",
"120 977 LINE SMOOTH",
"122 951 OFFCURVE",
"144 930 OFFCURVE",
"170 930 CURVE SMOOTH",
"200 930 OFFCURVE",
"222 956 OFFCURVE",
"220 983 CURVE SMOOTH",
"200 1284 LINE SMOOTH",
"196 1337 OFFCURVE",
"209 1350 OFFCURVE",
"270 1350 CURVE SMOOTH",
"731.774 1350 LINE",
"724.067 1329.294 OFFCURVE",
"720 1305.818 OFFCURVE",
"720 1280 CURVE SMOOTH",
"720 650 LINE",
"350 650 LINE SMOOTH",
"322 650 OFFCURVE",
"300 628 OFFCURVE",
"300 600 CURVE SMOOTH",
"300 572 OFFCURVE",
"322 550 OFFCURVE",
"350 550 CURVE SMOOTH",
"720 550 LINE",
"720 -120 LINE SMOOTH",
"720 -175 OFFCURVE",
"705 -190 OFFCURVE",
"650 -190 CURVE SMOOTH",
"410 -190 LINE SMOOTH",
"382 -190 OFFCURVE",
"360 -212 OFFCURVE",
"360 -240 CURVE SMOOTH",
"360 -268 OFFCURVE",
"382 -290 OFFCURVE",
"410 -290 CURVE SMOOTH"
);
},
{
closed = 1;
nodes = (
"1022 50 LINE SMOOTH",
"994 50 OFFCURVE",
"972 28 OFFCURVE",
"972 0 CURVE SMOOTH",
"972 -28 OFFCURVE",
"994 -50 OFFCURVE",
"1022 -50 CURVE SMOOTH",
"1210 -50 LINE SMOOTH",
"1238 -50 OFFCURVE",
"1260 -28 OFFCURVE",
"1260 0 CURVE SMOOTH",
"1260 28 OFFCURVE",
"1238 50 OFFCURVE",
"1210 50 CURVE SMOOTH"
);
}
);
width = 1210;
},
{
anchors = (
{
name = bottom;
position = "{580, -240}";
},
{
name = top;
position = "{580, 1400}";
}
);
layerId = "2E7AB31B-3074-491A-95D2-A8A197C304C7";
paths = (
{
closed = 1;
nodes = (
"650 -265 LINE SMOOTH",
"740 -265 OFFCURVE",
"795 -210 OFFCURVE",
"795 -120 CURVE SMOOTH",
"795 575 LINE",
"1070 575 LINE SMOOTH",
"1084 575 OFFCURVE",
"1095 586 OFFCURVE",
"1095 600 CURVE SMOOTH",
"1095 614 OFFCURVE",
"1084 625 OFFCURVE",
"1070 625 CURVE SMOOTH",
"795 625 LINE",
"795 1280 LINE SMOOTH",
"795 1353 OFFCURVE",
"818 1375 OFFCURVE",
"890 1375 CURVE SMOOTH",
"1070 1375 LINE SMOOTH",
"1084 1375 OFFCURVE",
"1095 1386 OFFCURVE",
"1095 1400 CURVE SMOOTH",
"1095 1414 OFFCURVE",
"1084 1425 OFFCURVE",
"1070 1425 CURVE SMOOTH",
"270 1425 LINE SMOOTH",
"174 1425 OFFCURVE",
"119 1368 OFFCURVE",
"125 1278 CURVE SMOOTH",
"145 979 LINE SMOOTH",
"146 966 OFFCURVE",
"157 955 OFFCURVE",
"170 955 CURVE SMOOTH",
"186 955 OFFCURVE",
"196 969 OFFCURVE",
"195 981 CURVE SMOOTH",
"175 1282 LINE SMOOTH",
"170 1356 OFFCURVE",
"189 1375 OFFCURVE",
"270 1375 CURVE SMOOTH",
"772 1375 LINE",
"751 1350 OFFCURVE",
"745 1315 OFFCURVE",
"745 1280 CURVE SMOOTH",
"745 625 LINE",
"350 625 LINE SMOOTH",
"336 625 OFFCURVE",
"325 614 OFFCURVE",
"325 600 CURVE SMOOTH",
"325 586 OFFCURVE",
"336 575 OFFCURVE",
"350 575 CURVE SMOOTH",
"745 575 LINE",
"745 -120 LINE SMOOTH",
"745 -193 OFFCURVE",
"723 -215 OFFCURVE",
"650 -215 CURVE SMOOTH",
"410 -215 LINE SMOOTH",
"396 -215 OFFCURVE",
"385 -226 OFFCURVE",
"385 -240 CURVE SMOOTH",
"385 -254 OFFCURVE",
"396 -265 OFFCURVE",
"410 -265 CURVE SMOOTH"
);
},
{
closed = 1;
nodes = (
"1022 25 LINE SMOOTH",
"1008 25 OFFCURVE",
"997 14 OFFCURVE",
"997 0 CURVE SMOOTH",
"997 -14 OFFCURVE",
"1008 -25 OFFCURVE",
"1022 -25 CURVE SMOOTH",
"1210 -25 LINE SMOOTH",
"1224 -25 OFFCURVE",
"1235 -14 OFFCURVE",
"1235 0 CURVE SMOOTH",
"1235 14 OFFCURVE",
"1224 25 OFFCURVE",
"1210 25 CURVE SMOOTH"
);
}
);
width = 1210;
}
);
leftKerningGroup = T;
rightKerningGroup = F;
unicode = 0046;
},
{
glyphname = G;
lastChange = "2021-05-01 21:13:05 +0000";
layers = (
{
anchors = (
{
name = bottom;
position = "{514, -240}";
},
{
name = top;
position = "{534, 1400}";
}
);
layerId = m003;
paths = (
{
closed = 1;
nodes = (
"730 -340 LINE SMOOTH",
"862 -340 OFFCURVE",
"950 -252 OFFCURVE",
"950 -120 CURVE SMOOTH",
"950 -99 LINE",
"956 -100 OFFCURVE",
"962 -100 OFFCURVE",
"968 -100 CURVE SMOOTH",
"1078 -100 LINE SMOOTH",
"1134 -100 OFFCURVE",
"1178 -56 OFFCURVE",
"1178 0 CURVE SMOOTH",
"1178 56 OFFCURVE",
"1134 100 OFFCURVE",
"1078 100 CURVE SMOOTH",
"968 100 LINE SMOOTH",
"950 100 OFFCURVE",
"950 100 OFFCURVE",
"950 120 CURVE SMOOTH",
"950 440 LINE SMOOTH",
"950 496 OFFCURVE",
"906 540 OFFCURVE",
"850 540 CURVE SMOOTH",
"794 540 OFFCURVE",
"750 496 OFFCURVE",
"750 440 CURVE SMOOTH",
"750 340 LINE SMOOTH",
"750 320 OFFCURVE",
"750 320 OFFCURVE",
"730 320 CURVE SMOOTH",
"370 320 LINE SMOOTH",
"350 320 OFFCURVE",
"350 320 OFFCURVE",
"350 340 CURVE SMOOTH",
"350 1280 LINE SMOOTH",
"350 1300 OFFCURVE",
"350 1300 OFFCURVE",
"370 1300 CURVE SMOOTH",
"690 1300 LINE SMOOTH",
"711 1300 OFFCURVE",
"711 1300 OFFCURVE",
"710 1286 CURVE SMOOTH",
"678 800 LINE SMOOTH",
"674 745 OFFCURVE",
"719 694 OFFCURVE",
"778 694 CURVE SMOOTH",
"831 694 OFFCURVE",
"874 735 OFFCURVE",
"878 787 CURVE SMOOTH",
"910 1274 LINE SMOOTH",
"920 1416 OFFCURVE",
"824 1500 OFFCURVE",
"690 1500 CURVE SMOOTH",
"370 1500 LINE SMOOTH",
"234 1500 OFFCURVE",
"150 1416 OFFCURVE",
"150 1280 CURVE SMOOTH",
"150 340 LINE SMOOTH",
"150 208 OFFCURVE",
"238 120 OFFCURVE",
"370 120 CURVE SMOOTH",
"730 120 LINE SMOOTH",
"737 120 OFFCURVE",
"743 120 OFFCURVE",
"750 121 CURVE",
"750 -120 LINE SMOOTH",
"750 -140 OFFCURVE",
"750 -140 OFFCURVE",
"730 -140 CURVE SMOOTH",
"470 -140 LINE SMOOTH",
"414 -140 OFFCURVE",
"370 -184 OFFCURVE",
"370 -240 CURVE SMOOTH",
"370 -296 OFFCURVE",
"414 -340 OFFCURVE",
"470 -340 CURVE SMOOTH"
);
}
);
width = 1078;
},
{
anchors = (
{
name = bottom;
position = "{783, -240}";
},
{
name = top;
position = "{206, 1400}";
}
);
layerId = m002;
paths = (
{
closed = 1;
nodes = (
"999 -290 LINE SMOOTH",
"1108 -290 OFFCURVE",
"1163 -214 OFFCURVE",
"1122 -103 CURVE SMOOTH",
"1100 -43 LINE",
"1117 -48 OFFCURVE",
"1133 -50 OFFCURVE",
"1150 -50 CURVE SMOOTH",
"1260 -50 LINE SMOOTH",
"1288 -50 OFFCURVE",
"1310 -28 OFFCURVE",
"1310 0 CURVE SMOOTH",
"1310 28 OFFCURVE",
"1288 50 OFFCURVE",
"1260 50 CURVE SMOOTH",
"1150 50 LINE SMOOTH",
"1100 50 OFFCURVE",
"1055 83 OFFCURVE",
"1035 137 CURVE SMOOTH",
"919 457 LINE SMOOTH",
"912 476 OFFCURVE",
"894 490 OFFCURVE",
"872 490 CURVE SMOOTH",
"832 490 OFFCURVE",
"814 449 OFFCURVE",
"825 423 CURVE SMOOTH",
"861 323 LINE SMOOTH",
"873 291 OFFCURVE",
"862 270 OFFCURVE",
"832 270 CURVE SMOOTH",
"472 270 LINE SMOOTH",
"412 270 OFFCURVE",
"378 295 OFFCURVE",
"355 357 CURVE SMOOTH",
"13 1297 LINE SMOOTH",
"1 1329 OFFCURVE",
"13 1350 OFFCURVE",
"42 1350 CURVE SMOOTH",
"362 1350 LINE SMOOTH",
"427 1350 OFFCURVE",
"459 1330 OFFCURVE",
"478 1266 CURVE SMOOTH",
"623 780 LINE SMOOTH",
"629 759 OFFCURVE",
"648 744 OFFCURVE",
"671 744 CURVE SMOOTH",
"709 744 OFFCURVE",
"726 779 OFFCURVE",
"719 808 CURVE SMOOTH",
"574 1294 LINE SMOOTH",
"543 1399 OFFCURVE",
"462 1450 OFFCURVE",
"362 1450 CURVE SMOOTH",
"42 1450 LINE SMOOTH",
"-70 1450 OFFCURVE",
"-123 1379 OFFCURVE",
"-81 1263 CURVE SMOOTH",
"261 323 LINE SMOOTH",
"296 228 OFFCURVE",
"375 170 OFFCURVE",
"472 170 CURVE SMOOTH",
"832 170 LINE SMOOTH",
"863 170 OFFCURVE",
"889 176 OFFCURVE",
"910 187 CURVE",
"1028 -137 LINE SMOOTH",
"1048 -190 OFFCURVE",
"1048 -190 OFFCURVE",
"999 -190 CURVE SMOOTH",
"739 -190 LINE SMOOTH",
"711 -190 OFFCURVE",
"689 -212 OFFCURVE",
"689 -240 CURVE SMOOTH",
"689 -268 OFFCURVE",
"711 -290 OFFCURVE",
"739 -290 CURVE SMOOTH"
);
}
);
width = 1078;
},
{
anchors = (
{
name = bottom;
position = "{245, -240}";
},
{
name = top;
position = "{862, 1400}";
}
);
layerId = m004;
paths = (
{
closed = 1;
nodes = (
"461 -290 LINE SMOOTH",
"558 -290 OFFCURVE",
"637 -232 OFFCURVE",
"672 -137 CURVE SMOOTH",
"711 -30 LINE",
"732 -43 OFFCURVE",
"757 -50 OFFCURVE",
"786 -50 CURVE SMOOTH",
"896 -50 LINE SMOOTH",
"924 -50 OFFCURVE",
"946 -28 OFFCURVE",
"946 0 CURVE SMOOTH",
"946 28 OFFCURVE",
"924 50 OFFCURVE",
"896 50 CURVE SMOOTH",
"786 50 LINE SMOOTH",
"758 50 OFFCURVE",
"746 67 OFFCURVE",
"756 93 CURVE",
"875 423 LINE",
"886 449 OFFCURVE",
"868 490 OFFCURVE",
"828 490 CURVE SMOOTH",
"806 490 OFFCURVE",
"788 476 OFFCURVE",
"781 457 CURVE SMOOTH",
"742 348 LINE SMOOTH",
"719 293 OFFCURVE",
"685 270 OFFCURVE",
"628 270 CURVE SMOOTH",
"268 270 LINE SMOOTH",
"238 270 OFFCURVE",
"227 291 OFFCURVE",
"239 323 CURVE SMOOTH",
"581 1263 LINE SMOOTH",
"605 1329 OFFCURVE",
"634 1350 OFFCURVE",
"698 1350 CURVE SMOOTH",
"1018 1350 LINE SMOOTH",
"1050 1350 OFFCURVE",
"1061 1330 OFFCURVE",
"1048 1300 CURVE SMOOTH",
"839 814 LINE SMOOTH",
"827 790 OFFCURVE",
"842 744 OFFCURVE",
"885 744 CURVE SMOOTH",
"906 744 OFFCURVE",
"923 756 OFFCURVE",
"931 774 CURVE SMOOTH",
"1140 1260 LINE SMOOTH",
"1191 1376 OFFCURVE",
"1134 1450 OFFCURVE",
"1018 1450 CURVE SMOOTH",
"698 1450 LINE SMOOTH",
"597 1450 OFFCURVE",
"523 1396 OFFCURVE",
"487 1297 CURVE SMOOTH",
"145 357 LINE SMOOTH",
"104 246 OFFCURVE",
"159 170 OFFCURVE",
"268 170 CURVE SMOOTH",
"628 170 LINE SMOOTH",
"646 170 OFFCURVE",
"663 172 OFFCURVE",
"679 176 CURVE",
"578 -103 LINE SMOOTH",
"555 -165 OFFCURVE",
"521 -190 OFFCURVE",
"461 -190 CURVE SMOOTH",
"201 -190 LINE SMOOTH",
"173 -190 OFFCURVE",
"151 -212 OFFCURVE",
"151 -240 CURVE SMOOTH",
"151 -268 OFFCURVE",
"173 -290 OFFCURVE",
"201 -290 CURVE SMOOTH"
);
}
);
width = 1078;
},
{
anchors = (
{
name = bottom;
position = "{514, -240}";
},
{
name = top;
position = "{534, 1400}";
}
);
layerId = m005;
paths = (
{
closed = 1;
nodes = (
"730 -290 LINE SMOOTH",
"834 -290 OFFCURVE",
"900 -224 OFFCURVE",
"900 -120 CURVE SMOOTH",
"900 -36.044 LINE",
"920.705 -45.048 OFFCURVE",
"943.683 -50 OFFCURVE",
"968 -50 CURVE SMOOTH",
"3078 -50 LINE SMOOTH",
"3106 -50 OFFCURVE",
"3128 -28 OFFCURVE",
"3128 0 CURVE SMOOTH",
"3128 28 OFFCURVE",
"3106 50 OFFCURVE",
"3078 50 CURVE SMOOTH",
"968 50 LINE SMOOTH",
"923 50 OFFCURVE",
"900 73 OFFCURVE",
"900 120 CURVE SMOOTH",
"900 440 LINE SMOOTH",
"900 468 OFFCURVE",
"878 490 OFFCURVE",
"850 490 CURVE SMOOTH",
"822 490 OFFCURVE",
"800 468 OFFCURVE",
"800 440 CURVE SMOOTH",
"800 340 LINE SMOOTH",
"800 285 OFFCURVE",
"785 270 OFFCURVE",
"730 270 CURVE SMOOTH",
"370 270 LINE SMOOTH",
"315 270 OFFCURVE",
"300 285 OFFCURVE",
"300 340 CURVE SMOOTH",
"300 1280 LINE SMOOTH",
"300 1339 OFFCURVE",
"311 1350 OFFCURVE",
"370 1350 CURVE SMOOTH",
"690 1350 LINE SMOOTH",
"752 1350 OFFCURVE",
"764 1340 OFFCURVE",
"760 1283 CURVE SMOOTH",
"728 797 LINE SMOOTH",
"726 770 OFFCURVE",
"748 744 OFFCURVE",
"778 744 CURVE SMOOTH",
"805 744 OFFCURVE",
"826 765 OFFCURVE",
"828 791 CURVE SMOOTH",
"860 1277 LINE SMOOTH",
"868 1389 OFFCURVE",
"797 1450 OFFCURVE",
"690 1450 CURVE SMOOTH",
"370 1450 LINE SMOOTH",
"262 1450 OFFCURVE",
"200 1388 OFFCURVE",
"200 1280 CURVE SMOOTH",
"200 340 LINE SMOOTH",
"200 236 OFFCURVE",
"266 170 OFFCURVE",
"370 170 CURVE SMOOTH",
"730 170 LINE SMOOTH",
"755.818 170 OFFCURVE",
"779.294 174.067 OFFCURVE",
"800 181.774 CURVE",
"800 -120 LINE SMOOTH",
"800 -175 OFFCURVE",
"785 -190 OFFCURVE",
"730 -190 CURVE SMOOTH",
"470 -190 LINE SMOOTH",
"442 -190 OFFCURVE",
"420 -212 OFFCURVE",
"420 -240 CURVE SMOOTH",
"420 -268 OFFCURVE",
"442 -290 OFFCURVE",
"470 -290 CURVE SMOOTH"
);
}
);
width = 3078;
},
{
anchors = (
{
name = bottom;
position = "{514, -240}";
},
{
name = top;
position = "{534, 1400}";
}
);
layerId = m006;
paths = (
{
closed = 1;
nodes = (
"730 -290 LINE SMOOTH",
"834 -290 OFFCURVE",
"900 -224 OFFCURVE",
"900 -120 CURVE SMOOTH",
"900 -36.044 LINE",
"920.705 -45.048 OFFCURVE",
"943.683 -50 OFFCURVE",
"968 -50 CURVE SMOOTH",
"1078 -50 LINE SMOOTH",
"1106 -50 OFFCURVE",
"1128 -28 OFFCURVE",
"1128 0 CURVE SMOOTH",
"1128 28 OFFCURVE",
"1106 50 OFFCURVE",
"1078 50 CURVE SMOOTH",
"968 50 LINE SMOOTH",
"923 50 OFFCURVE",
"900 73 OFFCURVE",
"900 120 CURVE SMOOTH",
"900 440 LINE SMOOTH",
"900 468 OFFCURVE",
"878 490 OFFCURVE",
"850 490 CURVE SMOOTH",
"822 490 OFFCURVE",
"800 468 OFFCURVE",
"800 440 CURVE SMOOTH",
"800 340 LINE SMOOTH",
"800 285 OFFCURVE",
"785 270 OFFCURVE",
"730 270 CURVE SMOOTH",
"370 270 LINE SMOOTH",
"315 270 OFFCURVE",
"300 285 OFFCURVE",
"300 340 CURVE SMOOTH",
"300 1280 LINE SMOOTH",
"300 1339 OFFCURVE",
"311 1350 OFFCURVE",
"370 1350 CURVE SMOOTH",
"690 1350 LINE SMOOTH",
"752 1350 OFFCURVE",
"764 1340 OFFCURVE",
"760 1283 CURVE SMOOTH",
"728 797 LINE SMOOTH",
"726 770 OFFCURVE",
"748 744 OFFCURVE",
"778 744 CURVE SMOOTH",
"805 744 OFFCURVE",
"826 765 OFFCURVE",
"828 791 CURVE SMOOTH",
"860 1277 LINE SMOOTH",
"868 1389 OFFCURVE",
"797 1450 OFFCURVE",
"690 1450 CURVE SMOOTH",
"370 1450 LINE SMOOTH",
"262 1450 OFFCURVE",
"200 1388 OFFCURVE",
"200 1280 CURVE SMOOTH",
"200 340 LINE SMOOTH",
"200 236 OFFCURVE",
"266 170 OFFCURVE",
"370 170 CURVE SMOOTH",
"730 170 LINE SMOOTH",
"755.818 170 OFFCURVE",
"779.294 174.067 OFFCURVE",
"800 181.774 CURVE",
"800 -120 LINE SMOOTH",
"800 -175 OFFCURVE",
"785 -190 OFFCURVE",
"730 -190 CURVE SMOOTH",
"470 -190 LINE SMOOTH",
"442 -190 OFFCURVE",
"420 -212 OFFCURVE",
"420 -240 CURVE SMOOTH",
"420 -268 OFFCURVE",
"442 -290 OFFCURVE",
"470 -290 CURVE SMOOTH"
);
}
);
width = 1078;
},
{
anchors = (
{
name = bottom;
position = "{514, -240}";
},
{
name = top;
position = "{534, 1400}";
}
);
layerId = "2E7AB31B-3074-491A-95D2-A8A197C304C7";
paths = (
{
closed = 1;
nodes = (
"730 -265 LINE SMOOTH",
"820 -265 OFFCURVE",
"875 -210 OFFCURVE",
"875 -120 CURVE SMOOTH",
"875 5 LINE",
"903 -15 OFFCURVE",
"935 -25 OFFCURVE",
"968 -25 CURVE SMOOTH",
"1078 -25 LINE SMOOTH",
"1092 -25 OFFCURVE",
"1103 -14 OFFCURVE",
"1103 0 CURVE SMOOTH",
"1103 14 OFFCURVE",
"1092 25 OFFCURVE",
"1078 25 CURVE SMOOTH",
"968 25 LINE SMOOTH",
"910 25 OFFCURVE",
"875 60 OFFCURVE",
"875 120 CURVE SMOOTH",
"875 440 LINE SMOOTH",
"875 454 OFFCURVE",
"864 465 OFFCURVE",
"850 465 CURVE SMOOTH",
"836 465 OFFCURVE",
"825 454 OFFCURVE",
"825 440 CURVE SMOOTH",
"825 340 LINE SMOOTH",
"825 268 OFFCURVE",
"803 245 OFFCURVE",
"730 245 CURVE SMOOTH",
"370 245 LINE SMOOTH",
"298 245 OFFCURVE",
"275 268 OFFCURVE",
"275 340 CURVE SMOOTH",
"275 1280 LINE SMOOTH",
"275 1359 OFFCURVE",
"292 1375 OFFCURVE",
"370 1375 CURVE SMOOTH",
"690 1375 LINE SMOOTH",
"773 1375 OFFCURVE",
"790 1360 OFFCURVE",
"785 1282 CURVE SMOOTH",
"753 796 LINE SMOOTH",
"752 783 OFFCURVE",
"763 769 OFFCURVE",
"778 769 CURVE SMOOTH",
"792 769 OFFCURVE",
"802 780 OFFCURVE",
"803 793 CURVE SMOOTH",
"835 1279 LINE SMOOTH",
"841 1376 OFFCURVE",
"784 1425 OFFCURVE",
"690 1425 CURVE SMOOTH",
"370 1425 LINE SMOOTH",
"276 1425 OFFCURVE",
"225 1374 OFFCURVE",
"225 1280 CURVE SMOOTH",
"225 340 LINE SMOOTH",
"225 250 OFFCURVE",
"280 195 OFFCURVE",
"370 195 CURVE SMOOTH",
"730 195 LINE SMOOTH",
"765 195 OFFCURVE",
"805 205 OFFCURVE",
"825 222 CURVE",
"825 -120 LINE SMOOTH",
"825 -193 OFFCURVE",
"803 -215 OFFCURVE",
"730 -215 CURVE SMOOTH",
"470 -215 LINE SMOOTH",
"456 -215 OFFCURVE",
"445 -226 OFFCURVE",
"445 -240 CURVE SMOOTH",
"445 -254 OFFCURVE",
"456 -265 OFFCURVE",
"470 -265 CURVE SMOOTH"
);
}
);
width = 1078;
}
);
leftKerningGroup = G;
rightKerningGroup = G;
unicode = 0047;
},
{
glyphname = H;
lastChange = "2021-05-01 21:13:05 +0000";
layers = (
{
anchors = (
{
name = bottom;
position = "{782, 0}";
},
{
name = center;
position = "{622, 700}";
},
{
name = top;
position = "{722, 1400}";
},
{
name = topleft;
position = "{8, 1400}";
}
);
layerId = m003;
paths = (
{
closed = 1;
nodes = (
"524 -340 OFFCURVE",
"568 -296 OFFCURVE",
"568 -240 CURVE SMOOTH",
"568 378 LINE",
"928 378 LINE",
"928 120 LINE SMOOTH",
"928 -4 OFFCURVE",
"1024 -100 OFFCURVE",
"1146 -100 CURVE SMOOTH",
"1276 -100 LINE SMOOTH",
"1332 -100 OFFCURVE",
"1376 -56 OFFCURVE",
"1376 0 CURVE SMOOTH",
"1376 56 OFFCURVE",
"1332 100 OFFCURVE",
"1276 100 CURVE SMOOTH",
"1146 100 LINE SMOOTH",
"1128 100 OFFCURVE",
"1128 100 OFFCURVE",
"1128 120 CURVE SMOOTH",
"1128 1400 LINE SMOOTH",
"1128 1456 OFFCURVE",
"1084 1500 OFFCURVE",
"1028 1500 CURVE SMOOTH",
"972 1500 OFFCURVE",
"928 1456 OFFCURVE",
"928 1400 CURVE SMOOTH",
"928 578 LINE",
"568 578 LINE",
"568 1280 LINE SMOOTH",
"568 1405 OFFCURVE",
"487 1492 OFFCURVE",
"365 1500 CURVE",
"68 1500 LINE SMOOTH",
"12 1500 OFFCURVE",
"-32 1456 OFFCURVE",
"-32 1400 CURVE SMOOTH",
"-32 1344 OFFCURVE",
"12 1300 OFFCURVE",
"68 1300 CURVE SMOOTH",
"348 1300 LINE SMOOTH",
"368 1300 OFFCURVE",
"368 1300 OFFCURVE",
"368 1280 CURVE SMOOTH",
"368 578 LINE",
"70 578 LINE SMOOTH",
"14 578 OFFCURVE",
"-30 534 OFFCURVE",
"-30 478 CURVE SMOOTH",
"-30 422 OFFCURVE",
"14 378 OFFCURVE",
"70 378 CURVE SMOOTH",
"368 378 LINE",
"368 -240 LINE SMOOTH",
"368 -296 OFFCURVE",
"412 -340 OFFCURVE",
"468 -340 CURVE SMOOTH"
);
}
);
width = 1276;
},
{
anchors = (
{
name = bottom;
position = "{964, 0}";
},
{
name = center;
position = "{549, 700}";
},
{
name = top;
position = "{394, 1400}";
},
{
name = topleft;
position = "{-320, 1400}";
}
);
layerId = m002;
paths = (
{
closed = 1;
nodes = (
"777 -290 OFFCURVE",
"794 -250 OFFCURVE",
"784 -223 CURVE SMOOTH",
"547 428 LINE",
"1001 428 LINE",
"1119 103 LINE SMOOTH",
"1151 16 OFFCURVE",
"1241 -50 OFFCURVE",
"1328 -50 CURVE SMOOTH",
"1458 -50 LINE SMOOTH",
"1486 -50 OFFCURVE",
"1508 -28 OFFCURVE",
"1508 0 CURVE SMOOTH",
"1508 28 OFFCURVE",
"1486 50 OFFCURVE",
"1458 50 CURVE SMOOTH",
"1328 50 LINE SMOOTH",
"1278 50 OFFCURVE",
"1233 83 OFFCURVE",
"1213 137 CURVE",
"747 1417 LINE",
"740 1436 OFFCURVE",
"722 1450 OFFCURVE",
"700 1450 CURVE SMOOTH",
"660 1450 OFFCURVE",
"643 1410 OFFCURVE",
"653 1383 CURVE SMOOTH",
"964 528 LINE",
"511 528 LINE",
"231 1297 LINE SMOOTH",
"198 1387 OFFCURVE",
"125 1450 OFFCURVE",
"35 1450 CURVE SMOOTH",
"-260 1450 LINE SMOOTH",
"-288 1450 OFFCURVE",
"-310 1428 OFFCURVE",
"-310 1400 CURVE SMOOTH",
"-310 1372 OFFCURVE",
"-288 1350 OFFCURVE",
"-260 1350 CURVE SMOOTH",
"20 1350 LINE SMOOTH",
"80 1350 OFFCURVE",
"114 1325 OFFCURVE",
"137 1263 CURVE SMOOTH",
"404 528 LINE",
"78 528 LINE SMOOTH",
"50 528 OFFCURVE",
"28 506 OFFCURVE",
"28 478 CURVE SMOOTH",
"28 450 OFFCURVE",
"50 428 OFFCURVE",
"78 428 CURVE SMOOTH",
"441 428 LINE",
"690 -257 LINE SMOOTH",
"697 -276 OFFCURVE",
"715 -290 OFFCURVE",
"737 -290 CURVE SMOOTH"
);
}
);
width = 1276;
},
{
anchors = (
{
name = bottom;
position = "{600, 0}";
},
{
name = center;
position = "{695, 700}";
},
{
name = top;
position = "{1050, 1400}";
},
{
name = topleft;
position = "{336, 1400}";
}
);
layerId = m004;
paths = (
{
closed = 1;
nodes = (
"221 -290 OFFCURVE",
"239 -276 OFFCURVE",
"246 -257 CURVE SMOOTH",
"495 428 LINE",
"949 428 LINE",
"843 137 LINE SMOOTH",
"805 33 OFFCURVE",
"867 -50 OFFCURVE",
"964 -50 CURVE SMOOTH",
"1094 -50 LINE SMOOTH",
"1122 -50 OFFCURVE",
"1144 -28 OFFCURVE",
"1144 0 CURVE SMOOTH",
"1144 28 OFFCURVE",
"1122 50 OFFCURVE",
"1094 50 CURVE SMOOTH",
"964 50 LINE SMOOTH",
"935 50 OFFCURVE",
"925 71 OFFCURVE",
"937 103 CURVE SMOOTH",
"1403 1383 LINE SMOOTH",
"1414 1409 OFFCURVE",
"1396 1450 OFFCURVE",
"1356 1450 CURVE SMOOTH",
"1334 1450 OFFCURVE",
"1316 1436 OFFCURVE",
"1309 1417 CURVE SMOOTH",
"985 528 LINE",
"532 528 LINE",
"799 1263 LINE SMOOTH",
"838 1369 OFFCURVE",
"790 1443 OFFCURVE",
"691 1449 CURVE SMOOTH",
"396 1450 LINE SMOOTH",
"368 1450 OFFCURVE",
"346 1428 OFFCURVE",
"346 1400 CURVE SMOOTH",
"346 1372 OFFCURVE",
"368 1350 OFFCURVE",
"396 1350 CURVE SMOOTH",
"676 1350 LINE SMOOTH",
"706 1350 OFFCURVE",
"717 1329 OFFCURVE",
"705 1297 CURVE SMOOTH",
"425 528 LINE",
"62 528 LINE SMOOTH",
"34 528 OFFCURVE",
"12 506 OFFCURVE",
"12 478 CURVE SMOOTH",
"12 450 OFFCURVE",
"34 428 OFFCURVE",
"62 428 CURVE SMOOTH",
"389 428 LINE",
"152 -223 LINE SMOOTH",
"141 -249 OFFCURVE",
"159 -290 OFFCURVE",
"199 -290 CURVE SMOOTH"
);
}
);
width = 1276;
},
{
anchors = (
{
name = bottom;
position = "{2782, 0}";
},
{
name = center;
position = "{2622, 700}";
},
{
name = top;
position = "{2722, 1400}";
},
{
name = topleft;
position = "{2008, 1400}";
}
);
layerId = m005;
paths = (
{
closed = 1;
nodes = (
"2496 -290 OFFCURVE",
"2518 -268 OFFCURVE",
"2518 -240 CURVE SMOOTH",
"2518 428 LINE",
"2978 428 LINE",
"2978 120 LINE SMOOTH",
"2978 24 OFFCURVE",
"3052 -50 OFFCURVE",
"3146 -50 CURVE SMOOTH",
"5276 -50 LINE SMOOTH",
"5304 -50 OFFCURVE",
"5326 -28 OFFCURVE",
"5326 0 CURVE SMOOTH",
"5326 28 OFFCURVE",
"5304 50 OFFCURVE",
"5276 50 CURVE SMOOTH",
"3146 50 LINE SMOOTH",
"3101 50 OFFCURVE",
"3078 73 OFFCURVE",
"3078 120 CURVE SMOOTH",
"3078 1400 LINE SMOOTH",
"3078 1428 OFFCURVE",
"3056 1450 OFFCURVE",
"3028 1450 CURVE SMOOTH",
"3000 1450 OFFCURVE",
"2978 1428 OFFCURVE",
"2978 1400 CURVE SMOOTH",
"2978 528 LINE",
"2518 528 LINE",
"2518 1280 LINE SMOOTH",
"2518 1379 OFFCURVE",
"2458 1443 OFFCURVE",
"2363 1450 CURVE SMOOTH",
"68 1450 LINE SMOOTH",
"40 1450 OFFCURVE",
"18 1428 OFFCURVE",
"18 1400 CURVE SMOOTH",
"18 1372 OFFCURVE",
"40 1350 OFFCURVE",
"68 1350 CURVE SMOOTH",
"2348 1350 LINE SMOOTH",
"2403 1350 OFFCURVE",
"2418 1335 OFFCURVE",
"2418 1280 CURVE SMOOTH",
"2418 528 LINE",
"2070 528 LINE SMOOTH",
"2042 528 OFFCURVE",
"2020 506 OFFCURVE",
"2020 478 CURVE SMOOTH",
"2020 450 OFFCURVE",
"2042 428 OFFCURVE",
"2070 428 CURVE SMOOTH",
"2418 428 LINE",
"2418 -240 LINE SMOOTH",
"2418 -268 OFFCURVE",
"2440 -290 OFFCURVE",
"2468 -290 CURVE SMOOTH"
);
}
);
width = 5276;
},
{
anchors = (
{
name = bottom;
position = "{782, 0}";
},
{
name = center;
position = "{622, 700}";
},
{
name = top;
position = "{722, 1400}";
},
{
name = topleft;
position = "{8, 1400}";
}
);
layerId = m006;
paths = (
{
closed = 1;
nodes = (
"496 -290 OFFCURVE",
"518 -268 OFFCURVE",
"518 -240 CURVE SMOOTH",
"518 428 LINE",
"978 428 LINE",
"978 120 LINE SMOOTH",
"978 24 OFFCURVE",
"1052 -50 OFFCURVE",
"1146 -50 CURVE SMOOTH",
"1276 -50 LINE SMOOTH",
"1304 -50 OFFCURVE",
"1326 -28 OFFCURVE",
"1326 0 CURVE SMOOTH",
"1326 28 OFFCURVE",
"1304 50 OFFCURVE",
"1276 50 CURVE SMOOTH",
"1146 50 LINE SMOOTH",
"1101 50 OFFCURVE",
"1078 73 OFFCURVE",
"1078 120 CURVE SMOOTH",
"1078 1400 LINE SMOOTH",
"1078 1428 OFFCURVE",
"1056 1450 OFFCURVE",
"1028 1450 CURVE SMOOTH",
"1000 1450 OFFCURVE",
"978 1428 OFFCURVE",
"978 1400 CURVE SMOOTH",
"978 528 LINE",
"518 528 LINE",
"518 1280 LINE SMOOTH",
"518 1378.886 OFFCURVE",
"458.331 1443.418 OFFCURVE",
"363.062 1449.525 CURVE SMOOTH",
"68 1450 LINE SMOOTH",
"40 1450 OFFCURVE",
"18 1428 OFFCURVE",
"18 1400 CURVE SMOOTH",
"18 1372 OFFCURVE",
"40 1350 OFFCURVE",
"68 1350 CURVE SMOOTH",
"348 1350 LINE SMOOTH",
"403 1350 OFFCURVE",
"418 1335 OFFCURVE",
"418 1280 CURVE SMOOTH",
"418 528 LINE",
"70 528 LINE SMOOTH",
"42 528 OFFCURVE",
"20 506 OFFCURVE",
"20 478 CURVE SMOOTH",
"20 450 OFFCURVE",
"42 428 OFFCURVE",
"70 428 CURVE SMOOTH",
"418 428 LINE",
"418 -240 LINE SMOOTH",
"418 -268 OFFCURVE",
"440 -290 OFFCURVE",
"468 -290 CURVE SMOOTH"
);
}
);
width = 1276;
},
{
anchors = (
{
name = bottom;
position = "{782, 0}";
},
{
name = center;
position = "{622, 700}";
},
{
name = top;
position = "{722, 1400}";
},
{
name = topleft;
position = "{8, 1400}";
}
);
layerId = "2E7AB31B-3074-491A-95D2-A8A197C304C7";
paths = (
{
closed = 1;
nodes = (
"482 -265 OFFCURVE",
"493 -254 OFFCURVE",
"493 -240 CURVE SMOOTH",
"493 453 LINE",
"1003 453 LINE",
"1003 120 LINE SMOOTH",
"1003 38 OFFCURVE",
"1066 -25 OFFCURVE",
"1146 -25 CURVE SMOOTH",
"1276 -25 LINE SMOOTH",
"1290 -25 OFFCURVE",
"1301 -14 OFFCURVE",
"1301 0 CURVE SMOOTH",
"1301 14 OFFCURVE",
"1290 25 OFFCURVE",
"1276 25 CURVE SMOOTH",
"1146 25 LINE SMOOTH",
"1088 25 OFFCURVE",
"1053 60 OFFCURVE",
"1053 120 CURVE SMOOTH",
"1053 1400 LINE SMOOTH",
"1053 1414 OFFCURVE",
"1042 1425 OFFCURVE",
"1028 1425 CURVE SMOOTH",
"1014 1425 OFFCURVE",
"1003 1414 OFFCURVE",
"1003 1400 CURVE SMOOTH",
"1003 503 LINE",
"493 503 LINE",
"493 1280 LINE SMOOTH",
"493 1366 OFFCURVE",
"444 1419 OFFCURVE",
"362 1424 CURVE SMOOTH",
"68 1425 LINE SMOOTH",
"54 1425 OFFCURVE",
"43 1414 OFFCURVE",
"43 1400 CURVE SMOOTH",
"43 1386 OFFCURVE",
"54 1375 OFFCURVE",
"68 1375 CURVE SMOOTH",
"348 1375 LINE SMOOTH",
"421 1375 OFFCURVE",
"443 1353 OFFCURVE",
"443 1280 CURVE SMOOTH",
"443 503 LINE",
"70 503 LINE SMOOTH",
"56 503 OFFCURVE",
"45 492 OFFCURVE",
"45 478 CURVE SMOOTH",
"45 464 OFFCURVE",
"56 453 OFFCURVE",
"70 453 CURVE SMOOTH",
"443 453 LINE",
"443 -240 LINE SMOOTH",
"443 -254 OFFCURVE",
"454 -265 OFFCURVE",
"468 -265 CURVE SMOOTH"
);
}
);
width = 1276;
}
);
leftKerningGroup = H;
rightKerningGroup = H;
unicode = 0048;
},
{
glyphname = Hbar;
lastChange = "2021-05-01 21:13:05 +0000";
layers = (
{
layerId = m003;
paths = (
{
closed = 1;
nodes = (
"524 -340 OFFCURVE",
"568 -296 OFFCURVE",
"568 -240 CURVE SMOOTH",
"568 378 LINE",
"928 378 LINE",
"928 120 LINE SMOOTH",
"928 -4 OFFCURVE",
"1024 -100 OFFCURVE",
"1146 -100 CURVE SMOOTH",
"1276 -100 LINE SMOOTH",
"1332 -100 OFFCURVE",
"1376 -56 OFFCURVE",
"1376 0 CURVE SMOOTH",
"1376 56 OFFCURVE",
"1332 100 OFFCURVE",
"1276 100 CURVE SMOOTH",
"1146 100 LINE SMOOTH",
"1128 100 OFFCURVE",
"1128 100 OFFCURVE",
"1128 120 CURVE SMOOTH",
"1128 858 LINE",
"1196 858 LINE SMOOTH",
"1252 858 OFFCURVE",
"1296 902 OFFCURVE",
"1296 958 CURVE SMOOTH",
"1296 1014 OFFCURVE",
"1252 1058 OFFCURVE",
"1196 1058 CURVE SMOOTH",
"1128 1058 LINE",
"1128 1400 LINE SMOOTH",
"1128 1456 OFFCURVE",
"1084 1500 OFFCURVE",
"1028 1500 CURVE SMOOTH",
"972 1500 OFFCURVE",
"928 1456 OFFCURVE",
"928 1400 CURVE SMOOTH",
"928 1058 LINE",
"568 1058 LINE",
"568 1290 LINE SMOOTH",
"568 1416 OFFCURVE",
"487 1499 OFFCURVE",
"363 1500 CURVE SMOOTH",
"68 1500 LINE SMOOTH",
"12 1500 OFFCURVE",
"-32 1456 OFFCURVE",
"-32 1400 CURVE SMOOTH",
"-32 1344 OFFCURVE",
"12 1300 OFFCURVE",
"68 1300 CURVE SMOOTH",
"348 1300 LINE SMOOTH",
"368 1300 OFFCURVE",
"368 1300 OFFCURVE",
"368 1280 CURVE SMOOTH",
"368 1058 LINE",
"70 1058 LINE SMOOTH",
"14 1058 OFFCURVE",
"-30 1014 OFFCURVE",
"-30 958 CURVE SMOOTH",
"-30 902 OFFCURVE",
"14 858 OFFCURVE",
"70 858 CURVE SMOOTH",
"368 858 LINE",
"368 578 LINE",
"70 578 LINE SMOOTH",
"14 578 OFFCURVE",
"-30 534 OFFCURVE",
"-30 478 CURVE SMOOTH",
"-30 422 OFFCURVE",
"14 378 OFFCURVE",
"70 378 CURVE SMOOTH",
"368 378 LINE",
"368 -240 LINE SMOOTH",
"368 -296 OFFCURVE",
"412 -340 OFFCURVE",
"468 -340 CURVE SMOOTH"
);
},
{
closed = 1;
nodes = (
"568 858 LINE",
"928 858 LINE",
"928 578 LINE",
"568 578 LINE"
);
}
);
width = 1276;
},
{
layerId = m002;
paths = (
{
closed = 1;
nodes = (
"777 -290 OFFCURVE",
"795 -249 OFFCURVE",
"784 -223 CURVE SMOOTH",
"547 428 LINE",
"1001 428 LINE",
"1119 103 LINE SMOOTH",
"1151 16 OFFCURVE",
"1241 -50 OFFCURVE",
"1328 -50 CURVE SMOOTH",
"1458 -50 LINE SMOOTH",
"1486 -50 OFFCURVE",
"1508 -28 OFFCURVE",
"1508 0 CURVE SMOOTH",
"1508 28 OFFCURVE",
"1486 50 OFFCURVE",
"1458 50 CURVE SMOOTH",
"1328 50 LINE SMOOTH",
"1278 50 OFFCURVE",
"1233 83 OFFCURVE",
"1213 137 CURVE",
"932 908 LINE",
"1029 908 LINE SMOOTH",
"1057 908 OFFCURVE",
"1079 930 OFFCURVE",
"1079 958 CURVE SMOOTH",
"1079 986 OFFCURVE",
"1057 1008 OFFCURVE",
"1029 1008 CURVE SMOOTH",
"896 1008 LINE",
"747 1417 LINE SMOOTH",
"740 1436 OFFCURVE",
"722 1450 OFFCURVE",
"700 1450 CURVE SMOOTH",
"660 1450 OFFCURVE",
"642 1409 OFFCURVE",
"653 1383 CURVE SMOOTH",
"790 1008 LINE",
"336 1008 LINE",
"231 1297 LINE SMOOTH",
"198 1387 OFFCURVE",
"125 1444 OFFCURVE",
"35 1450 CURVE SMOOTH",
"-260 1450 LINE SMOOTH",
"-288 1450 OFFCURVE",
"-310 1428 OFFCURVE",
"-310 1400 CURVE SMOOTH",
"-310 1372 OFFCURVE",
"-288 1350 OFFCURVE",
"-260 1350 CURVE SMOOTH",
"20 1350 LINE SMOOTH",
"80 1350 OFFCURVE",
"114 1325 OFFCURVE",
"137 1263 CURVE SMOOTH",
"230 1008 LINE",
"-97 1008 LINE SMOOTH",
"-125 1008 OFFCURVE",
"-147 986 OFFCURVE",
"-147 958 CURVE SMOOTH",
"-147 930 OFFCURVE",
"-125 908 OFFCURVE",
"-97 908 CURVE SMOOTH",
"266 908 LINE",
"404 528 LINE",
"78 528 LINE SMOOTH",
"50 528 OFFCURVE",
"28 506 OFFCURVE",
"28 478 CURVE SMOOTH",
"28 450 OFFCURVE",
"50 428 OFFCURVE",
"78 428 CURVE SMOOTH",
"441 428 LINE",
"690 -257 LINE SMOOTH",
"697 -276 OFFCURVE",
"715 -290 OFFCURVE",
"737 -290 CURVE SMOOTH"
);
},
{
closed = 1;
nodes = (
"373 908 LINE",
"826 908 LINE",
"964 528 LINE",
"511 528 LINE"
);
}
);
width = 1276;
},
{
layerId = m004;
paths = (
{
closed = 1;
nodes = (
"221 -290 OFFCURVE",
"239 -276 OFFCURVE",
"246 -257 CURVE SMOOTH",
"495 428 LINE",
"949 428 LINE",
"843 137 LINE SMOOTH",
"805 33 OFFCURVE",
"867 -50 OFFCURVE",
"964 -50 CURVE SMOOTH",
"1094 -50 LINE SMOOTH",
"1122 -50 OFFCURVE",
"1144 -28 OFFCURVE",
"1144 0 CURVE SMOOTH",
"1144 28 OFFCURVE",
"1122 50 OFFCURVE",
"1094 50 CURVE SMOOTH",
"964 50 LINE SMOOTH",
"935 50 OFFCURVE",
"925 71 OFFCURVE",
"937 103 CURVE SMOOTH",
"1230 908 LINE",
"1363 908 LINE SMOOTH",
"1391 908 OFFCURVE",
"1413 930 OFFCURVE",
"1413 958 CURVE SMOOTH",
"1413 986 OFFCURVE",
"1391 1008 OFFCURVE",
"1363 1008 CURVE SMOOTH",
"1266 1008 LINE",
"1403 1383 LINE SMOOTH",
"1414 1409 OFFCURVE",
"1396 1450 OFFCURVE",
"1356 1450 CURVE SMOOTH",
"1334 1450 OFFCURVE",
"1316 1436 OFFCURVE",
"1309 1417 CURVE SMOOTH",
"1160 1008 LINE",
"706 1008 LINE",
"799 1263 LINE SMOOTH",
"838 1369 OFFCURVE",
"790 1443 OFFCURVE",
"691 1449 CURVE SMOOTH",
"396 1450 LINE SMOOTH",
"368 1450 OFFCURVE",
"346 1428 OFFCURVE",
"346 1400 CURVE SMOOTH",
"346 1372 OFFCURVE",
"368 1350 OFFCURVE",
"396 1350 CURVE SMOOTH",
"676 1350 LINE SMOOTH",
"706 1350 OFFCURVE",
"717 1329 OFFCURVE",
"705 1297 CURVE SMOOTH",
"600 1008 LINE",
"237 1008 LINE SMOOTH",
"209 1008 OFFCURVE",
"187 986 OFFCURVE",
"187 958 CURVE SMOOTH",
"187 930 OFFCURVE",
"209 908 OFFCURVE",
"237 908 CURVE SMOOTH",
"563 908 LINE",
"425 528 LINE",
"62 528 LINE SMOOTH",
"34 528 OFFCURVE",
"12 506 OFFCURVE",
"12 478 CURVE SMOOTH",
"12 450 OFFCURVE",
"34 428 OFFCURVE",
"62 428 CURVE SMOOTH",
"389 428 LINE",
"152 -223 LINE SMOOTH",
"141 -249 OFFCURVE",
"159 -290 OFFCURVE",
"199 -290 CURVE SMOOTH"
);
},
{
closed = 1;
nodes = (
"670 908 LINE",
"1124 908 LINE",
"985 528 LINE",
"532 528 LINE"
);
}
);
width = 1276;
},
{
layerId = m005;
paths = (
{
closed = 1;
nodes = (
"2496 -290 OFFCURVE",
"2518 -268 OFFCURVE",
"2518 -240 CURVE SMOOTH",
"2518 428 LINE",
"2978 428 LINE",
"2978 120 LINE SMOOTH",
"2978 24 OFFCURVE",
"3052 -50 OFFCURVE",
"3146 -50 CURVE SMOOTH",
"5276 -50 LINE SMOOTH",
"5304 -50 OFFCURVE",
"5326 -28 OFFCURVE",
"5326 0 CURVE SMOOTH",
"5326 28 OFFCURVE",
"5304 50 OFFCURVE",
"5276 50 CURVE SMOOTH",
"3146 50 LINE SMOOTH",
"3101 50 OFFCURVE",
"3078 73 OFFCURVE",
"3078 120 CURVE SMOOTH",
"3078 908 LINE",
"3196 908 LINE SMOOTH",
"3224 908 OFFCURVE",
"3246 930 OFFCURVE",
"3246 958 CURVE SMOOTH",
"3246 986 OFFCURVE",
"3224 1008 OFFCURVE",
"3196 1008 CURVE SMOOTH",
"3078 1008 LINE",
"3078 1400 LINE SMOOTH",
"3078 1428 OFFCURVE",
"3056 1450 OFFCURVE",
"3028 1450 CURVE SMOOTH",
"3000 1450 OFFCURVE",
"2978 1428 OFFCURVE",
"2978 1400 CURVE SMOOTH",
"2978 1008 LINE",
"2518 1008 LINE",
"2518 1290 LINE SMOOTH",
"2518 1389 OFFCURVE",
"2459 1449 OFFCURVE",
"2363 1450 CURVE SMOOTH",
"68 1450 LINE SMOOTH",
"40 1450 OFFCURVE",
"18 1428 OFFCURVE",
"18 1400 CURVE SMOOTH",
"18 1372 OFFCURVE",
"40 1350 OFFCURVE",
"68 1350 CURVE SMOOTH",
"2348 1350 LINE SMOOTH",
"2403 1350 OFFCURVE",
"2418 1335 OFFCURVE",
"2418 1280 CURVE SMOOTH",
"2418 1008 LINE",
"2070 1008 LINE SMOOTH",
"2042 1008 OFFCURVE",
"2020 986 OFFCURVE",
"2020 958 CURVE SMOOTH",
"2020 930 OFFCURVE",
"2042 908 OFFCURVE",
"2070 908 CURVE SMOOTH",
"2418 908 LINE",
"2418 528 LINE",
"2070 528 LINE SMOOTH",
"2042 528 OFFCURVE",
"2020 506 OFFCURVE",
"2020 478 CURVE SMOOTH",
"2020 450 OFFCURVE",
"2042 428 OFFCURVE",
"2070 428 CURVE SMOOTH",
"2418 428 LINE",
"2418 -240 LINE SMOOTH",
"2418 -268 OFFCURVE",
"2440 -290 OFFCURVE",
"2468 -290 CURVE SMOOTH"
);
},
{
closed = 1;
nodes = (
"2518 908 LINE",
"2978 908 LINE",
"2978 528 LINE",
"2518 528 LINE"
);
}
);
width = 5276;
},
{
layerId = m006;
paths = (
{
closed = 1;
nodes = (
"496 -290 OFFCURVE",
"518 -268 OFFCURVE",
"518 -240 CURVE SMOOTH",
"518 428 LINE",
"978 428 LINE",
"978 120 LINE SMOOTH",
"978 24 OFFCURVE",
"1052 -50 OFFCURVE",
"1146 -50 CURVE SMOOTH",
"1276 -50 LINE SMOOTH",
"1304 -50 OFFCURVE",
"1326 -28 OFFCURVE",
"1326 0 CURVE SMOOTH",
"1326 28 OFFCURVE",
"1304 50 OFFCURVE",
"1276 50 CURVE SMOOTH",
"1146 50 LINE SMOOTH",
"1101 50 OFFCURVE",
"1078 73 OFFCURVE",
"1078 120 CURVE SMOOTH",
"1078 908 LINE",
"1196 908 LINE SMOOTH",
"1224 908 OFFCURVE",
"1246 930 OFFCURVE",
"1246 958 CURVE SMOOTH",
"1246 986 OFFCURVE",
"1224 1008 OFFCURVE",
"1196 1008 CURVE SMOOTH",
"1078 1008 LINE",
"1078 1400 LINE SMOOTH",
"1078 1428 OFFCURVE",
"1056 1450 OFFCURVE",
"1028 1450 CURVE SMOOTH",
"1000 1450 OFFCURVE",
"978 1428 OFFCURVE",
"978 1400 CURVE SMOOTH",
"978 1008 LINE",
"518 1008 LINE",
"518 1290 LINE SMOOTH",
"518 1389 OFFCURVE",
"459 1449 OFFCURVE",
"363.062 1449.525 CURVE SMOOTH",
"68 1450 LINE SMOOTH",
"40 1450 OFFCURVE",
"18 1428 OFFCURVE",
"18 1400 CURVE SMOOTH",
"18 1372 OFFCURVE",
"40 1350 OFFCURVE",
"68 1350 CURVE SMOOTH",
"348 1350 LINE SMOOTH",
"403 1350 OFFCURVE",
"418 1335 OFFCURVE",
"418 1280 CURVE SMOOTH",
"418 1008 LINE",
"70 1008 LINE SMOOTH",
"42 1008 OFFCURVE",
"20 986 OFFCURVE",
"20 958 CURVE SMOOTH",
"20 930 OFFCURVE",
"42 908 OFFCURVE",
"70 908 CURVE SMOOTH",
"418 908 LINE",
"418 528 LINE",
"70 528 LINE SMOOTH",
"42 528 OFFCURVE",
"20 506 OFFCURVE",
"20 478 CURVE SMOOTH",
"20 450 OFFCURVE",
"42 428 OFFCURVE",
"70 428 CURVE SMOOTH",
"418 428 LINE",
"418 -240 LINE SMOOTH",
"418 -268 OFFCURVE",
"440 -290 OFFCURVE",
"468 -290 CURVE SMOOTH"
);
},
{
closed = 1;
nodes = (
"518 908 LINE",
"978 908 LINE",
"978 528 LINE",
"518 528 LINE"
);
}
);
width = 1276;
},
{
layerId = "2E7AB31B-3074-491A-95D2-A8A197C304C7";
paths = (
{
closed = 1;
nodes = (
"482 -265 OFFCURVE",
"493 -254 OFFCURVE",
"493 -240 CURVE SMOOTH",
"493 453 LINE",
"1003 453 LINE",
"1003 120 LINE SMOOTH",
"1003 38 OFFCURVE",
"1066 -25 OFFCURVE",
"1146 -25 CURVE SMOOTH",
"1276 -25 LINE SMOOTH",
"1290 -25 OFFCURVE",
"1301 -14 OFFCURVE",
"1301 0 CURVE SMOOTH",
"1301 14 OFFCURVE",
"1290 25 OFFCURVE",
"1276 25 CURVE SMOOTH",
"1146 25 LINE SMOOTH",
"1088 25 OFFCURVE",
"1053 60 OFFCURVE",
"1053 120 CURVE SMOOTH",
"1053 933 LINE",
"1196 933 LINE SMOOTH",
"1210 933 OFFCURVE",
"1221 944 OFFCURVE",
"1221 958 CURVE SMOOTH",
"1221 972 OFFCURVE",
"1210 983 OFFCURVE",
"1196 983 CURVE SMOOTH",
"1053 983 LINE",
"1053 1400 LINE SMOOTH",
"1053 1414 OFFCURVE",
"1042 1425 OFFCURVE",
"1028 1425 CURVE SMOOTH",
"1014 1425 OFFCURVE",
"1003 1414 OFFCURVE",
"1003 1400 CURVE SMOOTH",
"1003 983 LINE",
"493 983 LINE",
"493 1290 LINE SMOOTH",
"493 1376 OFFCURVE",
"445 1424 OFFCURVE",
"363 1424 CURVE SMOOTH",
"68 1425 LINE SMOOTH",
"54 1425 OFFCURVE",
"43 1414 OFFCURVE",
"43 1400 CURVE SMOOTH",
"43 1386 OFFCURVE",
"54 1375 OFFCURVE",
"68 1375 CURVE SMOOTH",
"348 1375 LINE SMOOTH",
"421 1375 OFFCURVE",
"443 1353 OFFCURVE",
"443 1280 CURVE SMOOTH",
"443 983 LINE",
"70 983 LINE SMOOTH",
"56 983 OFFCURVE",
"45 972 OFFCURVE",
"45 958 CURVE SMOOTH",
"45 944 OFFCURVE",
"56 933 OFFCURVE",
"70 933 CURVE SMOOTH",
"443 933 LINE",
"443 503 LINE",
"70 503 LINE SMOOTH",
"56 503 OFFCURVE",
"45 492 OFFCURVE",
"45 478 CURVE SMOOTH",
"45 464 OFFCURVE",
"56 453 OFFCURVE",
"70 453 CURVE SMOOTH",
"443 453 LINE",
"443 -240 LINE SMOOTH",
"443 -254 OFFCURVE",
"454 -265 OFFCURVE",
"468 -265 CURVE SMOOTH"
);
},
{
closed = 1;
nodes = (
"493 933 LINE",
"1003 933 LINE",
"1003 503 LINE",
"493 503 LINE"
);
}
);
width = 1276;
}
);
leftKerningGroup = H;
rightKerningGroup = H;
unicode = 0126;
},
{
glyphname = I;
lastChange = "2021-05-01 21:13:05 +0000";
layers = (
{
anchors = (
{
name = bottom;
position = "{416, -240}";
},
{
name = ogonek;
position = "{612, -240}";
},
{
name = top;
position = "{384, 1400}";
},
{
name = topleft;
position = "{12, 1400}";
}
);
layerId = m003;
paths = (
{
closed = 1;
nodes = (
"492 -340 LINE SMOOTH",
"628 -340 OFFCURVE",
"712 -256 OFFCURVE",
"712 -120 CURVE SMOOTH",
"712 -99 LINE",
"718 -100 OFFCURVE",
"724 -100 OFFCURVE",
"730 -100 CURVE SMOOTH",
"860 -100 LINE SMOOTH",
"916 -100 OFFCURVE",
"960 -56 OFFCURVE",
"960 0 CURVE SMOOTH",
"960 56 OFFCURVE",
"916 100 OFFCURVE",
"860 100 CURVE SMOOTH",
"730 100 LINE SMOOTH",
"712 100 OFFCURVE",
"712 100 OFFCURVE",
"712 120 CURVE SMOOTH",
"712 1280 LINE SMOOTH",
"712 1416 OFFCURVE",
"628 1500 OFFCURVE",
"492 1500 CURVE SMOOTH",
"272 1500 LINE SMOOTH",
"137 1500 OFFCURVE",
"38 1410 OFFCURVE",
"52 1270 CURVE SMOOTH",
"102 750 LINE SMOOTH",
"108 699 OFFCURVE",
"151 660 OFFCURVE",
"202 660 CURVE SMOOTH",
"261 660 OFFCURVE",
"306 711 OFFCURVE",
"302 769 CURVE SMOOTH",
"252 1290 LINE SMOOTH",
"251 1300 OFFCURVE",
"251 1300 OFFCURVE",
"272 1300 CURVE SMOOTH",
"492 1300 LINE SMOOTH",
"512 1300 OFFCURVE",
"512 1300 OFFCURVE",
"512 1280 CURVE SMOOTH",
"512 -120 LINE SMOOTH",
"512 -140 OFFCURVE",
"512 -140 OFFCURVE",
"492 -140 CURVE SMOOTH",
"352 -140 LINE SMOOTH",
"296 -140 OFFCURVE",
"252 -184 OFFCURVE",
"252 -240 CURVE SMOOTH",
"252 -296 OFFCURVE",
"296 -340 OFFCURVE",
"352 -340 CURVE SMOOTH"
);
}
);
width = 860;
},
{
anchors = (
{
name = bottom;
position = "{685, -240}";
},
{
name = ogonek;
position = "{881, -240}";
},
{
name = top;
position = "{56, 1400}";
},
{
name = topleft;
position = "{-316, 1400}";
}
);
layerId = m002;
paths = (
{
closed = 1;
nodes = (
"761 -290 LINE SMOOTH",
"875 -290 OFFCURVE",
"927 -217 OFFCURVE",
"884 -103 CURVE SMOOTH",
"862 -43 LINE",
"879 -48 OFFCURVE",
"895 -50 OFFCURVE",
"912 -50 CURVE SMOOTH",
"1042 -50 LINE SMOOTH",
"1070 -50 OFFCURVE",
"1092 -28 OFFCURVE",
"1092 0 CURVE SMOOTH",
"1092 28 OFFCURVE",
"1070 50 OFFCURVE",
"1042 50 CURVE SMOOTH",
"912 50 LINE SMOOTH",
"862 50 OFFCURVE",
"817 83 OFFCURVE",
"797 137 CURVE SMOOTH",
"375 1297 LINE SMOOTH",
"339 1396 OFFCURVE",
"265 1450 OFFCURVE",
"164 1450 CURVE SMOOTH",
"-56 1450 LINE SMOOTH",
"-169 1450 OFFCURVE",
"-230 1372 OFFCURVE",
"-177 1259 CURVE SMOOTH",
"62 739 LINE SMOOTH",
"69 722 OFFCURVE",
"87 710 OFFCURVE",
"107 710 CURVE SMOOTH",
"148 710 OFFCURVE",
"166 752 OFFCURVE",
"152 781 CURVE SMOOTH",
"-87 1301 LINE SMOOTH",
"-100 1331 OFFCURVE",
"-88 1350 OFFCURVE",
"-56 1350 CURVE SMOOTH",
"164 1350 LINE SMOOTH",
"228 1350 OFFCURVE",
"257 1329 OFFCURVE",
"281 1263 CURVE SMOOTH",
"790 -137 LINE SMOOTH",
"802 -169 OFFCURVE",
"791 -190 OFFCURVE",
"761 -190 CURVE SMOOTH",
"621 -190 LINE SMOOTH",
"593 -190 OFFCURVE",
"571 -212 OFFCURVE",
"571 -240 CURVE SMOOTH",
"571 -268 OFFCURVE",
"593 -290 OFFCURVE",
"621 -290 CURVE SMOOTH"
);
}
);
width = 860;
},
{
anchors = (
{
name = bottom;
position = "{147, -240}";
},
{
name = ogonek;
position = "{343, -240}";
},
{
name = top;
position = "{712, 1400}";
},
{
name = topleft;
position = "{340, 1400}";
}
);
layerId = m004;
paths = (
{
closed = 1;
nodes = (
"223 -290 LINE SMOOTH",
"325 -290 OFFCURVE",
"397 -236 OFFCURVE",
"434 -137 CURVE SMOOTH",
"473 -30 LINE",
"494 -43 OFFCURVE",
"519 -50 OFFCURVE",
"548 -50 CURVE SMOOTH",
"678 -50 LINE SMOOTH",
"706 -50 OFFCURVE",
"728 -28 OFFCURVE",
"728 0 CURVE SMOOTH",
"728 28 OFFCURVE",
"706 50 OFFCURVE",
"678 50 CURVE SMOOTH",
"548 50 LINE SMOOTH",
"521 50 OFFCURVE",
"509 64 OFFCURVE",
"515 87 CURVE",
"943 1263 LINE SMOOTH",
"985 1379 OFFCURVE",
"932 1450 OFFCURVE",
"820 1450 CURVE SMOOTH",
"600 1450 LINE SMOOTH",
"505 1450 OFFCURVE",
"415 1398 OFFCURVE",
"388 1293 CURVE SMOOTH",
"249 773 LINE SMOOTH",
"240 741 OFFCURVE",
"264 710 OFFCURVE",
"297 710 CURVE SMOOTH",
"320 710 OFFCURVE",
"340 726 OFFCURVE",
"345 747 CURVE SMOOTH",
"484 1267 LINE SMOOTH",
"500 1328 OFFCURVE",
"538 1350 OFFCURVE",
"600 1350 CURVE SMOOTH",
"820 1350 LINE SMOOTH",
"849 1350 OFFCURVE",
"861 1329 OFFCURVE",
"849 1297 CURVE",
"340 -103 LINE",
"315 -169 OFFCURVE",
"286 -190 OFFCURVE",
"223 -190 CURVE SMOOTH",
"83 -190 LINE SMOOTH",
"55 -190 OFFCURVE",
"33 -212 OFFCURVE",
"33 -240 CURVE SMOOTH",
"33 -268 OFFCURVE",
"55 -290 OFFCURVE",
"83 -290 CURVE SMOOTH"
);
}
);
width = 860;
},
{
anchors = (
{
name = bottom;
position = "{416, -240}";
},
{
name = ogonek;
position = "{612, -240}";
},
{
name = top;
position = "{384, 1400}";
},
{
name = topleft;
position = "{12, 1400}";
}
);
layerId = m005;
paths = (
{
closed = 1;
nodes = (
"492 -290 LINE SMOOTH",
"600 -290 OFFCURVE",
"662 -228 OFFCURVE",
"662 -120 CURVE SMOOTH",
"662 -36.044 LINE",
"682.705 -45.048 OFFCURVE",
"705.683 -50 OFFCURVE",
"730 -50 CURVE SMOOTH",
"2860 -50 LINE SMOOTH",
"2888 -50 OFFCURVE",
"2910 -28 OFFCURVE",
"2910 0 CURVE SMOOTH",
"2910 28 OFFCURVE",
"2888 50 OFFCURVE",
"2860 50 CURVE SMOOTH",
"730 50 LINE SMOOTH",
"685 50 OFFCURVE",
"662 73 OFFCURVE",
"662 120 CURVE SMOOTH",
"662 1280 LINE SMOOTH",
"662 1388 OFFCURVE",
"600 1450 OFFCURVE",
"492 1450 CURVE SMOOTH",
"272 1450 LINE SMOOTH",
"165 1450 OFFCURVE",
"91 1384 OFFCURVE",
"102 1275 CURVE SMOOTH",
"152 755 LINE SMOOTH",
"155 730 OFFCURVE",
"176 710 OFFCURVE",
"202 710 CURVE SMOOTH",
"232 710 OFFCURVE",
"254 736 OFFCURVE",
"252 765 CURVE SMOOTH",
"202 1285 LINE SMOOTH",
"197 1337 OFFCURVE",
"213 1350 OFFCURVE",
"272 1350 CURVE SMOOTH",
"492 1350 LINE SMOOTH",
"551 1350 OFFCURVE",
"562 1339 OFFCURVE",
"562 1280 CURVE SMOOTH",
"562 -120 LINE SMOOTH",
"562 -179 OFFCURVE",
"551 -190 OFFCURVE",
"492 -190 CURVE SMOOTH",
"352 -190 LINE SMOOTH",
"324 -190 OFFCURVE",
"302 -212 OFFCURVE",
"302 -240 CURVE SMOOTH",
"302 -268 OFFCURVE",
"324 -290 OFFCURVE",
"352 -290 CURVE SMOOTH"
);
}
);
width = 2860;
},
{
anchors = (
{
name = bottom;
position = "{416, -240}";
},
{
name = ogonek;
position = "{612, -240}";
},
{
name = top;
position = "{384, 1400}";
},
{
name = topleft;
position = "{12, 1400}";
}
);
layerId = m006;
paths = (
{
closed = 1;
nodes = (
"492 -290 LINE SMOOTH",
"600 -290 OFFCURVE",
"662 -228 OFFCURVE",
"662 -120 CURVE SMOOTH",
"662 -36.044 LINE",
"682.705 -45.048 OFFCURVE",
"705.683 -50 OFFCURVE",
"730 -50 CURVE SMOOTH",
"860 -50 LINE SMOOTH",
"888 -50 OFFCURVE",
"910 -28 OFFCURVE",
"910 0 CURVE SMOOTH",
"910 28 OFFCURVE",
"888 50 OFFCURVE",
"860 50 CURVE SMOOTH",
"730 50 LINE SMOOTH",
"685 50 OFFCURVE",
"662 73 OFFCURVE",
"662 120 CURVE SMOOTH",
"662 1280 LINE SMOOTH",
"662 1388 OFFCURVE",
"600 1450 OFFCURVE",
"492 1450 CURVE SMOOTH",
"272 1450 LINE SMOOTH",
"165 1450 OFFCURVE",
"91 1384 OFFCURVE",
"102 1275 CURVE SMOOTH",
"152 755 LINE SMOOTH",
"155 730 OFFCURVE",
"176 710 OFFCURVE",
"202 710 CURVE SMOOTH",
"232 710 OFFCURVE",
"254 736 OFFCURVE",
"252 765 CURVE SMOOTH",
"202 1285 LINE SMOOTH",
"197 1337 OFFCURVE",
"213 1350 OFFCURVE",
"272 1350 CURVE SMOOTH",
"492 1350 LINE SMOOTH",
"551 1350 OFFCURVE",
"562 1339 OFFCURVE",
"562 1280 CURVE SMOOTH",
"562 -120 LINE SMOOTH",
"562 -179 OFFCURVE",
"551 -190 OFFCURVE",
"492 -190 CURVE SMOOTH",
"352 -190 LINE SMOOTH",
"324 -190 OFFCURVE",
"302 -212 OFFCURVE",
"302 -240 CURVE SMOOTH",
"302 -268 OFFCURVE",
"324 -290 OFFCURVE",
"352 -290 CURVE SMOOTH"
);
}
);
width = 860;
},
{
anchors = (
{
name = bottom;
position = "{416, -240}";
},
{
name = ogonek;
position = "{612, -240}";
},
{
name = top;
position = "{384, 1400}";
},
{
name = topleft;
position = "{12, 1400}";
}
);
layerId = "2E7AB31B-3074-491A-95D2-A8A197C304C7";
paths = (
{
closed = 1;
nodes = (
"492 -265 LINE SMOOTH",
"586 -265 OFFCURVE",
"637 -214 OFFCURVE",
"637 -120 CURVE SMOOTH",
"637 5 LINE",
"665 -15 OFFCURVE",
"697 -25 OFFCURVE",
"730 -25 CURVE SMOOTH",
"860 -25 LINE SMOOTH",
"874 -25 OFFCURVE",
"885 -14 OFFCURVE",
"885 0 CURVE SMOOTH",
"885 14 OFFCURVE",
"874 25 OFFCURVE",
"860 25 CURVE SMOOTH",
"730 25 LINE SMOOTH",
"672 25 OFFCURVE",
"637 60 OFFCURVE",
"637 120 CURVE SMOOTH",
"637 1280 LINE SMOOTH",
"637 1374 OFFCURVE",
"586 1425 OFFCURVE",
"492 1425 CURVE SMOOTH",
"272 1425 LINE SMOOTH",
"179 1425 OFFCURVE",
"118 1371 OFFCURVE",
"127 1278 CURVE SMOOTH",
"177 758 LINE SMOOTH",
"179 746 OFFCURVE",
"189 735 OFFCURVE",
"202 735 CURVE SMOOTH",
"218 735 OFFCURVE",
"228 749 OFFCURVE",
"227 763 CURVE SMOOTH",
"177 1283 LINE SMOOTH",
"170 1356 OFFCURVE",
"194 1375 OFFCURVE",
"272 1375 CURVE SMOOTH",
"492 1375 LINE SMOOTH",
"571 1375 OFFCURVE",
"587 1359 OFFCURVE",
"587 1280 CURVE SMOOTH",
"587 -120 LINE SMOOTH",
"587 -199 OFFCURVE",
"571 -215 OFFCURVE",
"492 -215 CURVE SMOOTH",
"352 -215 LINE SMOOTH",
"338 -215 OFFCURVE",
"327 -226 OFFCURVE",
"327 -240 CURVE SMOOTH",
"327 -254 OFFCURVE",
"338 -265 OFFCURVE",
"352 -265 CURVE SMOOTH"
);
}
);
width = 860;
}
);
leftKerningGroup = I;
rightKerningGroup = H;
unicode = 0049;
},
{
glyphname = J;
lastChange = "2021-05-01 21:13:05 +0000";
layers = (
{
anchors = (
{
name = bottom;
position = "{502, -400}";
},
{
name = top;
position = "{502, 1400}";
}
);
layerId = m003;
paths = (
{
closed = 1;
nodes = (
"632 -500 LINE SMOOTH",
"768 -500 OFFCURVE",
"852 -416 OFFCURVE",
"852 -280 CURVE SMOOTH",
"852 -99 LINE",
"858 -100 OFFCURVE",
"864 -100 OFFCURVE",
"870 -100 CURVE SMOOTH",
"1000 -100 LINE SMOOTH",
"1056 -100 OFFCURVE",
"1100 -56 OFFCURVE",
"1100 0 CURVE SMOOTH",
"1100 56 OFFCURVE",
"1056 100 OFFCURVE",
"1000 100 CURVE SMOOTH",
"870 100 LINE SMOOTH",
"852 100 OFFCURVE",
"852 100 OFFCURVE",
"852 120 CURVE SMOOTH",
"852 1280 LINE SMOOTH",
"852 1416 OFFCURVE",
"768 1500 OFFCURVE",
"632 1500 CURVE SMOOTH",
"332 1500 LINE SMOOTH",
"198 1500 OFFCURVE",
"94 1412 OFFCURVE",
"112 1268 CURVE SMOOTH",
"242 124 LINE SMOOTH",
"248 74 OFFCURVE",
"291 36 OFFCURVE",
"342 36 CURVE SMOOTH",
"403 36 OFFCURVE",
"448 89 OFFCURVE",
"442 147 CURVE SMOOTH",
"312 1292 LINE SMOOTH",
"311 1300 OFFCURVE",
"310 1300 OFFCURVE",
"332 1300 CURVE SMOOTH",
"632 1300 LINE SMOOTH",
"652 1300 OFFCURVE",
"652 1300 OFFCURVE",
"652 1280 CURVE SMOOTH",
"652 -280 LINE SMOOTH",
"652 -300 OFFCURVE",
"652 -300 OFFCURVE",
"632 -300 CURVE SMOOTH",
"324 -300 LINE SMOOTH",
"268 -300 OFFCURVE",
"224 -344 OFFCURVE",
"224 -400 CURVE SMOOTH",
"224 -456 OFFCURVE",
"268 -500 OFFCURVE",
"324 -500 CURVE SMOOTH"
);
}
);
width = 1000;
},
{
anchors = (
{
name = bottom;
position = "{829, -400}";
},
{
name = top;
position = "{174, 1400}";
}
);
layerId = m002;
paths = (
{
closed = 1;
nodes = (
"959 -450 LINE SMOOTH",
"1072 -450 OFFCURVE",
"1125 -378 OFFCURVE",
"1083 -263 CURVE SMOOTH",
"1003 -43 LINE",
"1019 -48 OFFCURVE",
"1036 -50 OFFCURVE",
"1052 -50 CURVE SMOOTH",
"1182 -50 LINE SMOOTH",
"1210 -50 OFFCURVE",
"1232 -28 OFFCURVE",
"1232 0 CURVE SMOOTH",
"1232 28 OFFCURVE",
"1210 50 OFFCURVE",
"1182 50 CURVE SMOOTH",
"1052 50 LINE SMOOTH",
"1004 50 OFFCURVE",
"961 80 OFFCURVE",
"940 129 CURVE",
"515 1297 LINE SMOOTH",
"479 1396 OFFCURVE",
"405 1450 OFFCURVE",
"304 1450 CURVE SMOOTH",
"4 1450 LINE SMOOTH",
"-114 1450 OFFCURVE",
"-172 1371 OFFCURVE",
"-117 1258 CURVE SMOOTH",
"429 114 LINE SMOOTH",
"437 98 OFFCURVE",
"454 86 OFFCURVE",
"474 86 CURVE SMOOTH",
"514 86 OFFCURVE",
"533 125 OFFCURVE",
"519 158 CURVE SMOOTH",
"-27 1302 LINE SMOOTH",
"-42 1331 OFFCURVE",
"-29 1350 OFFCURVE",
"4 1350 CURVE SMOOTH",
"304 1350 LINE SMOOTH",
"368 1350 OFFCURVE",
"397 1329 OFFCURVE",
"421 1263 CURVE",
"989 -297 LINE",
"1001 -329 OFFCURVE",
"989 -350 OFFCURVE",
"959 -350 CURVE SMOOTH",
"651 -350 LINE SMOOTH",
"623 -350 OFFCURVE",
"601 -372 OFFCURVE",
"601 -400 CURVE SMOOTH",
"601 -428 OFFCURVE",
"623 -450 OFFCURVE",
"651 -450 CURVE SMOOTH"
);
}
);
width = 1000;
},
{
anchors = (
{
name = bottom;
position = "{175, -400}";
},
{
name = top;
position = "{830, 1400}";
}
);
layerId = m004;
paths = (
{
closed = 1;
nodes = (
"305 -450 LINE SMOOTH",
"407 -450 OFFCURVE",
"479 -396 OFFCURVE",
"515 -297 CURVE SMOOTH",
"612 -30 LINE",
"633 -43 OFFCURVE",
"659 -50 OFFCURVE",
"688 -50 CURVE SMOOTH",
"818 -50 LINE SMOOTH",
"846 -50 OFFCURVE",
"868 -28 OFFCURVE",
"868 0 CURVE SMOOTH",
"868 28 OFFCURVE",
"846 50 OFFCURVE",
"818 50 CURVE SMOOTH",
"688 50 LINE SMOOTH",
"659 50 OFFCURVE",
"650 73 OFFCURVE",
"663 108 CURVE",
"1083 1263 LINE SMOOTH",
"1125 1379 OFFCURVE",
"1072 1450 OFFCURVE",
"960 1450 CURVE SMOOTH",
"660 1450 LINE SMOOTH",
"559 1450 OFFCURVE",
"472 1396 OFFCURVE",
"447 1292 CURVE SMOOTH",
"161 148 LINE SMOOTH",
"154 117 OFFCURVE",
"177 86 OFFCURVE",
"210 86 CURVE SMOOTH",
"233 86 OFFCURVE",
"253 102 OFFCURVE",
"259 124 CURVE SMOOTH",
"545 1268 LINE SMOOTH",
"559 1328 OFFCURVE",
"594 1350 OFFCURVE",
"660 1350 CURVE SMOOTH",
"960 1350 LINE SMOOTH",
"989 1350 OFFCURVE",
"1001 1329 OFFCURVE",
"989 1297 CURVE SMOOTH",
"421 -263 LINE SMOOTH",
"397 -329 OFFCURVE",
"368 -350 OFFCURVE",
"305 -350 CURVE SMOOTH",
"-3 -350 LINE SMOOTH",
"-31 -350 OFFCURVE",
"-53 -372 OFFCURVE",
"-53 -400 CURVE SMOOTH",
"-53 -428 OFFCURVE",
"-31 -450 OFFCURVE",
"-3 -450 CURVE SMOOTH"
);
}
);
width = 1000;
},
{
anchors = (
{
name = bottom;
position = "{502, -400}";
},
{
name = top;
position = "{502, 1400}";
}
);
layerId = m005;
paths = (
{
closed = 1;
nodes = (
"632 -450 LINE SMOOTH",
"740 -450 OFFCURVE",
"802 -388 OFFCURVE",
"802 -280 CURVE SMOOTH",
"802 -36.044 LINE",
"822.705 -45.048 OFFCURVE",
"845.683 -50 OFFCURVE",
"870 -50 CURVE SMOOTH",
"3000 -50 LINE SMOOTH",
"3028 -50 OFFCURVE",
"3050 -28 OFFCURVE",
"3050 0 CURVE SMOOTH",
"3050 28 OFFCURVE",
"3028 50 OFFCURVE",
"3000 50 CURVE SMOOTH",
"870 50 LINE SMOOTH",
"825 50 OFFCURVE",
"802 73 OFFCURVE",
"802 120 CURVE SMOOTH",
"802 1280 LINE SMOOTH",
"802 1388 OFFCURVE",
"740 1450 OFFCURVE",
"632 1450 CURVE SMOOTH",
"332 1450 LINE SMOOTH",
"225 1450 OFFCURVE",
"148 1386 OFFCURVE",
"162 1274 CURVE SMOOTH",
"292 130 LINE SMOOTH",
"295 105 OFFCURVE",
"316 86 OFFCURVE",
"342 86 CURVE SMOOTH",
"373 86 OFFCURVE",
"395 113 OFFCURVE",
"392 142 CURVE SMOOTH",
"262 1286 LINE SMOOTH",
"255 1338 OFFCURVE",
"270 1350 OFFCURVE",
"332 1350 CURVE SMOOTH",
"632 1350 LINE SMOOTH",
"691 1350 OFFCURVE",
"702 1339 OFFCURVE",
"702 1280 CURVE SMOOTH",
"702 -280 LINE SMOOTH",
"702 -339 OFFCURVE",
"691 -350 OFFCURVE",
"632 -350 CURVE SMOOTH",
"324 -350 LINE SMOOTH",
"296 -350 OFFCURVE",
"274 -372 OFFCURVE",
"274 -400 CURVE SMOOTH",
"274 -428 OFFCURVE",
"296 -450 OFFCURVE",
"324 -450 CURVE SMOOTH"
);
}
);
width = 3000;
},
{
anchors = (
{
name = bottom;
position = "{502, -400}";
},
{
name = top;
position = "{502, 1400}";
}
);
layerId = m006;
paths = (
{
closed = 1;
nodes = (
"632 -450 LINE SMOOTH",
"740 -450 OFFCURVE",
"802 -388 OFFCURVE",
"802 -280 CURVE SMOOTH",
"802 -36.044 LINE",
"822.705 -45.048 OFFCURVE",
"845.683 -50 OFFCURVE",
"870 -50 CURVE SMOOTH",
"1000 -50 LINE SMOOTH",
"1028 -50 OFFCURVE",
"1050 -28 OFFCURVE",
"1050 0 CURVE SMOOTH",
"1050 28 OFFCURVE",
"1028 50 OFFCURVE",
"1000 50 CURVE SMOOTH",
"870 50 LINE SMOOTH",
"825 50 OFFCURVE",
"802 73 OFFCURVE",
"802 120 CURVE SMOOTH",
"802 1280 LINE SMOOTH",
"802 1388 OFFCURVE",
"740 1450 OFFCURVE",
"632 1450 CURVE SMOOTH",
"332 1450 LINE SMOOTH",
"225 1450 OFFCURVE",
"148 1386 OFFCURVE",
"162 1274 CURVE SMOOTH",
"292 130 LINE SMOOTH",
"295 105 OFFCURVE",
"316 86 OFFCURVE",
"342 86 CURVE SMOOTH",
"373 86 OFFCURVE",
"395 113 OFFCURVE",
"392 142 CURVE SMOOTH",
"262 1286 LINE SMOOTH",
"255 1338 OFFCURVE",
"270 1350 OFFCURVE",
"332 1350 CURVE SMOOTH",
"632 1350 LINE SMOOTH",
"691 1350 OFFCURVE",
"702 1339 OFFCURVE",
"702 1280 CURVE SMOOTH",
"702 -280 LINE SMOOTH",
"702 -339 OFFCURVE",
"691 -350 OFFCURVE",
"632 -350 CURVE SMOOTH",
"324 -350 LINE SMOOTH",
"296 -350 OFFCURVE",
"274 -372 OFFCURVE",
"274 -400 CURVE SMOOTH",
"274 -428 OFFCURVE",
"296 -450 OFFCURVE",
"324 -450 CURVE SMOOTH"
);
}
);
width = 1000;
},
{
anchors = (
{
name = bottom;
position = "{502, -400}";
},
{
name = top;
position = "{502, 1400}";
}
);
layerId = "2E7AB31B-3074-491A-95D2-A8A197C304C7";
paths = (
{
closed = 1;
nodes = (
"632 -425 LINE SMOOTH",
"726 -425 OFFCURVE",
"777 -374 OFFCURVE",
"777 -280 CURVE SMOOTH",
"777 5 LINE",
"805 -15 OFFCURVE",
"837 -25 OFFCURVE",
"870 -25 CURVE SMOOTH",
"1000 -25 LINE SMOOTH",
"1014 -25 OFFCURVE",
"1025 -14 OFFCURVE",
"1025 0 CURVE SMOOTH",
"1025 14 OFFCURVE",
"1014 25 OFFCURVE",
"1000 25 CURVE SMOOTH",
"870 25 LINE SMOOTH",
"812 25 OFFCURVE",
"777 60 OFFCURVE",
"777 120 CURVE SMOOTH",
"777 1280 LINE SMOOTH",
"777 1374 OFFCURVE",
"726 1425 OFFCURVE",
"632 1425 CURVE SMOOTH",
"332 1425 LINE SMOOTH",
"239 1425 OFFCURVE",
"175 1373 OFFCURVE",
"187 1277 CURVE SMOOTH",
"317 133 LINE SMOOTH",
"319 121 OFFCURVE",
"329 111 OFFCURVE",
"342 111 CURVE SMOOTH",
"358 111 OFFCURVE",
"369 125 OFFCURVE",
"367 140 CURVE SMOOTH",
"237 1283 LINE SMOOTH",
"227 1357 OFFCURVE",
"250 1375 OFFCURVE",
"332 1375 CURVE SMOOTH",
"632 1375 LINE SMOOTH",
"711 1375 OFFCURVE",
"727 1359 OFFCURVE",
"727 1280 CURVE SMOOTH",
"727 -280 LINE SMOOTH",
"727 -359 OFFCURVE",
"711 -375 OFFCURVE",
"632 -375 CURVE SMOOTH",
"324 -375 LINE SMOOTH",
"310 -375 OFFCURVE",
"299 -386 OFFCURVE",
"299 -400 CURVE SMOOTH",
"299 -414 OFFCURVE",
"310 -425 OFFCURVE",
"324 -425 CURVE SMOOTH"
);
}
);
width = 1000;
}
);
leftKerningGroup = J;
rightKerningGroup = J;
unicode = 004A;
},
{
glyphname = K;
lastChange = "2021-05-01 21:13:05 +0000";
layers = (
{
anchors = (
{
name = bottom;
position = "{746, -240}";
},
{
name = top;
position = "{660, 1400}";
}
);
layerId = m003;
paths = (
{
closed = 1;
nodes = (
"524 -340 OFFCURVE",
"568 -296 OFFCURVE",
"568 -240 CURVE SMOOTH",
"568 420 LINE",
"948 420 LINE SMOOTH",
"968 420 OFFCURVE",
"968 420 OFFCURVE",
"968 400 CURVE SMOOTH",
"968 -240 LINE SMOOTH",
"968 -296 OFFCURVE",
"1012 -340 OFFCURVE",
"1068 -340 CURVE SMOOTH",
"1124 -340 OFFCURVE",
"1168 -296 OFFCURVE",
"1168 -240 CURVE SMOOTH",
"1168 -99 LINE",
"1174 -100 OFFCURVE",
"1180 -100 OFFCURVE",
"1186 -100 CURVE SMOOTH",
"1316 -100 LINE SMOOTH",
"1372 -100 OFFCURVE",
"1416 -56 OFFCURVE",
"1416 0 CURVE SMOOTH",
"1416 56 OFFCURVE",
"1372 100 OFFCURVE",
"1316 100 CURVE SMOOTH",
"1186 100 LINE SMOOTH",
"1168 100 OFFCURVE",
"1168 100 OFFCURVE",
"1168 120 CURVE SMOOTH",
"1168 400 LINE SMOOTH",
"1168 536 OFFCURVE",
"1084 620 OFFCURVE",
"948 620 CURVE SMOOTH",
"930 620 LINE",
"1046 1384 LINE SMOOTH",
"1056 1445 OFFCURVE",
"1009 1500 OFFCURVE",
"948 1500 CURVE SMOOTH",
"898 1500 OFFCURVE",
"856 1463 OFFCURVE",
"849 1415 CURVE SMOOTH",
"728 620 LINE",
"568 620 LINE",
"568 1280 LINE SMOOTH",
"568 1405 OFFCURVE",
"487 1492 OFFCURVE",
"365 1500 CURVE",
"68 1500 LINE SMOOTH",
"12 1500 OFFCURVE",
"-32 1456 OFFCURVE",
"-32 1400 CURVE SMOOTH",
"-32 1344 OFFCURVE",
"12 1300 OFFCURVE",
"68 1300 CURVE SMOOTH",
"348 1300 LINE SMOOTH",
"368 1300 OFFCURVE",
"368 1300 OFFCURVE",
"368 1280 CURVE SMOOTH",
"368 620 LINE",
"68 620 LINE SMOOTH",
"12 620 OFFCURVE",
"-32 576 OFFCURVE",
"-32 520 CURVE SMOOTH",
"-32 464 OFFCURVE",
"12 420 OFFCURVE",
"68 420 CURVE SMOOTH",
"368 420 LINE",
"368 -240 LINE SMOOTH",
"368 -296 OFFCURVE",
"412 -340 OFFCURVE",
"468 -340 CURVE SMOOTH"
);
}
);
width = 1316;
},
{
anchors = (
{
name = bottom;
position = "{1015, -240}";
},
{
name = top;
position = "{332, 1400}";
}
);
layerId = m002;
paths = (
{
closed = 1;
nodes = (
"777 -290 OFFCURVE",
"795 -249 OFFCURVE",
"784 -223 CURVE SMOOTH",
"532 470 LINE",
"941 470 LINE SMOOTH",
"1004 470 OFFCURVE",
"1033 449 OFFCURVE",
"1057 383 CURVE",
"1290 -257 LINE",
"1297 -276 OFFCURVE",
"1315 -290 OFFCURVE",
"1337 -290 CURVE SMOOTH",
"1377 -290 OFFCURVE",
"1395 -249 OFFCURVE",
"1384 -223 CURVE SMOOTH",
"1319 -43 LINE",
"1335 -48 OFFCURVE",
"1352 -50 OFFCURVE",
"1368 -50 CURVE SMOOTH",
"1498 -50 LINE SMOOTH",
"1526 -50 OFFCURVE",
"1548 -28 OFFCURVE",
"1548 0 CURVE SMOOTH",
"1548 28 OFFCURVE",
"1526 50 OFFCURVE",
"1498 50 CURVE SMOOTH",
"1368 50 LINE SMOOTH",
"1321 50 OFFCURVE",
"1278 80 OFFCURVE",
"1256 129 CURVE",
"1151 417 LINE",
"1115 516 OFFCURVE",
"1043 570 OFFCURVE",
"941 570 CURVE SMOOTH",
"848 570 LINE",
"669 1410 LINE SMOOTH",
"664 1433 OFFCURVE",
"644 1450 OFFCURVE",
"620 1450 CURVE SMOOTH",
"588 1450 OFFCURVE",
"565 1421 OFFCURVE",
"571 1390 CURVE SMOOTH",
"745 570 LINE",
"495 570 LINE",
"231 1297 LINE SMOOTH",
"198 1387 OFFCURVE",
"125 1444 OFFCURVE",
"35 1450 CURVE SMOOTH",
"-260 1450 LINE SMOOTH",
"-288 1450 OFFCURVE",
"-310 1428 OFFCURVE",
"-310 1400 CURVE SMOOTH",
"-310 1372 OFFCURVE",
"-288 1350 OFFCURVE",
"-260 1350 CURVE SMOOTH",
"20 1350 LINE SMOOTH",
"80 1350 OFFCURVE",
"114 1325 OFFCURVE",
"137 1263 CURVE SMOOTH",
"389 570 LINE",
"61 570 LINE SMOOTH",
"33 570 OFFCURVE",
"11 548 OFFCURVE",
"11 520 CURVE SMOOTH",
"11 492 OFFCURVE",
"33 470 OFFCURVE",
"61 470 CURVE SMOOTH",
"426 470 LINE",
"690 -257 LINE SMOOTH",
"697 -276 OFFCURVE",
"715 -290 OFFCURVE",
"737 -290 CURVE SMOOTH"
);
}
);
width = 1316;
},
{
anchors = (
{
name = bottom;
position = "{477, -240}";
},
{
name = top;
position = "{988, 1400}";
}
);
layerId = m004;
paths = (
{
closed = 1;
nodes = (
"221 -290 OFFCURVE",
"239 -276 OFFCURVE",
"246 -257 CURVE SMOOTH",
"510 470 LINE",
"955 470 LINE SMOOTH",
"985 470 OFFCURVE",
"997 449 OFFCURVE",
"985 417 CURVE",
"752 -223 LINE",
"741 -249 OFFCURVE",
"759 -290 OFFCURVE",
"799 -290 CURVE SMOOTH",
"821 -290 OFFCURVE",
"839 -276 OFFCURVE",
"846 -257 CURVE SMOOTH",
"929 -30 LINE",
"949 -43 OFFCURVE",
"975 -50 OFFCURVE",
"1004 -50 CURVE SMOOTH",
"1134 -50 LINE SMOOTH",
"1162 -50 OFFCURVE",
"1184 -28 OFFCURVE",
"1184 0 CURVE SMOOTH",
"1184 28 OFFCURVE",
"1162 50 OFFCURVE",
"1134 50 CURVE SMOOTH",
"1004 50 LINE SMOOTH",
"975 50 OFFCURVE",
"965 71 OFFCURVE",
"977 103 CURVE SMOOTH",
"1079 383 LINE SMOOTH",
"1121 498 OFFCURVE",
"1068 570 OFFCURVE",
"955 570 CURVE SMOOTH",
"903 570 LINE",
"1320 1377 LINE SMOOTH",
"1336 1405 OFFCURVE",
"1318 1450 OFFCURVE",
"1276 1450 CURVE SMOOTH",
"1257 1450 OFFCURVE",
"1240 1439 OFFCURVE",
"1232 1423 CURVE SMOOTH",
"791 570 LINE",
"547 570 LINE",
"799 1263 LINE SMOOTH",
"838 1369 OFFCURVE",
"790 1443 OFFCURVE",
"691 1449 CURVE SMOOTH",
"396 1450 LINE SMOOTH",
"368 1450 OFFCURVE",
"346 1428 OFFCURVE",
"346 1400 CURVE SMOOTH",
"346 1372 OFFCURVE",
"368 1350 OFFCURVE",
"396 1350 CURVE SMOOTH",
"676 1350 LINE SMOOTH",
"706 1350 OFFCURVE",
"717 1329 OFFCURVE",
"705 1297 CURVE SMOOTH",
"441 570 LINE",
"75 570 LINE SMOOTH",
"47 570 OFFCURVE",
"25 548 OFFCURVE",
"25 520 CURVE SMOOTH",
"25 492 OFFCURVE",
"47 470 OFFCURVE",
"75 470 CURVE SMOOTH",
"404 470 LINE",
"152 -223 LINE SMOOTH",
"141 -249 OFFCURVE",
"159 -290 OFFCURVE",
"199 -290 CURVE SMOOTH"
);
}
);
width = 1316;
},
{
anchors = (
{
name = bottom;
position = "{2746, -240}";
},
{
name = top;
position = "{2660, 1400}";
}
);
layerId = m005;
paths = (
{
closed = 1;
nodes = (
"2496 -290 OFFCURVE",
"2518 -268 OFFCURVE",
"2518 -240 CURVE SMOOTH",
"2518 470 LINE",
"2948 470 LINE SMOOTH",
"3007 470 OFFCURVE",
"3018 459 OFFCURVE",
"3018 400 CURVE SMOOTH",
"3018 -240 LINE SMOOTH",
"3018 -268 OFFCURVE",
"3040 -290 OFFCURVE",
"3068 -290 CURVE SMOOTH",
"3096 -290 OFFCURVE",
"3118 -268 OFFCURVE",
"3118 -240 CURVE SMOOTH",
"3118 -36 LINE",
"3139 -45 OFFCURVE",
"3162 -50 OFFCURVE",
"3186 -50 CURVE SMOOTH",
"5316 -50 LINE SMOOTH",
"5344 -50 OFFCURVE",
"5366 -28 OFFCURVE",
"5366 0 CURVE SMOOTH",
"5366 28 OFFCURVE",
"5344 50 OFFCURVE",
"5316 50 CURVE SMOOTH",
"3186 50 LINE SMOOTH",
"3141 50 OFFCURVE",
"3118 73 OFFCURVE",
"3118 120 CURVE SMOOTH",
"3118 400 LINE SMOOTH",
"3118 508 OFFCURVE",
"3056 570 OFFCURVE",
"2948 570 CURVE SMOOTH",
"2872 570 LINE",
"2997 1392 LINE SMOOTH",
"3002 1423 OFFCURVE",
"2978 1450 OFFCURVE",
"2948 1450 CURVE SMOOTH",
"2923 1450 OFFCURVE",
"2902 1432 OFFCURVE",
"2899 1408 CURVE SMOOTH",
"2771 570 LINE",
"2518 570 LINE",
"2518 1280 LINE SMOOTH",
"2518 1379 OFFCURVE",
"2458 1443 OFFCURVE",
"2363 1450 CURVE SMOOTH",
"68 1450 LINE SMOOTH",
"40 1450 OFFCURVE",
"18 1428 OFFCURVE",
"18 1400 CURVE SMOOTH",
"18 1372 OFFCURVE",
"40 1350 OFFCURVE",
"68 1350 CURVE SMOOTH",
"2348 1350 LINE SMOOTH",
"2403 1350 OFFCURVE",
"2418 1335 OFFCURVE",
"2418 1280 CURVE SMOOTH",
"2418 570 LINE",
"2068 570 LINE SMOOTH",
"2040 570 OFFCURVE",
"2018 548 OFFCURVE",
"2018 520 CURVE SMOOTH",
"2018 492 OFFCURVE",
"2040 470 OFFCURVE",
"2068 470 CURVE SMOOTH",
"2418 470 LINE",
"2418 -240 LINE SMOOTH",
"2418 -268 OFFCURVE",
"2440 -290 OFFCURVE",
"2468 -290 CURVE SMOOTH"
);
}
);
width = 5316;
},
{
anchors = (
{
name = bottom;
position = "{746, -240}";
},
{
name = top;
position = "{660, 1400}";
}
);
layerId = m006;
paths = (
{
closed = 1;
nodes = (
"496 -290 OFFCURVE",
"518 -268 OFFCURVE",
"518 -240 CURVE SMOOTH",
"518 470 LINE",
"948 470 LINE SMOOTH",
"1007 470 OFFCURVE",
"1018 459 OFFCURVE",
"1018 400 CURVE SMOOTH",
"1018 -240 LINE SMOOTH",
"1018 -268 OFFCURVE",
"1040 -290 OFFCURVE",
"1068 -290 CURVE SMOOTH",
"1096 -290 OFFCURVE",
"1118 -268 OFFCURVE",
"1118 -240 CURVE SMOOTH",
"1118 -36.044 LINE",
"1138.705 -45.048 OFFCURVE",
"1161.683 -50 OFFCURVE",
"1186 -50 CURVE SMOOTH",
"1316 -50 LINE SMOOTH",
"1344 -50 OFFCURVE",
"1366 -28 OFFCURVE",
"1366 0 CURVE SMOOTH",
"1366 28 OFFCURVE",
"1344 50 OFFCURVE",
"1316 50 CURVE SMOOTH",
"1186 50 LINE SMOOTH",
"1141 50 OFFCURVE",
"1118 73 OFFCURVE",
"1118 120 CURVE SMOOTH",
"1118 400 LINE SMOOTH",
"1118 508 OFFCURVE",
"1056 570 OFFCURVE",
"948 570 CURVE SMOOTH",
"871.832 570 LINE",
"997 1392 LINE SMOOTH",
"1002 1423 OFFCURVE",
"978 1450 OFFCURVE",
"948 1450 CURVE SMOOTH",
"923 1450 OFFCURVE",
"902 1432 OFFCURVE",
"899 1408 CURVE SMOOTH",
"771.395 570 LINE",
"518 570 LINE",
"518 1280 LINE SMOOTH",
"518 1378.886 OFFCURVE",
"458.331 1443.418 OFFCURVE",
"363.062 1449.525 CURVE SMOOTH",
"68 1450 LINE SMOOTH",
"40 1450 OFFCURVE",
"18 1428 OFFCURVE",
"18 1400 CURVE SMOOTH",
"18 1372 OFFCURVE",
"40 1350 OFFCURVE",
"68 1350 CURVE SMOOTH",
"348 1350 LINE SMOOTH",
"403 1350 OFFCURVE",
"418 1335 OFFCURVE",
"418 1280 CURVE SMOOTH",
"418 570 LINE",
"68 570 LINE SMOOTH",
"40 570 OFFCURVE",
"18 548 OFFCURVE",
"18 520 CURVE SMOOTH",
"18 492 OFFCURVE",
"40 470 OFFCURVE",
"68 470 CURVE SMOOTH",
"418 470 LINE",
"418 -240 LINE SMOOTH",
"418 -268 OFFCURVE",
"440 -290 OFFCURVE",
"468 -290 CURVE SMOOTH"
);
}
);
width = 1316;
},
{
anchors = (
{
name = bottom;
position = "{746, -240}";
},
{
name = top;
position = "{660, 1400}";
}
);
layerId = "2E7AB31B-3074-491A-95D2-A8A197C304C7";
paths = (
{
closed = 1;
nodes = (
"482 -265 OFFCURVE",
"493 -254 OFFCURVE",
"493 -240 CURVE SMOOTH",
"493 495 LINE",
"948 495 LINE SMOOTH",
"1027 495 OFFCURVE",
"1043 479 OFFCURVE",
"1043 400 CURVE SMOOTH",
"1043 -240 LINE SMOOTH",
"1043 -254 OFFCURVE",
"1054 -265 OFFCURVE",
"1068 -265 CURVE SMOOTH",
"1082 -265 OFFCURVE",
"1093 -254 OFFCURVE",
"1093 -240 CURVE SMOOTH",
"1093 5 LINE",
"1121 -15 OFFCURVE",
"1153 -25 OFFCURVE",
"1186 -25 CURVE SMOOTH",
"1316 -25 LINE SMOOTH",
"1330 -25 OFFCURVE",
"1341 -14 OFFCURVE",
"1341 0 CURVE SMOOTH",
"1341 14 OFFCURVE",
"1330 25 OFFCURVE",
"1316 25 CURVE SMOOTH",
"1186 25 LINE SMOOTH",
"1128 25 OFFCURVE",
"1093 60 OFFCURVE",
"1093 120 CURVE SMOOTH",
"1093 400 LINE SMOOTH",
"1093 494 OFFCURVE",
"1042 545 OFFCURVE",
"948 545 CURVE SMOOTH",
"843 545 LINE",
"973 1396 LINE SMOOTH",
"975 1412 OFFCURVE",
"963 1425 OFFCURVE",
"948 1425 CURVE SMOOTH",
"936 1425 OFFCURVE",
"925 1417 OFFCURVE",
"924 1405 CURVE SMOOTH",
"793 545 LINE",
"493 545 LINE",
"493 1280 LINE SMOOTH",
"493 1366 OFFCURVE",
"444 1419 OFFCURVE",
"362 1424 CURVE SMOOTH",
"68 1425 LINE SMOOTH",
"54 1425 OFFCURVE",
"43 1414 OFFCURVE",
"43 1400 CURVE SMOOTH",
"43 1386 OFFCURVE",
"54 1375 OFFCURVE",
"68 1375 CURVE SMOOTH",
"348 1375 LINE SMOOTH",
"421 1375 OFFCURVE",
"443 1353 OFFCURVE",
"443 1280 CURVE SMOOTH",
"443 545 LINE",
"68 545 LINE SMOOTH",
"54 545 OFFCURVE",
"43 534 OFFCURVE",
"43 520 CURVE SMOOTH",
"43 506 OFFCURVE",
"54 495 OFFCURVE",
"68 495 CURVE SMOOTH",
"443 495 LINE",
"443 -240 LINE SMOOTH",
"443 -254 OFFCURVE",
"454 -265 OFFCURVE",
"468 -265 CURVE SMOOTH"
);
}
);
width = 1316;
}
);
leftKerningGroup = H;
rightKerningGroup = K;
unicode = 004B;
},
{
glyphname = L;
lastChange = "2021-05-01 21:13:05 +0000";
layers = (
{
anchors = (
{
name = bottom;
position = "{532, -240}";
},
{
name = center;
position = "{472, 700}";
},
{
name = top;
position = "{472, 1400}";
},
{
name = topright;
position = "{548, 1400}";
}
);
layerId = m003;
paths = (
{
closed = 1;
nodes = (
"768 -340 LINE SMOOTH",
"904 -340 OFFCURVE",
"988 -256 OFFCURVE",
"988 -120 CURVE SMOOTH",
"988 -99 LINE",
"994 -100 OFFCURVE",
"1000 -100 OFFCURVE",
"1006 -100 CURVE SMOOTH",
"1056 -100 LINE SMOOTH",
"1112 -100 OFFCURVE",
"1156 -56 OFFCURVE",
"1156 0 CURVE SMOOTH",
"1156 56 OFFCURVE",
"1112 100 OFFCURVE",
"1056 100 CURVE SMOOTH",
"1006 100 LINE SMOOTH",
"988 100 OFFCURVE",
"988 100 OFFCURVE",
"988 120 CURVE SMOOTH",
"988 180 LINE SMOOTH",
"988 236 OFFCURVE",
"944 280 OFFCURVE",
"888 280 CURVE SMOOTH",
"832 280 OFFCURVE",
"788 236 OFFCURVE",
"788 180 CURVE SMOOTH",
"788 -120 LINE SMOOTH",
"788 -140 OFFCURVE",
"788 -140 OFFCURVE",
"768 -140 CURVE SMOOTH",
"387 -140 LINE",
"388 -133 OFFCURVE",
"388 -127 OFFCURVE",
"388 -120 CURVE SMOOTH",
"388 1280 LINE SMOOTH",
"388 1300 OFFCURVE",
"388 1300 OFFCURVE",
"408 1300 CURVE SMOOTH",
"568 1300 LINE SMOOTH",
"624 1300 OFFCURVE",
"668 1344 OFFCURVE",
"668 1400 CURVE SMOOTH",
"668 1456 OFFCURVE",
"624 1500 OFFCURVE",
"568 1500 CURVE SMOOTH",
"408 1500 LINE SMOOTH",
"272 1500 OFFCURVE",
"188 1416 OFFCURVE",
"188 1280 CURVE SMOOTH",
"188 -120 LINE SMOOTH",
"188 -140 OFFCURVE",
"188 -140 OFFCURVE",
"168 -140 CURVE SMOOTH",
"68 -140 LINE SMOOTH",
"12 -140 OFFCURVE",
"-32 -184 OFFCURVE",
"-32 -240 CURVE SMOOTH",
"-32 -296 OFFCURVE",
"12 -340 OFFCURVE",
"68 -340 CURVE SMOOTH"
);
}
);
width = 1056;
},
{
anchors = (
{
name = bottom;
position = "{801, -240}";
},
{
name = center;
position = "{399, 700}";
},
{
name = top;
position = "{144, 1400}";
},
{
name = topright;
position = "{220, 1400}";
}
);
layerId = m002;
paths = (
{
closed = 1;
nodes = (
"1037 -290 LINE SMOOTH",
"1151 -290 OFFCURVE",
"1203 -217 OFFCURVE",
"1160 -103 CURVE SMOOTH",
"1138 -43 LINE",
"1155 -48 OFFCURVE",
"1171 -50 OFFCURVE",
"1188 -50 CURVE SMOOTH",
"1238 -50 LINE SMOOTH",
"1266 -50 OFFCURVE",
"1288 -28 OFFCURVE",
"1288 0 CURVE SMOOTH",
"1288 28 OFFCURVE",
"1266 50 OFFCURVE",
"1238 50 CURVE SMOOTH",
"1188 50 LINE SMOOTH",
"1138 50 OFFCURVE",
"1093 83 OFFCURVE",
"1073 137 CURVE SMOOTH",
"1051 197 LINE SMOOTH",
"1044 216 OFFCURVE",
"1026 230 OFFCURVE",
"1004 230 CURVE SMOOTH",
"964 230 OFFCURVE",
"946 189 OFFCURVE",
"957 163 CURVE SMOOTH",
"1066 -137 LINE SMOOTH",
"1078 -169 OFFCURVE",
"1067 -190 OFFCURVE",
"1037 -190 CURVE SMOOTH",
"574 -190 LINE",
"577 -165 OFFCURVE",
"572 -136 OFFCURVE",
"560 -103 CURVE SMOOTH",
"51 1297 LINE SMOOTH",
"39 1329 OFFCURVE",
"51 1350 OFFCURVE",
"80 1350 CURVE SMOOTH",
"240 1350 LINE SMOOTH",
"268 1350 OFFCURVE",
"290 1372 OFFCURVE",
"290 1400 CURVE SMOOTH",
"290 1428 OFFCURVE",
"268 1450 OFFCURVE",
"240 1450 CURVE SMOOTH",
"80 1450 LINE SMOOTH",
"-32 1450 OFFCURVE",
"-85 1379 OFFCURVE",
"-43 1263 CURVE SMOOTH",
"466 -137 LINE SMOOTH",
"486 -190 OFFCURVE",
"486 -190 OFFCURVE",
"437 -190 CURVE SMOOTH",
"337 -190 LINE SMOOTH",
"309 -190 OFFCURVE",
"287 -212 OFFCURVE",
"287 -240 CURVE SMOOTH",
"287 -268 OFFCURVE",
"309 -290 OFFCURVE",
"337 -290 CURVE SMOOTH"
);
}
);
width = 1056;
},
{
anchors = (
{
name = bottom;
position = "{263, -240}";
},
{
name = center;
position = "{545, 700}";
},
{
name = top;
position = "{800, 1400}";
},
{
name = topright;
position = "{876, 1400}";
}
);
layerId = m004;
paths = (
{
closed = 1;
nodes = (
"499 -290 LINE SMOOTH",
"601 -290 OFFCURVE",
"673 -236 OFFCURVE",
"710 -137 CURVE SMOOTH",
"749 -30 LINE",
"770 -43 OFFCURVE",
"795 -50 OFFCURVE",
"824 -50 CURVE SMOOTH",
"874 -50 LINE SMOOTH",
"902 -50 OFFCURVE",
"924 -28 OFFCURVE",
"924 0 CURVE SMOOTH",
"924 28 OFFCURVE",
"902 50 OFFCURVE",
"874 50 CURVE SMOOTH",
"824 50 LINE SMOOTH",
"790 50 OFFCURVE",
"782 56 OFFCURVE",
"792 88 CURVE SMOOTH",
"819 163 LINE SMOOTH",
"830 189 OFFCURVE",
"812 230 OFFCURVE",
"772 230 CURVE SMOOTH",
"750 230 OFFCURVE",
"732 216 OFFCURVE",
"725 197 CURVE",
"616 -103 LINE",
"591 -169 OFFCURVE",
"562 -190 OFFCURVE",
"499 -190 CURVE SMOOTH",
"84 -190 LINE",
"94 -174 OFFCURVE",
"103 -156 OFFCURVE",
"110 -137 CURVE SMOOTH",
"619 1263 LINE SMOOTH",
"643 1329 OFFCURVE",
"672 1350 OFFCURVE",
"736 1350 CURVE SMOOTH",
"896 1350 LINE SMOOTH",
"924 1350 OFFCURVE",
"946 1372 OFFCURVE",
"946 1400 CURVE SMOOTH",
"946 1428 OFFCURVE",
"924 1450 OFFCURVE",
"896 1450 CURVE SMOOTH",
"736 1450 LINE SMOOTH",
"635 1450 OFFCURVE",
"561 1396 OFFCURVE",
"525 1297 CURVE SMOOTH",
"16 -103 LINE SMOOTH",
"-9 -169 OFFCURVE",
"-38 -190 OFFCURVE",
"-101 -190 CURVE SMOOTH",
"-201 -190 LINE SMOOTH",
"-229 -190 OFFCURVE",
"-251 -212 OFFCURVE",
"-251 -240 CURVE SMOOTH",
"-251 -268 OFFCURVE",
"-229 -290 OFFCURVE",
"-201 -290 CURVE SMOOTH"
);
}
);
width = 1056;
},
{
anchors = (
{
name = bottom;
position = "{532, -240}";
},
{
name = center;
position = "{472, 700}";
},
{
name = top;
position = "{472, 1400}";
},
{
name = topright;
position = "{548, 1400}";
}
);
layerId = m005;
paths = (
{
closed = 1;
nodes = (
"768 -290 LINE SMOOTH",
"876 -290 OFFCURVE",
"938 -228 OFFCURVE",
"938 -120 CURVE SMOOTH",
"938 -36.044 LINE",
"958.705 -45.048 OFFCURVE",
"981.683 -50 OFFCURVE",
"1006 -50 CURVE SMOOTH",
"3056 -50 LINE SMOOTH",
"3084 -50 OFFCURVE",
"3106 -28 OFFCURVE",
"3106 0 CURVE SMOOTH",
"3106 28 OFFCURVE",
"3084 50 OFFCURVE",
"3056 50 CURVE SMOOTH",
"1006 50 LINE SMOOTH",
"961 50 OFFCURVE",
"938 73 OFFCURVE",
"938 120 CURVE SMOOTH",
"938 180 LINE SMOOTH",
"938 208 OFFCURVE",
"916 230 OFFCURVE",
"888 230 CURVE SMOOTH",
"860 230 OFFCURVE",
"838 208 OFFCURVE",
"838 180 CURVE SMOOTH",
"838 -120 LINE SMOOTH",
"838 -179 OFFCURVE",
"827 -190 OFFCURVE",
"768 -190 CURVE SMOOTH",
"327.368 -190 LINE",
"334.381 -169.502 OFFCURVE",
"338 -146.094 OFFCURVE",
"338 -120 CURVE SMOOTH",
"338 1280 LINE SMOOTH",
"338 1339 OFFCURVE",
"349 1350 OFFCURVE",
"408 1350 CURVE SMOOTH",
"568 1350 LINE SMOOTH",
"596 1350 OFFCURVE",
"618 1372 OFFCURVE",
"618 1400 CURVE SMOOTH",
"618 1428 OFFCURVE",
"596 1450 OFFCURVE",
"568 1450 CURVE SMOOTH",
"408 1450 LINE SMOOTH",
"300 1450 OFFCURVE",
"238 1388 OFFCURVE",
"238 1280 CURVE SMOOTH",
"238 -120 LINE SMOOTH",
"238 -179 OFFCURVE",
"227 -190 OFFCURVE",
"168 -190 CURVE SMOOTH",
"68 -190 LINE SMOOTH",
"40 -190 OFFCURVE",
"18 -212 OFFCURVE",
"18 -240 CURVE SMOOTH",
"18 -268 OFFCURVE",
"40 -290 OFFCURVE",
"68 -290 CURVE SMOOTH"
);
}
);
width = 3056;
},
{
anchors = (
{
name = bottom;
position = "{532, -240}";
},
{
name = center;
position = "{472, 700}";
},
{
name = top;
position = "{472, 1400}";
},
{
name = topright;
position = "{548, 1400}";
}
);
layerId = m006;
paths = (
{
closed = 1;
nodes = (
"768 -290 LINE SMOOTH",
"876 -290 OFFCURVE",
"938 -228 OFFCURVE",
"938 -120 CURVE SMOOTH",
"938 -36.044 LINE",
"958.705 -45.048 OFFCURVE",
"981.683 -50 OFFCURVE",
"1006 -50 CURVE SMOOTH",
"1056 -50 LINE SMOOTH",
"1084 -50 OFFCURVE",
"1106 -28 OFFCURVE",
"1106 0 CURVE SMOOTH",
"1106 28 OFFCURVE",
"1084 50 OFFCURVE",
"1056 50 CURVE SMOOTH",
"1006 50 LINE SMOOTH",
"961 50 OFFCURVE",
"938 73 OFFCURVE",
"938 120 CURVE SMOOTH",
"938 180 LINE SMOOTH",
"938 208 OFFCURVE",
"916 230 OFFCURVE",
"888 230 CURVE SMOOTH",
"860 230 OFFCURVE",
"838 208 OFFCURVE",
"838 180 CURVE SMOOTH",
"838 -120 LINE SMOOTH",
"838 -179 OFFCURVE",
"827 -190 OFFCURVE",
"768 -190 CURVE SMOOTH",
"327.368 -190 LINE",
"334.381 -169.502 OFFCURVE",
"338 -146.094 OFFCURVE",
"338 -120 CURVE SMOOTH",
"338 1280 LINE SMOOTH",
"338 1339 OFFCURVE",
"349 1350 OFFCURVE",
"408 1350 CURVE SMOOTH",
"568 1350 LINE SMOOTH",
"596 1350 OFFCURVE",
"618 1372 OFFCURVE",
"618 1400 CURVE SMOOTH",
"618 1428 OFFCURVE",
"596 1450 OFFCURVE",
"568 1450 CURVE SMOOTH",
"408 1450 LINE SMOOTH",
"300 1450 OFFCURVE",
"238 1388 OFFCURVE",
"238 1280 CURVE SMOOTH",
"238 -120 LINE SMOOTH",
"238 -179 OFFCURVE",
"227 -190 OFFCURVE",
"168 -190 CURVE SMOOTH",
"68 -190 LINE SMOOTH",
"40 -190 OFFCURVE",
"18 -212 OFFCURVE",
"18 -240 CURVE SMOOTH",
"18 -268 OFFCURVE",
"40 -290 OFFCURVE",
"68 -290 CURVE SMOOTH"
);
}
);
width = 1056;
},
{
anchors = (
{
name = bottom;
position = "{532, -240}";
},
{
name = center;
position = "{472, 700}";
},
{
name = top;
position = "{472, 1400}";
},
{
name = topright;
position = "{548, 1400}";
}
);
layerId = "2E7AB31B-3074-491A-95D2-A8A197C304C7";
paths = (
{
closed = 1;
nodes = (
"768 -265 LINE SMOOTH",
"862 -265 OFFCURVE",
"913 -214 OFFCURVE",
"913 -120 CURVE SMOOTH",
"913 5 LINE",
"941 -17 OFFCURVE",
"973 -25 OFFCURVE",
"1006 -25 CURVE SMOOTH",
"1056 -25 LINE SMOOTH",
"1070 -25 OFFCURVE",
"1081 -14 OFFCURVE",
"1081 0 CURVE SMOOTH",
"1081 14 OFFCURVE",
"1070 25 OFFCURVE",
"1056 25 CURVE SMOOTH",
"1006 25 LINE SMOOTH",
"948 25 OFFCURVE",
"913 60 OFFCURVE",
"913 120 CURVE SMOOTH",
"913 180 LINE SMOOTH",
"913 194 OFFCURVE",
"902 205 OFFCURVE",
"888 205 CURVE SMOOTH",
"874 205 OFFCURVE",
"863 194 OFFCURVE",
"863 180 CURVE SMOOTH",
"863 -120 LINE SMOOTH",
"863 -199 OFFCURVE",
"847 -215 OFFCURVE",
"768 -215 CURVE SMOOTH",
"298 -215 LINE",
"308 -188 OFFCURVE",
"313 -156 OFFCURVE",
"313 -120 CURVE SMOOTH",
"313 1280 LINE SMOOTH",
"313 1359 OFFCURVE",
"330 1375 OFFCURVE",
"408 1375 CURVE SMOOTH",
"568 1375 LINE SMOOTH",
"582 1375 OFFCURVE",
"593 1386 OFFCURVE",
"593 1400 CURVE SMOOTH",
"593 1414 OFFCURVE",
"582 1425 OFFCURVE",
"568 1425 CURVE SMOOTH",
"408 1425 LINE SMOOTH",
"314 1425 OFFCURVE",
"263 1374 OFFCURVE",
"263 1280 CURVE SMOOTH",
"263 -120 LINE SMOOTH",
"263 -199 OFFCURVE",
"247 -215 OFFCURVE",
"168 -215 CURVE SMOOTH",
"68 -215 LINE SMOOTH",
"54 -215 OFFCURVE",
"43 -226 OFFCURVE",
"43 -240 CURVE SMOOTH",
"43 -254 OFFCURVE",
"54 -265 OFFCURVE",
"68 -265 CURVE SMOOTH"
);
}
);
width = 1056;
}
);
leftKerningGroup = L;
rightKerningGroup = L;
unicode = 004C;
},
{
glyphname = Lslash;
lastChange = "2021-05-01 21:13:05 +0000";
layers = (
{
components = (
{
name = L;
}
);
layerId = m003;
paths = (
{
closed = 1;
nodes = (
"7 481 LINE SMOOTH",
"-24 464 OFFCURVE",
"-44 430 OFFCURVE",
"-44 394 CURVE SMOOTH",
"-44 338 OFFCURVE",
"0 294 OFFCURVE",
"56 294 CURVE SMOOTH",
"74 294 OFFCURVE",
"93 299 OFFCURVE",
"108 309 CURVE",
"699 651 LINE SMOOTH",
"730 668 OFFCURVE",
"750 702 OFFCURVE",
"750 738 CURVE SMOOTH",
"750 794 OFFCURVE",
"706 838 OFFCURVE",
"650 838 CURVE SMOOTH",
"632 838 OFFCURVE",
"613 833 OFFCURVE",
"598 823 CURVE"
);
}
);
width = 1056;
},
{
components = (
{
name = L;
}
);
layerId = m002;
paths = (
{
closed = 1;
nodes = (
"64 434 LINE SMOOTH",
"52 425 OFFCURVE",
"44 411 OFFCURVE",
"44 394 CURVE SMOOTH",
"44 366 OFFCURVE",
"66 344 OFFCURVE",
"94 344 CURVE SMOOTH",
"105 344 OFFCURVE",
"115 348 OFFCURVE",
"124 354 CURVE SMOOTH",
"593 698 LINE SMOOTH",
"605 707 OFFCURVE",
"613 721 OFFCURVE",
"613 738 CURVE SMOOTH",
"613 766 OFFCURVE",
"591 788 OFFCURVE",
"563 788 CURVE SMOOTH",
"552 788 OFFCURVE",
"542 784 OFFCURVE",
"533 778 CURVE SMOOTH"
);
}
);
width = 1056;
},
{
components = (
{
name = L;
}
);
layerId = m004;
paths = (
{
closed = 1;
nodes = (
"-4 439 LINE SMOOTH",
"-20 431 OFFCURVE",
"-32 414 OFFCURVE",
"-32 394 CURVE SMOOTH",
"-32 366 OFFCURVE",
"-10 344 OFFCURVE",
"18 344 CURVE SMOOTH",
"26 344 OFFCURVE",
"33 346 OFFCURVE",
"40 349 CURVE SMOOTH",
"759 693 LINE SMOOTH",
"775 701 OFFCURVE",
"787 718 OFFCURVE",
"787 738 CURVE SMOOTH",
"787 766 OFFCURVE",
"765 788 OFFCURVE",
"737 788 CURVE SMOOTH",
"729 788 OFFCURVE",
"722 786 OFFCURVE",
"715 783 CURVE SMOOTH"
);
}
);
width = 1056;
},
{
components = (
{
name = L;
}
);
layerId = m005;
paths = (
{
closed = 1;
nodes = (
"31 437 LINE SMOOTH",
"16 429 OFFCURVE",
"6 412 OFFCURVE",
"6 394 CURVE SMOOTH",
"6 366 OFFCURVE",
"28 344 OFFCURVE",
"56 344 CURVE SMOOTH",
"65 344 OFFCURVE",
"74 346 OFFCURVE",
"81 351 CURVE",
"675 695 LINE SMOOTH",
"690 703 OFFCURVE",
"700 720 OFFCURVE",
"700 738 CURVE SMOOTH",
"700 766 OFFCURVE",
"678 788 OFFCURVE",
"650 788 CURVE SMOOTH",
"641 788 OFFCURVE",
"632 786 OFFCURVE",
"625 781 CURVE"
);
}
);
width = 3056;
},
{
components = (
{
name = L;
}
);
layerId = m006;
paths = (
{
closed = 1;
nodes = (
"31 437 LINE SMOOTH",
"16 429 OFFCURVE",
"6 412 OFFCURVE",
"6 394 CURVE SMOOTH",
"6 366 OFFCURVE",
"28 344 OFFCURVE",
"56 344 CURVE SMOOTH",
"65 344 OFFCURVE",
"74 346 OFFCURVE",
"81 351 CURVE",
"675 695 LINE SMOOTH",
"690 703 OFFCURVE",
"700 720 OFFCURVE",
"700 738 CURVE SMOOTH",
"700 766 OFFCURVE",
"678 788 OFFCURVE",
"650 788 CURVE SMOOTH",
"641 788 OFFCURVE",
"632 786 OFFCURVE",
"625 781 CURVE"
);
}
);
width = 1056;
},
{
components = (
{
alignment = -1;
name = L;
}
);
layerId = "2E7AB31B-3074-491A-95D2-A8A197C304C7";
paths = (
{
closed = 1;
nodes = (
"43 415 LINE SMOOTH",
"36 412 OFFCURVE",
"31 403 OFFCURVE",
"31 394 CURVE SMOOTH",
"31 380 OFFCURVE",
"42 369 OFFCURVE",
"56 369 CURVE SMOOTH",
"61 369 OFFCURVE",
"65 370 OFFCURVE",
"68 372 CURVE",
"663 717 LINE SMOOTH",
"670 721 OFFCURVE",
"675 729 OFFCURVE",
"675 738 CURVE SMOOTH",
"675 752 OFFCURVE",
"664 763 OFFCURVE",
"650 763 CURVE SMOOTH",
"646 763 OFFCURVE",
"642 763 OFFCURVE",
"639 760 CURVE"
);
}
);
width = 1056;
}
);
leftKerningGroup = L;
rightKerningGroup = L;
unicode = 0141;
},
{
glyphname = M;
lastChange = "2021-05-01 21:13:05 +0000";
layers = (
{
anchors = (
{
name = bottom;
position = "{888, -240}";
},
{
name = top;
position = "{888, 1400}";
}
);
layerId = m003;
paths = (
{
closed = 1;
nodes = (
"424 -340 OFFCURVE",
"468 -296 OFFCURVE",
"468 -240 CURVE SMOOTH",
"468 1300 LINE",
"768 1300 LINE SMOOTH",
"788 1300 OFFCURVE",
"788 1300 OFFCURVE",
"788 1280 CURVE SMOOTH",
"788 -240 LINE SMOOTH",
"788 -296 OFFCURVE",
"832 -340 OFFCURVE",
"888 -340 CURVE SMOOTH",
"944 -340 OFFCURVE",
"988 -296 OFFCURVE",
"988 -240 CURVE SMOOTH",
"988 1280 LINE SMOOTH",
"988 1300 OFFCURVE",
"988 1300 OFFCURVE",
"1008 1300 CURVE SMOOTH",
"1288 1300 LINE SMOOTH",
"1308 1300 OFFCURVE",
"1308 1300 OFFCURVE",
"1308 1280 CURVE SMOOTH",
"1308 -240 LINE SMOOTH",
"1308 -296 OFFCURVE",
"1352 -340 OFFCURVE",
"1408 -340 CURVE SMOOTH",
"1464 -340 OFFCURVE",
"1508 -296 OFFCURVE",
"1508 -240 CURVE SMOOTH",
"1508 -99 LINE",
"1514 -100 OFFCURVE",
"1520 -100 OFFCURVE",
"1526 -100 CURVE SMOOTH",
"1676 -100 LINE SMOOTH",
"1732 -100 OFFCURVE",
"1776 -56 OFFCURVE",
"1776 0 CURVE SMOOTH",
"1776 56 OFFCURVE",
"1732 100 OFFCURVE",
"1676 100 CURVE SMOOTH",
"1526 100 LINE SMOOTH",
"1508 100 OFFCURVE",
"1508 100 OFFCURVE",
"1508 120 CURVE SMOOTH",
"1508 1280 LINE SMOOTH",
"1508 1416 OFFCURVE",
"1424 1500 OFFCURVE",
"1288 1500 CURVE SMOOTH",
"1008 1500 LINE SMOOTH",
"963 1500 OFFCURVE",
"922 1490 OFFCURVE",
"888 1472 CURVE",
"854 1490 OFFCURVE",
"813 1500 OFFCURVE",
"768 1500 CURVE SMOOTH",
"68 1500 LINE SMOOTH",
"12 1500 OFFCURVE",
"-32 1456 OFFCURVE",
"-32 1400 CURVE SMOOTH",
"-32 1344 OFFCURVE",
"12 1300 OFFCURVE",
"68 1300 CURVE SMOOTH",
"268 1300 LINE",
"268 -240 LINE SMOOTH",
"268 -296 OFFCURVE",
"312 -340 OFFCURVE",
"368 -340 CURVE SMOOTH"
);
}
);
width = 1676;
},
{
anchors = (
{
name = bottom;
position = "{1157, -240}";
},
{
name = top;
position = "{560, 1400}";
}
);
layerId = m002;
paths = (
{
closed = 1;
nodes = (
"677 -290 OFFCURVE",
"695 -249 OFFCURVE",
"684 -223 CURVE SMOOTH",
"111 1350 LINE",
"440 1350 LINE SMOOTH",
"504 1350 OFFCURVE",
"533 1329 OFFCURVE",
"557 1263 CURVE SMOOTH",
"1110 -257 LINE SMOOTH",
"1117 -276 OFFCURVE",
"1135 -290 OFFCURVE",
"1157 -290 CURVE SMOOTH",
"1197 -290 OFFCURVE",
"1215 -249 OFFCURVE",
"1204 -223 CURVE SMOOTH",
"651 1297 LINE SMOOTH",
"639 1329 OFFCURVE",
"651 1350 OFFCURVE",
"680 1350 CURVE SMOOTH",
"960 1350 LINE SMOOTH",
"1024 1350 OFFCURVE",
"1053 1329 OFFCURVE",
"1077 1263 CURVE",
"1630 -257 LINE",
"1637 -276 OFFCURVE",
"1655 -290 OFFCURVE",
"1677 -290 CURVE SMOOTH",
"1717 -290 OFFCURVE",
"1735 -249 OFFCURVE",
"1724 -223 CURVE SMOOTH",
"1659 -43 LINE",
"1675 -48 OFFCURVE",
"1691 -50 OFFCURVE",
"1708 -50 CURVE SMOOTH",
"1858 -50 LINE SMOOTH",
"1886 -50 OFFCURVE",
"1908 -28 OFFCURVE",
"1908 0 CURVE SMOOTH",
"1908 28 OFFCURVE",
"1886 50 OFFCURVE",
"1858 50 CURVE SMOOTH",
"1708 50 LINE SMOOTH",
"1659 50 OFFCURVE",
"1614 82 OFFCURVE",
"1594 135 CURVE SMOOTH",
"1171 1297 LINE SMOOTH",
"1135 1396 OFFCURVE",
"1061 1450 OFFCURVE",
"960 1450 CURVE SMOOTH",
"680 1450 LINE SMOOTH",
"631 1450 OFFCURVE",
"593 1436 OFFCURVE",
"569 1411 CURVE",
"534 1437 OFFCURVE",
"490 1450 OFFCURVE",
"440 1450 CURVE SMOOTH",
"-260 1450 LINE SMOOTH",
"-288 1450 OFFCURVE",
"-310 1428 OFFCURVE",
"-310 1400 CURVE SMOOTH",
"-310 1372 OFFCURVE",
"-288 1350 OFFCURVE",
"-260 1350 CURVE SMOOTH",
"5 1350 LINE",
"590 -257 LINE SMOOTH",
"597 -276 OFFCURVE",
"615 -290 OFFCURVE",
"637 -290 CURVE SMOOTH"
);
}
);
width = 1676;
},
{
anchors = (
{
name = bottom;
position = "{619, -240}";
},
{
name = top;
position = "{1216, 1400}";
}
);
layerId = m004;
paths = (
{
closed = 1;
nodes = (
"121 -290 OFFCURVE",
"139 -276 OFFCURVE",
"146 -257 CURVE SMOOTH",
"731 1350 LINE",
"1096 1350 LINE SMOOTH",
"1125 1350 OFFCURVE",
"1137 1329 OFFCURVE",
"1125 1297 CURVE SMOOTH",
"572 -223 LINE SMOOTH",
"561 -249 OFFCURVE",
"579 -290 OFFCURVE",
"619 -290 CURVE SMOOTH",
"641 -290 OFFCURVE",
"659 -276 OFFCURVE",
"666 -257 CURVE SMOOTH",
"1219 1263 LINE SMOOTH",
"1243 1329 OFFCURVE",
"1272 1350 OFFCURVE",
"1336 1350 CURVE SMOOTH",
"1616 1350 LINE SMOOTH",
"1645 1350 OFFCURVE",
"1657 1329 OFFCURVE",
"1645 1297 CURVE SMOOTH",
"1092 -223 LINE SMOOTH",
"1081 -249 OFFCURVE",
"1099 -290 OFFCURVE",
"1139 -290 CURVE SMOOTH",
"1161 -290 OFFCURVE",
"1179 -276 OFFCURVE",
"1186 -257 CURVE SMOOTH",
"1269 -30 LINE",
"1290 -43 OFFCURVE",
"1315 -50 OFFCURVE",
"1344 -50 CURVE SMOOTH",
"1494 -50 LINE SMOOTH",
"1522 -50 OFFCURVE",
"1544 -28 OFFCURVE",
"1544 0 CURVE SMOOTH",
"1544 28 OFFCURVE",
"1522 50 OFFCURVE",
"1494 50 CURVE SMOOTH",
"1344 50 LINE SMOOTH",
"1316 50 OFFCURVE",
"1305 68 OFFCURVE",
"1315 96 CURVE",
"1739 1263 LINE",
"1781 1379 OFFCURVE",
"1728 1450 OFFCURVE",
"1616 1450 CURVE SMOOTH",
"1336 1450 LINE SMOOTH",
"1286 1450 OFFCURVE",
"1242 1437 OFFCURVE",
"1207 1411 CURVE",
"1183 1436 OFFCURVE",
"1145 1450 OFFCURVE",
"1096 1450 CURVE",
"396 1450 LINE",
"368 1450 OFFCURVE",
"346 1428 OFFCURVE",
"346 1400 CURVE SMOOTH",
"346 1372 OFFCURVE",
"368 1350 OFFCURVE",
"396 1350 CURVE SMOOTH",
"625 1350 LINE",
"52 -223 LINE SMOOTH",
"41 -249 OFFCURVE",
"59 -290 OFFCURVE",
"99 -290 CURVE SMOOTH"
);
}
);
width = 1676;
},
{
anchors = (
{
name = bottom;
position = "{2888, -240}";
},
{
name = top;
position = "{2888, 1400}";
}
);
layerId = m005;
paths = (
{
closed = 1;
nodes = (
"2396 -290 OFFCURVE",
"2418 -268 OFFCURVE",
"2418 -240 CURVE SMOOTH",
"2418 1350 LINE",
"2768 1350 LINE SMOOTH",
"2827 1350 OFFCURVE",
"2838 1339 OFFCURVE",
"2838 1280 CURVE SMOOTH",
"2838 -240 LINE SMOOTH",
"2838 -268 OFFCURVE",
"2860 -290 OFFCURVE",
"2888 -290 CURVE SMOOTH",
"2916 -290 OFFCURVE",
"2938 -268 OFFCURVE",
"2938 -240 CURVE SMOOTH",
"2938 1280 LINE SMOOTH",
"2938 1339 OFFCURVE",
"2949 1350 OFFCURVE",
"3008 1350 CURVE SMOOTH",
"3288 1350 LINE SMOOTH",
"3347 1350 OFFCURVE",
"3358 1339 OFFCURVE",
"3358 1280 CURVE SMOOTH",
"3358 -240 LINE SMOOTH",
"3358 -268 OFFCURVE",
"3380 -290 OFFCURVE",
"3408 -290 CURVE SMOOTH",
"3436 -290 OFFCURVE",
"3458 -268 OFFCURVE",
"3458 -240 CURVE SMOOTH",
"3458 -36 LINE",
"3479 -45 OFFCURVE",
"3502 -50 OFFCURVE",
"3526 -50 CURVE SMOOTH",
"5676 -50 LINE SMOOTH",
"5704 -50 OFFCURVE",
"5726 -28 OFFCURVE",
"5726 0 CURVE SMOOTH",
"5726 28 OFFCURVE",
"5704 50 OFFCURVE",
"5676 50 CURVE SMOOTH",
"3526 50 LINE SMOOTH",
"3481 50 OFFCURVE",
"3458 73 OFFCURVE",
"3458 120 CURVE SMOOTH",
"3458 1280 LINE SMOOTH",
"3458 1388 OFFCURVE",
"3396 1450 OFFCURVE",
"3288 1450 CURVE SMOOTH",
"3008 1450 LINE SMOOTH",
"2957 1450 OFFCURVE",
"2917 1436 OFFCURVE",
"2888 1411 CURVE",
"2859 1436 OFFCURVE",
"2819 1450 OFFCURVE",
"2768 1450 CURVE",
"68 1450 LINE",
"40 1450 OFFCURVE",
"18 1428 OFFCURVE",
"18 1400 CURVE SMOOTH",
"18 1372 OFFCURVE",
"40 1350 OFFCURVE",
"68 1350 CURVE SMOOTH",
"2318 1350 LINE",
"2318 -240 LINE SMOOTH",
"2318 -268 OFFCURVE",
"2340 -290 OFFCURVE",
"2368 -290 CURVE SMOOTH"
);
}
);
width = 5676;
},
{
anchors = (
{
name = bottom;
position = "{888, -240}";
},
{
name = top;
position = "{888, 1400}";
}
);
layerId = m006;
paths = (
{
closed = 1;
nodes = (
"396 -290 OFFCURVE",
"418 -268 OFFCURVE",
"418 -240 CURVE SMOOTH",
"418 1350 LINE",
"768 1350 LINE SMOOTH",
"827 1350 OFFCURVE",
"838 1339 OFFCURVE",
"838 1280 CURVE SMOOTH",
"838 -240 LINE SMOOTH",
"838 -268 OFFCURVE",
"860 -290 OFFCURVE",
"888 -290 CURVE SMOOTH",
"916 -290 OFFCURVE",
"938 -268 OFFCURVE",
"938 -240 CURVE SMOOTH",
"938 1280 LINE SMOOTH",
"938 1339 OFFCURVE",
"949 1350 OFFCURVE",
"1008 1350 CURVE SMOOTH",
"1288 1350 LINE SMOOTH",
"1347 1350 OFFCURVE",
"1358 1339 OFFCURVE",
"1358 1280 CURVE SMOOTH",
"1358 -240 LINE SMOOTH",
"1358 -268 OFFCURVE",
"1380 -290 OFFCURVE",
"1408 -290 CURVE SMOOTH",
"1436 -290 OFFCURVE",
"1458 -268 OFFCURVE",
"1458 -240 CURVE SMOOTH",
"1458 -36.044 LINE",
"1478.705 -45.048 OFFCURVE",
"1501.683 -50 OFFCURVE",
"1526 -50 CURVE SMOOTH",
"1676 -50 LINE SMOOTH",
"1704 -50 OFFCURVE",
"1726 -28 OFFCURVE",
"1726 0 CURVE SMOOTH",
"1726 28 OFFCURVE",
"1704 50 OFFCURVE",
"1676 50 CURVE SMOOTH",
"1526 50 LINE SMOOTH",
"1481 50 OFFCURVE",
"1458 73 OFFCURVE",
"1458 120 CURVE SMOOTH",
"1458 1280 LINE SMOOTH",
"1458 1388 OFFCURVE",
"1396 1450 OFFCURVE",
"1288 1450 CURVE SMOOTH",
"1008 1450 LINE SMOOTH",
"957.319 1450 OFFCURVE",
"916.768 1436.347 OFFCURVE",
"888 1410.694 CURVE",
"859.232 1436.347 OFFCURVE",
"818.681 1450 OFFCURVE",
"768 1450 CURVE",
"68 1450 LINE",
"40 1450 OFFCURVE",
"18 1428 OFFCURVE",
"18 1400 CURVE SMOOTH",
"18 1372 OFFCURVE",
"40 1350 OFFCURVE",
"68 1350 CURVE SMOOTH",
"318 1350 LINE",
"318 -240 LINE SMOOTH",
"318 -268 OFFCURVE",
"340 -290 OFFCURVE",
"368 -290 CURVE SMOOTH"
);
}
);
width = 1676;
},
{
anchors = (
{
name = bottom;
position = "{888, -240}";
},
{
name = top;
position = "{888, 1400}";
}
);
layerId = "2E7AB31B-3074-491A-95D2-A8A197C304C7";
paths = (
{
closed = 1;
nodes = (
"382 -265 OFFCURVE",
"393 -254 OFFCURVE",
"393 -240 CURVE SMOOTH",
"393 1375 LINE",
"768 1375 LINE SMOOTH",
"847 1375 OFFCURVE",
"863 1359 OFFCURVE",
"863 1280 CURVE SMOOTH",
"863 -240 LINE SMOOTH",
"863 -254 OFFCURVE",
"874 -265 OFFCURVE",
"888 -265 CURVE SMOOTH",
"902 -265 OFFCURVE",
"913 -254 OFFCURVE",
"913 -240 CURVE SMOOTH",
"913 1280 LINE SMOOTH",
"913 1359 OFFCURVE",
"930 1375 OFFCURVE",
"1008 1375 CURVE SMOOTH",
"1288 1375 LINE SMOOTH",
"1367 1375 OFFCURVE",
"1383 1359 OFFCURVE",
"1383 1280 CURVE SMOOTH",
"1383 -240 LINE SMOOTH",
"1383 -254 OFFCURVE",
"1394 -265 OFFCURVE",
"1408 -265 CURVE SMOOTH",
"1422 -265 OFFCURVE",
"1433 -254 OFFCURVE",
"1433 -240 CURVE SMOOTH",
"1433 5 LINE",
"1461 -15 OFFCURVE",
"1493 -25 OFFCURVE",
"1526 -25 CURVE SMOOTH",
"1676 -25 LINE SMOOTH",
"1690 -25 OFFCURVE",
"1701 -14 OFFCURVE",
"1701 0 CURVE SMOOTH",
"1701 14 OFFCURVE",
"1690 25 OFFCURVE",
"1676 25 CURVE SMOOTH",
"1526 25 LINE SMOOTH",
"1468 25 OFFCURVE",
"1433 60 OFFCURVE",
"1433 120 CURVE SMOOTH",
"1433 1280 LINE SMOOTH",
"1433 1374 OFFCURVE",
"1382 1425 OFFCURVE",
"1288 1425 CURVE SMOOTH",
"1008 1425 LINE SMOOTH",
"954 1425 OFFCURVE",
"914 1410 OFFCURVE",
"888 1380 CURVE",
"862 1410 OFFCURVE",
"822 1425 OFFCURVE",
"768 1425 CURVE",
"68 1425 LINE",
"54 1425 OFFCURVE",
"43 1414 OFFCURVE",
"43 1400 CURVE SMOOTH",
"43 1386 OFFCURVE",
"54 1375 OFFCURVE",
"68 1375 CURVE SMOOTH",
"343 1375 LINE",
"343 -240 LINE SMOOTH",
"343 -254 OFFCURVE",
"354 -265 OFFCURVE",
"368 -265 CURVE SMOOTH"
);
}
);
width = 1676;
}
);
leftKerningGroup = D;
rightKerningGroup = H;
unicode = 004D;
},
{
glyphname = N;
lastChange = "2021-05-01 21:13:05 +0000";
layers = (
{
anchors = (
{
name = bottom;
position = "{632, -240}";
},
{
name = top;
position = "{632, 1400}";
}
);
layerId = m003;
paths = (
{
closed = 1;
nodes = (
"424 -340 OFFCURVE",
"468 -296 OFFCURVE",
"468 -240 CURVE SMOOTH",
"468 1300 LINE",
"808 1300 LINE SMOOTH",
"828 1300 OFFCURVE",
"828 1300 OFFCURVE",
"828 1280 CURVE SMOOTH",
"828 -240 LINE SMOOTH",
"828 -296 OFFCURVE",
"872 -340 OFFCURVE",
"928 -340 CURVE SMOOTH",
"984 -340 OFFCURVE",
"1028 -296 OFFCURVE",
"1028 -240 CURVE SMOOTH",
"1028 -99 LINE",
"1034 -100 OFFCURVE",
"1040 -100 OFFCURVE",
"1046 -100 CURVE SMOOTH",
"1196 -100 LINE SMOOTH",
"1252 -100 OFFCURVE",
"1296 -56 OFFCURVE",
"1296 0 CURVE SMOOTH",
"1296 56 OFFCURVE",
"1252 100 OFFCURVE",
"1196 100 CURVE SMOOTH",
"1046 100 LINE SMOOTH",
"1028 100 OFFCURVE",
"1028 100 OFFCURVE",
"1028 120 CURVE SMOOTH",
"1028 1280 LINE SMOOTH",
"1028 1416 OFFCURVE",
"944 1500 OFFCURVE",
"808 1500 CURVE SMOOTH",
"68 1500 LINE SMOOTH",
"12 1500 OFFCURVE",
"-32 1456 OFFCURVE",
"-32 1400 CURVE SMOOTH",
"-32 1344 OFFCURVE",
"12 1300 OFFCURVE",
"68 1300 CURVE SMOOTH",
"268 1300 LINE",
"268 -240 LINE SMOOTH",
"268 -296 OFFCURVE",
"312 -340 OFFCURVE",
"368 -340 CURVE SMOOTH"
);
}
);
width = 1196;
},
{
anchors = (
{
name = bottom;
position = "{901, -240}";
},
{
name = top;
position = "{304, 1400}";
}
);
layerId = m002;
paths = (
{
closed = 1;
nodes = (
"677 -290 OFFCURVE",
"695 -249 OFFCURVE",
"684 -223 CURVE SMOOTH",
"111 1350 LINE",
"480 1350 LINE SMOOTH",
"544 1350 OFFCURVE",
"573 1329 OFFCURVE",
"597 1263 CURVE",
"1150 -257 LINE",
"1157 -276 OFFCURVE",
"1175 -290 OFFCURVE",
"1197 -290 CURVE SMOOTH",
"1237 -290 OFFCURVE",
"1255 -249 OFFCURVE",
"1244 -223 CURVE SMOOTH",
"1179 -43 LINE",
"1195 -48 OFFCURVE",
"1211 -50 OFFCURVE",
"1228 -50 CURVE SMOOTH",
"1378 -50 LINE SMOOTH",
"1406 -50 OFFCURVE",
"1428 -28 OFFCURVE",
"1428 0 CURVE SMOOTH",
"1428 28 OFFCURVE",
"1406 50 OFFCURVE",
"1378 50 CURVE SMOOTH",
"1228 50 LINE SMOOTH",
"1179 50 OFFCURVE",
"1134 82 OFFCURVE",
"1114 135 CURVE SMOOTH",
"691 1297 LINE SMOOTH",
"655 1396 OFFCURVE",
"581 1450 OFFCURVE",
"480 1450 CURVE SMOOTH",
"-260 1450 LINE SMOOTH",
"-288 1450 OFFCURVE",
"-310 1428 OFFCURVE",
"-310 1400 CURVE SMOOTH",
"-310 1372 OFFCURVE",
"-288 1350 OFFCURVE",
"-260 1350 CURVE SMOOTH",
"5 1350 LINE",
"590 -257 LINE SMOOTH",
"597 -276 OFFCURVE",
"615 -290 OFFCURVE",
"637 -290 CURVE SMOOTH"
);
}
);
width = 1196;
},
{
anchors = (
{
name = bottom;
position = "{363, -240}";
},
{
name = top;
position = "{960, 1400}";
}
);
layerId = m004;
paths = (
{
closed = 1;
nodes = (
"121 -290 OFFCURVE",
"139 -276 OFFCURVE",
"146 -257 CURVE SMOOTH",
"731 1350 LINE",
"1136 1350 LINE SMOOTH",
"1165 1350 OFFCURVE",
"1177 1329 OFFCURVE",
"1165 1297 CURVE SMOOTH",
"612 -223 LINE SMOOTH",
"601 -249 OFFCURVE",
"619 -290 OFFCURVE",
"659 -290 CURVE SMOOTH",
"681 -290 OFFCURVE",
"699 -276 OFFCURVE",
"706 -257 CURVE SMOOTH",
"789 -30 LINE",
"810 -43 OFFCURVE",
"835 -50 OFFCURVE",
"864 -50 CURVE SMOOTH",
"1014 -50 LINE SMOOTH",
"1042 -50 OFFCURVE",
"1064 -28 OFFCURVE",
"1064 0 CURVE SMOOTH",
"1064 28 OFFCURVE",
"1042 50 OFFCURVE",
"1014 50 CURVE SMOOTH",
"864 50 LINE SMOOTH",
"836 50 OFFCURVE",
"825 68 OFFCURVE",
"835 96 CURVE",
"1259 1263 LINE",
"1301 1379 OFFCURVE",
"1248 1450 OFFCURVE",
"1136 1450 CURVE SMOOTH",
"396 1450 LINE SMOOTH",
"368 1450 OFFCURVE",
"346 1428 OFFCURVE",
"346 1400 CURVE SMOOTH",
"346 1372 OFFCURVE",
"368 1350 OFFCURVE",
"396 1350 CURVE SMOOTH",
"625 1350 LINE",
"52 -223 LINE SMOOTH",
"41 -249 OFFCURVE",
"59 -290 OFFCURVE",
"99 -290 CURVE SMOOTH"
);
}
);
width = 1196;
},
{
anchors = (
{
name = bottom;
position = "{2632, -240}";
},
{
name = top;
position = "{2632, 1400}";
}
);
layerId = m005;
paths = (
{
closed = 1;
nodes = (
"2396 -290 OFFCURVE",
"2418 -268 OFFCURVE",
"2418 -240 CURVE SMOOTH",
"2418 1350 LINE",
"2808 1350 LINE SMOOTH",
"2867 1350 OFFCURVE",
"2878 1339 OFFCURVE",
"2878 1280 CURVE SMOOTH",
"2878 -240 LINE SMOOTH",
"2878 -268 OFFCURVE",
"2900 -290 OFFCURVE",
"2928 -290 CURVE SMOOTH",
"2956 -290 OFFCURVE",
"2978 -268 OFFCURVE",
"2978 -240 CURVE SMOOTH",
"2978 -36 LINE",
"2999 -45 OFFCURVE",
"3022 -50 OFFCURVE",
"3046 -50 CURVE SMOOTH",
"5196 -50 LINE SMOOTH",
"5224 -50 OFFCURVE",
"5246 -28 OFFCURVE",
"5246 0 CURVE SMOOTH",
"5246 28 OFFCURVE",
"5224 50 OFFCURVE",
"5196 50 CURVE SMOOTH",
"3046 50 LINE SMOOTH",
"3001 50 OFFCURVE",
"2978 73 OFFCURVE",
"2978 120 CURVE SMOOTH",
"2978 1280 LINE SMOOTH",
"2978 1388 OFFCURVE",
"2916 1450 OFFCURVE",
"2808 1450 CURVE SMOOTH",
"68 1450 LINE SMOOTH",
"40 1450 OFFCURVE",
"18 1428 OFFCURVE",
"18 1400 CURVE SMOOTH",
"18 1372 OFFCURVE",
"40 1350 OFFCURVE",
"68 1350 CURVE SMOOTH",
"2318 1350 LINE",
"2318 -240 LINE SMOOTH",
"2318 -268 OFFCURVE",
"2340 -290 OFFCURVE",
"2368 -290 CURVE SMOOTH"
);
}
);
width = 5196;
},
{
anchors = (
{
name = bottom;
position = "{632, -240}";
},
{
name = top;
position = "{632, 1400}";
}
);
layerId = m006;
paths = (
{
closed = 1;
nodes = (
"396 -290 OFFCURVE",
"418 -268 OFFCURVE",
"418 -240 CURVE SMOOTH",
"418 1350 LINE",
"808 1350 LINE SMOOTH",
"867 1350 OFFCURVE",
"878 1339 OFFCURVE",
"878 1280 CURVE SMOOTH",
"878 -240 LINE SMOOTH",
"878 -268 OFFCURVE",
"900 -290 OFFCURVE",
"928 -290 CURVE SMOOTH",
"956 -290 OFFCURVE",
"978 -268 OFFCURVE",
"978 -240 CURVE SMOOTH",
"978 -36.044 LINE",
"998.705 -45.048 OFFCURVE",
"1021.683 -50 OFFCURVE",
"1046 -50 CURVE SMOOTH",
"1196 -50 LINE SMOOTH",
"1224 -50 OFFCURVE",
"1246 -28 OFFCURVE",
"1246 0 CURVE SMOOTH",
"1246 28 OFFCURVE",
"1224 50 OFFCURVE",
"1196 50 CURVE SMOOTH",
"1046 50 LINE SMOOTH",
"1001 50 OFFCURVE",
"978 73 OFFCURVE",
"978 120 CURVE SMOOTH",
"978 1280 LINE SMOOTH",
"978 1388 OFFCURVE",
"916 1450 OFFCURVE",
"808 1450 CURVE SMOOTH",
"68 1450 LINE SMOOTH",
"40 1450 OFFCURVE",
"18 1428 OFFCURVE",
"18 1400 CURVE SMOOTH",
"18 1372 OFFCURVE",
"40 1350 OFFCURVE",
"68 1350 CURVE SMOOTH",
"318 1350 LINE",
"318 -240 LINE SMOOTH",
"318 -268 OFFCURVE",
"340 -290 OFFCURVE",
"368 -290 CURVE SMOOTH"
);
}
);
width = 1196;
},
{
anchors = (
{
name = bottom;
position = "{632, -240}";
},
{
name = top;
position = "{632, 1400}";
}
);
layerId = "2E7AB31B-3074-491A-95D2-A8A197C304C7";
paths = (
{
closed = 1;
nodes = (
"382 -265 OFFCURVE",
"393 -254 OFFCURVE",
"393 -240 CURVE SMOOTH",
"393 1375 LINE",
"808 1375 LINE SMOOTH",
"887 1375 OFFCURVE",
"903 1359 OFFCURVE",
"903 1280 CURVE SMOOTH",
"903 -240 LINE SMOOTH",
"903 -254 OFFCURVE",
"914 -265 OFFCURVE",
"928 -265 CURVE SMOOTH",
"942 -265 OFFCURVE",
"953 -254 OFFCURVE",
"953 -240 CURVE SMOOTH",
"953 5 LINE",
"981 -15 OFFCURVE",
"1013 -25 OFFCURVE",
"1046 -25 CURVE SMOOTH",
"1196 -25 LINE SMOOTH",
"1210 -25 OFFCURVE",
"1221 -14 OFFCURVE",
"1221 0 CURVE SMOOTH",
"1221 14 OFFCURVE",
"1210 25 OFFCURVE",
"1196 25 CURVE SMOOTH",
"1046 25 LINE SMOOTH",
"988 25 OFFCURVE",
"953 60 OFFCURVE",
"953 120 CURVE SMOOTH",
"953 1280 LINE SMOOTH",
"953 1374 OFFCURVE",
"902 1425 OFFCURVE",
"808 1425 CURVE SMOOTH",
"68 1425 LINE SMOOTH",
"54 1425 OFFCURVE",
"43 1414 OFFCURVE",
"43 1400 CURVE SMOOTH",
"43 1386 OFFCURVE",
"54 1375 OFFCURVE",
"68 1375 CURVE SMOOTH",
"343 1375 LINE",
"343 -240 LINE SMOOTH",
"343 -254 OFFCURVE",
"354 -265 OFFCURVE",
"368 -265 CURVE SMOOTH"
);
}
);
width = 1196;
}
);
leftKerningGroup = D;
rightKerningGroup = H;
unicode = 004E;
},
{
glyphname = Eng;
lastChange = "2021-05-01 21:13:05 +0000";
layers = (
{
anchors = (
{
name = bottom;
position = "{632, -240}";
},
{
name = top;
position = "{632, 1400}";
}
);
layerId = m003;
paths = (
{
closed = 1;
nodes = (
"424 -340 OFFCURVE",
"468 -296 OFFCURVE",
"468 -240 CURVE SMOOTH",
"468 1300 LINE",
"808 1300 LINE SMOOTH",
"828 1300 OFFCURVE",
"828 1300 OFFCURVE",
"828 1280 CURVE SMOOTH",
"828 -360 LINE SMOOTH",
"828 -380 OFFCURVE",
"828 -380 OFFCURVE",
"810 -380 CURVE SMOOTH",
"680 -380 LINE SMOOTH",
"624 -380 OFFCURVE",
"580 -424 OFFCURVE",
"580 -480 CURVE SMOOTH",
"580 -536 OFFCURVE",
"624 -580 OFFCURVE",
"680 -580 CURVE SMOOTH",
"810 -580 LINE SMOOTH",
"932 -580 OFFCURVE",
"1028 -484 OFFCURVE",
"1028 -360 CURVE SMOOTH",
"1028 -99 LINE",
"1034 -100 OFFCURVE",
"1040 -100 OFFCURVE",
"1046 -100 CURVE SMOOTH",
"1196 -100 LINE SMOOTH",
"1252 -100 OFFCURVE",
"1296 -56 OFFCURVE",
"1296 0 CURVE SMOOTH",
"1296 56 OFFCURVE",
"1252 100 OFFCURVE",
"1196 100 CURVE SMOOTH",
"1046 100 LINE SMOOTH",
"1028 100 OFFCURVE",
"1028 100 OFFCURVE",
"1028 120 CURVE SMOOTH",
"1028 1280 LINE SMOOTH",
"1028 1416 OFFCURVE",
"944 1500 OFFCURVE",
"808 1500 CURVE SMOOTH",
"68 1500 LINE SMOOTH",
"12 1500 OFFCURVE",
"-32 1456 OFFCURVE",
"-32 1400 CURVE SMOOTH",
"-32 1344 OFFCURVE",
"12 1300 OFFCURVE",
"68 1300 CURVE SMOOTH",
"268 1300 LINE",
"268 -240 LINE SMOOTH",
"268 -296 OFFCURVE",
"312 -340 OFFCURVE",
"368 -340 CURVE SMOOTH"
);
}
);
width = 1196;
},
{
anchors = (
{
name = bottom;
position = "{901, -240}";
},
{
name = top;
position = "{304, 1400}";
}
);
layerId = m002;
paths = (
{
closed = 1;
nodes = (
"677 -290 OFFCURVE",
"695 -249 OFFCURVE",
"684 -223 CURVE",
"111 1350 LINE",
"480 1350 LINE SMOOTH",
"544 1350 OFFCURVE",
"573 1329 OFFCURVE",
"597 1263 CURVE",
"1194 -377 LINE",
"1205 -409 OFFCURVE",
"1194 -430 OFFCURVE",
"1166 -430 CURVE SMOOTH",
"1036 -430 LINE SMOOTH",
"1008 -430 OFFCURVE",
"986 -452 OFFCURVE",
"986 -480 CURVE SMOOTH",
"986 -508 OFFCURVE",
"1008 -530 OFFCURVE",
"1036 -530 CURVE SMOOTH",
"1166 -530 LINE SMOOTH",
"1267 -530 OFFCURVE",
"1325 -443 OFFCURVE",
"1288 -343 CURVE SMOOTH",
"1179 -43 LINE",
"1195 -48 OFFCURVE",
"1212 -50 OFFCURVE",
"1228 -50 CURVE SMOOTH",
"1378 -50 LINE SMOOTH",
"1406 -50 OFFCURVE",
"1428 -28 OFFCURVE",
"1428 0 CURVE SMOOTH",
"1428 28 OFFCURVE",
"1406 50 OFFCURVE",
"1378 50 CURVE SMOOTH",
"1228 50 LINE SMOOTH",
"1179 50 OFFCURVE",
"1134 82 OFFCURVE",
"1114 135 CURVE SMOOTH",
"691 1297 LINE SMOOTH",
"655 1396 OFFCURVE",
"581 1450 OFFCURVE",
"480 1450 CURVE SMOOTH",
"-260 1450 LINE SMOOTH",
"-288 1450 OFFCURVE",
"-310 1428 OFFCURVE",
"-310 1400 CURVE SMOOTH",
"-310 1372 OFFCURVE",
"-288 1350 OFFCURVE",
"-260 1350 CURVE SMOOTH",
"5 1350 LINE",
"590 -257 LINE SMOOTH",
"597 -276 OFFCURVE",
"615 -290 OFFCURVE",
"637 -290 CURVE SMOOTH"
);
}
);
width = 1196;
},
{
anchors = (
{
name = bottom;
position = "{363, -240}";
},
{
name = top;
position = "{960, 1400}";
}
);
layerId = m004;
paths = (
{
closed = 1;
nodes = (
"121 -290 OFFCURVE",
"139 -276 OFFCURVE",
"146 -257 CURVE SMOOTH",
"731 1350 LINE",
"1136 1350 LINE SMOOTH",
"1165 1350 OFFCURVE",
"1177 1329 OFFCURVE",
"1165 1297 CURVE SMOOTH",
"568 -343 LINE SMOOTH",
"548 -397 OFFCURVE",
"503 -430 OFFCURVE",
"454 -430 CURVE SMOOTH",
"324 -430 LINE SMOOTH",
"296 -430 OFFCURVE",
"274 -452 OFFCURVE",
"274 -480 CURVE SMOOTH",
"274 -508 OFFCURVE",
"296 -530 OFFCURVE",
"324 -530 CURVE SMOOTH",
"454 -530 LINE SMOOTH",
"542 -530 OFFCURVE",
"630 -464 OFFCURVE",
"662 -377 CURVE",
"789 -30 LINE",
"810 -43 OFFCURVE",
"835 -50 OFFCURVE",
"864 -50 CURVE SMOOTH",
"1014 -50 LINE SMOOTH",
"1042 -50 OFFCURVE",
"1064 -28 OFFCURVE",
"1064 0 CURVE SMOOTH",
"1064 28 OFFCURVE",
"1042 50 OFFCURVE",
"1014 50 CURVE SMOOTH",
"864 50 LINE SMOOTH",
"836 50 OFFCURVE",
"825 68 OFFCURVE",
"834 96 CURVE",
"1259 1263 LINE",
"1301 1379 OFFCURVE",
"1248 1450 OFFCURVE",
"1136 1450 CURVE SMOOTH",
"396 1450 LINE SMOOTH",
"368 1450 OFFCURVE",
"346 1428 OFFCURVE",
"346 1400 CURVE SMOOTH",
"346 1372 OFFCURVE",
"368 1350 OFFCURVE",
"396 1350 CURVE SMOOTH",
"625 1350 LINE",
"52 -223 LINE SMOOTH",
"42 -250 OFFCURVE",
"59 -290 OFFCURVE",
"99 -290 CURVE SMOOTH"
);
}
);
width = 1196;
},
{
anchors = (
{
name = bottom;
position = "{2632, -240}";
},
{
name = top;
position = "{2632, 1400}";
}
);
layerId = m005;
paths = (
{
closed = 1;
nodes = (
"2396 -290 OFFCURVE",
"2418 -268 OFFCURVE",
"2418 -240 CURVE SMOOTH",
"2418 1350 LINE",
"2808 1350 LINE SMOOTH",
"2867 1350 OFFCURVE",
"2878 1339 OFFCURVE",
"2878 1280 CURVE SMOOTH",
"2878 -360 LINE SMOOTH",
"2878 -407 OFFCURVE",
"2855 -430 OFFCURVE",
"2810 -430 CURVE SMOOTH",
"2680 -430 LINE SMOOTH",
"2652 -430 OFFCURVE",
"2630 -452 OFFCURVE",
"2630 -480 CURVE SMOOTH",
"2630 -508 OFFCURVE",
"2652 -530 OFFCURVE",
"2680 -530 CURVE SMOOTH",
"2810 -530 LINE SMOOTH",
"2904 -530 OFFCURVE",
"2978 -456 OFFCURVE",
"2978 -360 CURVE SMOOTH",
"2978 -36 LINE",
"2999 -45 OFFCURVE",
"3022 -50 OFFCURVE",
"3046 -50 CURVE SMOOTH",
"5196 -50 LINE SMOOTH",
"5224 -50 OFFCURVE",
"5246 -28 OFFCURVE",
"5246 0 CURVE SMOOTH",
"5246 28 OFFCURVE",
"5224 50 OFFCURVE",
"5196 50 CURVE SMOOTH",
"3046 50 LINE SMOOTH",
"3001 50 OFFCURVE",
"2978 73 OFFCURVE",
"2978 120 CURVE SMOOTH",
"2978 1280 LINE SMOOTH",
"2978 1388 OFFCURVE",
"2916 1450 OFFCURVE",
"2808 1450 CURVE SMOOTH",
"68 1450 LINE SMOOTH",
"40 1450 OFFCURVE",
"18 1428 OFFCURVE",
"18 1400 CURVE SMOOTH",
"18 1372 OFFCURVE",
"40 1350 OFFCURVE",
"68 1350 CURVE SMOOTH",
"2318 1350 LINE",
"2318 -240 LINE SMOOTH",
"2318 -268 OFFCURVE",
"2340 -290 OFFCURVE",
"2368 -290 CURVE SMOOTH"
);
}
);
width = 5196;
},
{
anchors = (
{
name = bottom;
position = "{632, -240}";
},
{
name = top;
position = "{632, 1400}";
}
);
layerId = m006;
paths = (
{
closed = 1;
nodes = (
"396 -290 OFFCURVE",
"418 -268 OFFCURVE",
"418 -240 CURVE SMOOTH",
"418 1350 LINE",
"808 1350 LINE SMOOTH",
"867 1350 OFFCURVE",
"878 1339 OFFCURVE",
"878 1280 CURVE SMOOTH",
"878 -360 LINE SMOOTH",
"878 -407 OFFCURVE",
"855 -430 OFFCURVE",
"810 -430 CURVE SMOOTH",
"680 -430 LINE SMOOTH",
"652 -430 OFFCURVE",
"630 -452 OFFCURVE",
"630 -480 CURVE SMOOTH",
"630 -508 OFFCURVE",
"652 -530 OFFCURVE",
"680 -530 CURVE SMOOTH",
"810 -530 LINE SMOOTH",
"904 -530 OFFCURVE",
"978 -456 OFFCURVE",
"978 -360 CURVE SMOOTH",
"978 -36.044 LINE",
"998.705 -45.048 OFFCURVE",
"1021.683 -50 OFFCURVE",
"1046 -50 CURVE SMOOTH",
"1196 -50 LINE SMOOTH",
"1224 -50 OFFCURVE",
"1246 -28 OFFCURVE",
"1246 0 CURVE SMOOTH",
"1246 28 OFFCURVE",
"1224 50 OFFCURVE",
"1196 50 CURVE SMOOTH",
"1046 50 LINE SMOOTH",
"1001 50 OFFCURVE",
"978 73 OFFCURVE",
"978 120 CURVE SMOOTH",
"978 1280 LINE SMOOTH",
"978 1388 OFFCURVE",
"916 1450 OFFCURVE",
"808 1450 CURVE SMOOTH",
"68 1450 LINE SMOOTH",
"40 1450 OFFCURVE",
"18 1428 OFFCURVE",
"18 1400 CURVE SMOOTH",
"18 1372 OFFCURVE",
"40 1350 OFFCURVE",
"68 1350 CURVE SMOOTH",
"318 1350 LINE",
"318 -240 LINE SMOOTH",
"318 -268 OFFCURVE",
"340 -290 OFFCURVE",
"368 -290 CURVE SMOOTH"
);
}
);
width = 1196;
},
{
anchors = (
{
name = bottom;
position = "{632, -240}";
},
{
name = top;
position = "{632, 1400}";
}
);
layerId = "2E7AB31B-3074-491A-95D2-A8A197C304C7";
paths = (
{
closed = 1;
nodes = (
"382 -265 OFFCURVE",
"393 -254 OFFCURVE",
"393 -240 CURVE SMOOTH",
"393 1375 LINE",
"808 1375 LINE SMOOTH",
"887 1375 OFFCURVE",
"903 1359 OFFCURVE",
"903 1280 CURVE SMOOTH",
"903 -360 LINE SMOOTH",
"903 -421 OFFCURVE",
"869 -455 OFFCURVE",
"810 -455 CURVE SMOOTH",
"680 -455 LINE SMOOTH",
"666 -455 OFFCURVE",
"655 -466 OFFCURVE",
"655 -480 CURVE SMOOTH",
"655 -494 OFFCURVE",
"666 -505 OFFCURVE",
"680 -505 CURVE SMOOTH",
"810 -505 LINE SMOOTH",
"890 -505 OFFCURVE",
"953 -442 OFFCURVE",
"953 -360 CURVE SMOOTH",
"953 5 LINE",
"981 -15 OFFCURVE",
"1013 -25 OFFCURVE",
"1046 -25 CURVE SMOOTH",
"1196 -25 LINE SMOOTH",
"1210 -25 OFFCURVE",
"1221 -14 OFFCURVE",
"1221 0 CURVE SMOOTH",
"1221 14 OFFCURVE",
"1210 25 OFFCURVE",
"1196 25 CURVE SMOOTH",
"1046 25 LINE SMOOTH",
"988 25 OFFCURVE",
"953 60 OFFCURVE",
"953 120 CURVE SMOOTH",
"953 1280 LINE SMOOTH",
"953 1374 OFFCURVE",
"902 1425 OFFCURVE",
"808 1425 CURVE SMOOTH",
"68 1425 LINE SMOOTH",
"54 1425 OFFCURVE",
"43 1414 OFFCURVE",
"43 1400 CURVE SMOOTH",
"43 1386 OFFCURVE",
"54 1375 OFFCURVE",
"68 1375 CURVE SMOOTH",
"343 1375 LINE",
"343 -240 LINE SMOOTH",
"343 -254 OFFCURVE",
"354 -265 OFFCURVE",
"368 -265 CURVE SMOOTH"
);
}
);
width = 1196;
}
);
leftKerningGroup = N;
unicode = 014A;
},
{
glyphname = O;
lastChange = "2021-05-01 21:13:05 +0000";
layers = (
{
anchors = (
{
name = bottom;
position = "{558, -240}";
},
{
name = center;
position = "{484, 700}";
},
{
name = ogonek;
position = "{992, 20}";
},
{
name = top;
position = "{558, 1400}";
},
{
name = topleft;
position = "{-110, 1400}";
},
{
name = topright;
position = "{842, 1400}";
}
);
layerId = m003;
paths = (
{
closed = 1;
nodes = (
"730 -340 LINE SMOOTH",
"866 -340 OFFCURVE",
"950 -256 OFFCURVE",
"950 -120 CURVE SMOOTH",
"950 -99.227 LINE",
"956 -99 OFFCURVE",
"963 -100 OFFCURVE",
"969 -100 CURVE",
"1119 -100 LINE SMOOTH",
"1175 -100 OFFCURVE",
"1219 -56 OFFCURVE",
"1219 0 CURVE SMOOTH",
"1219 56 OFFCURVE",
"1175 100 OFFCURVE",
"1119 100 CURVE SMOOTH",
"969 100 LINE SMOOTH",
"950 100 OFFCURVE",
"950 100 OFFCURVE",
"950 120 CURVE SMOOTH",
"950 1280 LINE SMOOTH",
"950 1416 OFFCURVE",
"866 1500 OFFCURVE",
"730 1500 CURVE SMOOTH",
"370 1500 LINE SMOOTH",
"234 1500 OFFCURVE",
"150 1416 OFFCURVE",
"150 1280 CURVE SMOOTH",
"150 -120 LINE SMOOTH",
"150 -256 OFFCURVE",
"234 -340 OFFCURVE",
"370 -340 CURVE SMOOTH"
);
},
{
closed = 1;
nodes = (
"350 1280 LINE SMOOTH",
"350 1300 OFFCURVE",
"350 1300 OFFCURVE",
"370 1300 CURVE SMOOTH",
"730 1300 LINE SMOOTH",
"750 1300 OFFCURVE",
"750 1300 OFFCURVE",
"750 1280 CURVE SMOOTH",
"750 -120 LINE SMOOTH",
"750 -140 OFFCURVE",
"750 -140 OFFCURVE",
"730 -140 CURVE SMOOTH",
"370 -140 LINE SMOOTH",
"350 -140 OFFCURVE",
"350 -140 OFFCURVE",
"350 -120 CURVE SMOOTH"
);
}
);
width = 1118;
},
{
anchors = (
{
name = bottom;
position = "{827, -240}";
},
{
name = center;
position = "{411, 700}";
},
{
name = ogonek;
position = "{1166, 20}";
},
{
name = top;
position = "{230, 1400}";
},
{
name = topleft;
position = "{-438, 1400}";
},
{
name = topright;
position = "{514, 1400}";
}
);
layerId = m002;
paths = (
{
closed = 1;
nodes = (
"999 -290 LINE SMOOTH",
"1113 -290 OFFCURVE",
"1164 -218 OFFCURVE",
"1122 -103 CURVE SMOOTH",
"1100.157 -42.921 LINE",
"1116.89 -47.532 OFFCURVE",
"1133.982 -50 OFFCURVE",
"1151 -50 CURVE SMOOTH",
"1301 -50 LINE SMOOTH",
"1329 -50 OFFCURVE",
"1351 -28 OFFCURVE",
"1351 0 CURVE SMOOTH",
"1351 28 OFFCURVE",
"1329 50 OFFCURVE",
"1301 50 CURVE SMOOTH",
"1151 50 LINE SMOOTH",
"1100 50 OFFCURVE",
"1055 83 OFFCURVE",
"1035 137 CURVE SMOOTH",
"613 1297 LINE",
"577 1396 OFFCURVE",
"503 1450 OFFCURVE",
"402 1450 CURVE SMOOTH",
"42 1450 LINE SMOOTH",
"-70 1450 OFFCURVE",
"-123 1379 OFFCURVE",
"-81 1263 CURVE SMOOTH",
"428 -137 LINE SMOOTH",
"464 -236 OFFCURVE",
"537 -290 OFFCURVE",
"639 -290 CURVE SMOOTH"
);
},
{
closed = 1;
nodes = (
"13 1297 LINE SMOOTH",
"1 1329 OFFCURVE",
"13 1350 OFFCURVE",
"42 1350 CURVE SMOOTH",
"402 1350 LINE SMOOTH",
"466 1350 OFFCURVE",
"495 1329 OFFCURVE",
"519 1263 CURVE SMOOTH",
"1028 -137 LINE SMOOTH",
"1040 -169 OFFCURVE",
"1029 -190 OFFCURVE",
"999 -190 CURVE SMOOTH",
"639 -190 LINE SMOOTH",
"576 -190 OFFCURVE",
"546 -169 OFFCURVE",
"522 -103 CURVE SMOOTH"
);
}
);
width = 1118;
},
{
anchors = (
{
name = bottom;
position = "{289, -240}";
},
{
name = center;
position = "{557, 700}";
},
{
name = ogonek;
position = "{818, 20}";
},
{
name = top;
position = "{886, 1400}";
},
{
name = topleft;
position = "{218, 1400}";
},
{
name = topright;
position = "{1170, 1400}";
}
);
layerId = m004;
paths = (
{
closed = 1;
nodes = (
"461 -290 LINE SMOOTH",
"563 -290 OFFCURVE",
"636 -236 OFFCURVE",
"672 -137 CURVE SMOOTH",
"710.928 -29.928 LINE",
"731.723 -42.711 OFFCURVE",
"757.477 -50 OFFCURVE",
"787 -50 CURVE SMOOTH",
"937 -50 LINE SMOOTH",
"965 -50 OFFCURVE",
"987 -28 OFFCURVE",
"987 0 CURVE SMOOTH",
"987 28 OFFCURVE",
"965 50 OFFCURVE",
"937 50 CURVE SMOOTH",
"787 50 LINE SMOOTH",
"760.262 50 OFFCURVE",
"747 69 OFFCURVE",
"756.609 95.717 CURVE SMOOTH",
"1181 1263 LINE SMOOTH",
"1223 1379 OFFCURVE",
"1170 1450 OFFCURVE",
"1058 1450 CURVE SMOOTH",
"698 1450 LINE SMOOTH",
"597 1450 OFFCURVE",
"523 1396 OFFCURVE",
"487 1297 CURVE SMOOTH",
"-22 -103 LINE SMOOTH",
"-64 -218 OFFCURVE",
"-13 -290 OFFCURVE",
"101 -290 CURVE SMOOTH"
);
},
{
closed = 1;
nodes = (
"581 1263 LINE SMOOTH",
"605 1329 OFFCURVE",
"634 1350 OFFCURVE",
"698 1350 CURVE SMOOTH",
"1058 1350 LINE SMOOTH",
"1087 1350 OFFCURVE",
"1099 1329 OFFCURVE",
"1087 1297 CURVE",
"578 -103 LINE",
"554 -169 OFFCURVE",
"524 -190 OFFCURVE",
"461 -190 CURVE SMOOTH",
"101 -190 LINE SMOOTH",
"71 -190 OFFCURVE",
"60 -169 OFFCURVE",
"72 -137 CURVE SMOOTH"
);
}
);
width = 1118;
},
{
anchors = (
{
name = bottom;
position = "{558, -240}";
},
{
name = center;
position = "{484, 700}";
},
{
name = ogonek;
position = "{992, 20}";
},
{
name = top;
position = "{558, 1400}";
},
{
name = topleft;
position = "{-110, 1400}";
},
{
name = topright;
position = "{842, 1400}";
}
);
layerId = m005;
paths = (
{
closed = 1;
nodes = (
"730 -290 LINE SMOOTH",
"838 -290 OFFCURVE",
"900 -228 OFFCURVE",
"900 -120 CURVE SMOOTH",
"900 -35.867 LINE",
"920.953 -44.983 OFFCURVE",
"944.264 -50 OFFCURVE",
"969 -50 CURVE SMOOTH",
"3119 -50 LINE SMOOTH",
"3147 -50 OFFCURVE",
"3169 -28 OFFCURVE",
"3169 0 CURVE SMOOTH",
"3169 28 OFFCURVE",
"3147 50 OFFCURVE",
"3119 50 CURVE SMOOTH",
"969 50 LINE SMOOTH",
"923 50 OFFCURVE",
"900 73 OFFCURVE",
"900 120 CURVE SMOOTH",
"900 1280 LINE SMOOTH",
"900 1388 OFFCURVE",
"838 1450 OFFCURVE",
"730 1450 CURVE SMOOTH",
"370 1450 LINE SMOOTH",
"262 1450 OFFCURVE",
"200 1388 OFFCURVE",
"200 1280 CURVE SMOOTH",
"200 -120 LINE SMOOTH",
"200 -228 OFFCURVE",
"262 -290 OFFCURVE",
"370 -290 CURVE SMOOTH"
);
},
{
closed = 1;
nodes = (
"300 1280 LINE SMOOTH",
"300 1339 OFFCURVE",
"311 1350 OFFCURVE",
"370 1350 CURVE SMOOTH",
"730 1350 LINE SMOOTH",
"789 1350 OFFCURVE",
"800 1339 OFFCURVE",
"800 1280 CURVE SMOOTH",
"800 -120 LINE SMOOTH",
"800 -179 OFFCURVE",
"789 -190 OFFCURVE",
"730 -190 CURVE SMOOTH",
"370 -190 LINE SMOOTH",
"311 -190 OFFCURVE",
"300 -179 OFFCURVE",
"300 -120 CURVE SMOOTH"
);
}
);
width = 3118;
},
{
anchors = (
{
name = bottom;
position = "{558, -240}";
},
{
name = center;
position = "{484, 700}";
},
{
name = ogonek;
position = "{992, 20}";
},
{
name = top;
position = "{558, 1400}";
},
{
name = topleft;
position = "{-110, 1400}";
},
{
name = topright;
position = "{842, 1400}";
}
);
layerId = m006;
paths = (
{
closed = 1;
nodes = (
"730 -290 LINE SMOOTH",
"838 -290 OFFCURVE",
"900 -228 OFFCURVE",
"900 -120 CURVE SMOOTH",
"900 -35.867 LINE",
"920.953 -44.983 OFFCURVE",
"944.264 -50 OFFCURVE",
"969 -50 CURVE SMOOTH",
"1119 -50 LINE SMOOTH",
"1147 -50 OFFCURVE",
"1169 -28 OFFCURVE",
"1169 0 CURVE SMOOTH",
"1169 28 OFFCURVE",
"1147 50 OFFCURVE",
"1119 50 CURVE SMOOTH",
"969 50 LINE SMOOTH",
"923 50 OFFCURVE",
"900 73 OFFCURVE",
"900 120 CURVE SMOOTH",
"900 1280 LINE SMOOTH",
"900 1388 OFFCURVE",
"838 1450 OFFCURVE",
"730 1450 CURVE SMOOTH",
"370 1450 LINE SMOOTH",
"262 1450 OFFCURVE",
"200 1388 OFFCURVE",
"200 1280 CURVE SMOOTH",
"200 -120 LINE SMOOTH",
"200 -228 OFFCURVE",
"262 -290 OFFCURVE",
"370 -290 CURVE SMOOTH"
);
},
{
closed = 1;
nodes = (
"300 1280 LINE SMOOTH",
"300 1339 OFFCURVE",
"311 1350 OFFCURVE",
"370 1350 CURVE SMOOTH",
"730 1350 LINE SMOOTH",
"789 1350 OFFCURVE",
"800 1339 OFFCURVE",
"800 1280 CURVE SMOOTH",
"800 -120 LINE SMOOTH",
"800 -179 OFFCURVE",
"789 -190 OFFCURVE",
"730 -190 CURVE SMOOTH",
"370 -190 LINE SMOOTH",
"311 -190 OFFCURVE",
"300 -179 OFFCURVE",
"300 -120 CURVE SMOOTH"
);
}
);
width = 1118;
},
{
anchors = (
{
name = bottom;
position = "{558, -240}";
},
{
name = center;
position = "{484, 700}";
},
{
name = ogonek;
position = "{992, 20}";
},
{
name = top;
position = "{558, 1400}";
},
{
name = topleft;
position = "{-110, 1400}";
},
{
name = topright;
position = "{842, 1400}";
}
);
layerId = "2E7AB31B-3074-491A-95D2-A8A197C304C7";
paths = (
{
closed = 1;
nodes = (
"730 -265 LINE SMOOTH",
"824 -265 OFFCURVE",
"875 -214 OFFCURVE",
"875 -120 CURVE SMOOTH",
"875 6 LINE",
"903 -15 OFFCURVE",
"935 -25 OFFCURVE",
"969 -25 CURVE SMOOTH",
"1119 -25 LINE SMOOTH",
"1133 -25 OFFCURVE",
"1144 -14 OFFCURVE",
"1144 0 CURVE SMOOTH",
"1144 14 OFFCURVE",
"1133 25 OFFCURVE",
"1119 25 CURVE SMOOTH",
"969 25 LINE SMOOTH",
"910 25 OFFCURVE",
"875 60 OFFCURVE",
"875 120 CURVE SMOOTH",
"875 1280 LINE SMOOTH",
"875 1374 OFFCURVE",
"824 1425 OFFCURVE",
"730 1425 CURVE SMOOTH",
"370 1425 LINE SMOOTH",
"276 1425 OFFCURVE",
"225 1374 OFFCURVE",
"225 1280 CURVE SMOOTH",
"225 -120 LINE SMOOTH",
"225 -214 OFFCURVE",
"276 -265 OFFCURVE",
"370 -265 CURVE SMOOTH"
);
},
{
closed = 1;
nodes = (
"275 1280 LINE SMOOTH",
"275 1359 OFFCURVE",
"292 1375 OFFCURVE",
"370 1375 CURVE SMOOTH",
"730 1375 LINE SMOOTH",
"809 1375 OFFCURVE",
"825 1359 OFFCURVE",
"825 1280 CURVE SMOOTH",
"825 -120 LINE SMOOTH",
"825 -199 OFFCURVE",
"809 -215 OFFCURVE",
"730 -215 CURVE SMOOTH",
"370 -215 LINE SMOOTH",
"292 -215 OFFCURVE",
"275 -199 OFFCURVE",
"275 -120 CURVE SMOOTH"
);
}
);
width = 1118;
}
);
leftKerningGroup = O;
rightKerningGroup = H;
unicode = 004F;
},
{
glyphname = Oslash;
lastChange = "2021-05-01 21:13:05 +0000";
layers = (
{
anchors = (
{
name = bottom;
position = "{600, 0}";
},
{
name = top;
position = "{600, 1400}";
}
);
components = (
{
name = O;
}
);
layerId = m003;
paths = (
{
closed = 1;
nodes = (
"211 -480 OFFCURVE",
"248 -454 OFFCURVE",
"262 -417 CURVE SMOOTH",
"1026 1483 LINE",
"1053 1541 OFFCURVE",
"1012 1622 OFFCURVE",
"934 1622 CURVE SMOOTH",
"893 1622 OFFCURVE",
"856 1596 OFFCURVE",
"842 1559 CURVE SMOOTH",
"78 -341 LINE",
"51 -399 OFFCURVE",
"92 -480 OFFCURVE",
"170 -480 CURVE SMOOTH"
);
}
);
width = 1118;
},
{
anchors = (
{
name = bottom;
position = "{782, 0}";
},
{
name = top;
position = "{272, 1400}";
}
);
components = (
{
name = O;
}
);
layerId = m002;
paths = (
{
closed = 1;
nodes = (
"517 -430 OFFCURVE",
"539 -409 OFFCURVE",
"540 -382 CURVE SMOOTH",
"612 1520 LINE SMOOTH",
"613 1548 OFFCURVE",
"590 1572 OFFCURVE",
"562 1572 CURVE SMOOTH",
"535 1572 OFFCURVE",
"513 1551 OFFCURVE",
"512 1524 CURVE SMOOTH",
"440 -378 LINE SMOOTH",
"439 -406 OFFCURVE",
"462 -430 OFFCURVE",
"490 -430 CURVE SMOOTH"
);
}
);
width = 1118;
},
{
anchors = (
{
name = bottom;
position = "{345, 0}";
},
{
name = top;
position = "{855, 1400}";
}
);
components = (
{
name = O;
}
);
layerId = m004;
paths = (
{
closed = 1;
nodes = (
"-134 -430 OFFCURVE",
"-119 -422 OFFCURVE",
"-110 -410 CURVE SMOOTH",
"1346 1492 LINE SMOOTH",
"1370 1524 OFFCURVE",
"1348 1572 OFFCURVE",
"1306 1572 CURVE SMOOTH",
"1290 1572 OFFCURVE",
"1275 1564 OFFCURVE",
"1266 1552 CURVE SMOOTH",
"-190 -350 LINE SMOOTH",
"-214 -382 OFFCURVE",
"-192 -430 OFFCURVE",
"-150 -430 CURVE SMOOTH"
);
}
);
width = 1118;
},
{
anchors = (
{
name = bottom;
position = "{600, 0}";
},
{
name = top;
position = "{600, 1400}";
}
);
components = (
{
name = O;
}
);
layerId = m005;
paths = (
{
closed = 1;
nodes = (
"191 -430 OFFCURVE",
"209 -417 OFFCURVE",
"216 -399 CURVE SMOOTH",
"980 1503 LINE SMOOTH",
"993 1528 OFFCURVE",
"976 1572 OFFCURVE",
"934 1572 CURVE SMOOTH",
"913 1572 OFFCURVE",
"895 1559 OFFCURVE",
"888 1541 CURVE SMOOTH",
"124 -361 LINE SMOOTH",
"111 -386 OFFCURVE",
"128 -430 OFFCURVE",
"170 -430 CURVE SMOOTH"
);
}
);
width = 3118;
},
{
anchors = (
{
name = bottom;
position = "{600, 0}";
},
{
name = top;
position = "{600, 1400}";
}
);
components = (
{
name = O;
}
);
layerId = m006;
paths = (
{
closed = 1;
nodes = (
"191 -430 OFFCURVE",
"209 -417 OFFCURVE",
"216 -399 CURVE SMOOTH",
"980 1503 LINE SMOOTH",
"993 1528 OFFCURVE",
"976 1572 OFFCURVE",
"934 1572 CURVE SMOOTH",
"913 1572 OFFCURVE",
"895 1559 OFFCURVE",
"888 1541 CURVE SMOOTH",
"124 -361 LINE SMOOTH",
"111 -386 OFFCURVE",
"128 -430 OFFCURVE",
"170 -430 CURVE SMOOTH"
);
}
);
width = 1118;
},
{
anchors = (
{
name = bottom;
position = "{600, 0}";
},
{
name = top;
position = "{600, 1400}";
}
);
components = (
{
alignment = -1;
name = O;
}
);
layerId = "2E7AB31B-3074-491A-95D2-A8A197C304C7";
paths = (
{
closed = 1;
nodes = (
"181 -405 OFFCURVE",
"190 -399 OFFCURVE",
"193 -390 CURVE SMOOTH",
"957 1513 LINE SMOOTH",
"963 1522 OFFCURVE",
"958 1547 OFFCURVE",
"934 1547 CURVE SMOOTH",
"923 1547 OFFCURVE",
"915 1541 OFFCURVE",
"911 1532 CURVE SMOOTH",
"147 -371 LINE SMOOTH",
"141 -380 OFFCURVE",
"146 -405 OFFCURVE",
"170 -405 CURVE SMOOTH"
);
}
);
width = 1118;
}
);
leftKerningGroup = O;
rightKerningGroup = H;
unicode = 00D8;
},
